<?xml version="1.0" standalone="no"?>
<!DOCTYPE svg PUBLIC "-//W3C//DTD SVG 1.1//EN" "http://www.w3.org/Graphics/SVG/1.1/DTD/svg11.dtd" >
<svg xmlns="http://www.w3.org/2000/svg" xmlns:xlink="http://www.w3.org/1999/xlink" version="1.1">
<metadata>
Created by FontForge 20170731 at Sun Jul 19 08:52:44 2015
 By Aleksey,,,
Copyright (c) 2007 by Process Type Foundry. All rights reserved.
</metadata>
<defs>
<font id="Seravek-LightItalic" horiz-adv-x="552" >
  <font-face 
    font-family="Seravek Light"
    font-weight="300"
    font-style="italic"
    font-stretch="normal"
    units-per-em="1000"
    panose-1="2 11 5 3 4 0 0 9 0 4"
    ascent="800"
    descent="-200"
    x-height="477"
    cap-height="666"
    bbox="-193 -290 1170 921"
    underline-thickness="36"
    underline-position="-304"
    slope="-10"
    unicode-range="U+0020-FB04"
  />
<missing-glyph horiz-adv-x="691" 
d="M130 666h466v-666h-466v666zM207 616l340 -527v527h-340zM179 49h339l-339 527v-527z" />
    <glyph glyph-name="f_f" unicode="ff" horiz-adv-x="649" 
d="M162 -154q15 -5 31.5 -7t31.5 -2q40 0 66 18.5t42 50t25.5 72t17.5 85.5l64 361h-225l-64 -361q-10 -56 -25 -106.5t-40 -88.5t-63.5 -61t-94.5 -23q-20 0 -43.5 3.5t-39.5 8.5l10 52q15 -5 33 -8t35 -3q42 0 69.5 18t45.5 49t29 72t19 87l64 361h-119l9 53h119l7 38
q19 103 63.5 153t130.5 50q57 0 95 -17l-12 -51q-34 14 -81 14q-55 0 -86 -34t-46 -119l-6 -34h225l7 38q19 103 64 153t132 50q28 0 55 -5t49 -16l-12 -52q-19 8 -42.5 13.5t-47.5 5.5q-55 0 -87 -34t-47 -119l-6 -34h156l-9 -53h-156l-64 -361q-10 -56 -23 -107t-36 -89
t-59.5 -60.5t-92.5 -22.5q-17 0 -37.5 2.5t-40.5 7.5z" />
    <glyph glyph-name="fi" unicode="fi" horiz-adv-x="522" 
d="M332 0l74 424h-191l-64 -361q-10 -56 -25 -106.5t-40 -88.5t-63.5 -61t-94.5 -23q-20 0 -43.5 3.5t-39.5 8.5l10 52q15 -5 33 -8t35 -3q42 0 69.5 18t45.5 49t29 72t19 87l64 361h-119l9 53h119l7 38q19 104 68.5 153.5t139.5 49.5q32 0 61 -4.5t53 -15.5l-12 -52
q-23 9 -47.5 13.5t-48.5 4.5q-32 0 -56 -7.5t-42.5 -25t-31 -47t-20.5 -73.5l-6 -34h257l-84 -477h-65z" />
    <glyph glyph-name="fl" unicode="fl" horiz-adv-x="534" 
d="M344 0l115 652q-19 6 -43 9t-48 3q-30 0 -52.5 -8t-39 -26t-28 -47.5t-18.5 -71.5l-6 -34h140l-9 -53h-140l-64 -361q-10 -56 -25 -106.5t-40 -88.5t-63.5 -61t-94.5 -23q-20 0 -43.5 3.5t-39.5 8.5l10 52q15 -5 33 -8t35 -3q42 0 69.5 18t45.5 49t29 72t19 87l64 361
h-119l9 53h119l7 38q19 106 65.5 154.5t135.5 48.5q57 0 101 -12h65l-124 -706h-65z" />
    <glyph glyph-name="f_f_i" unicode="ffi" horiz-adv-x="814" 
d="M447 85q-11 -59 -24.5 -113t-37 -96t-60.5 -67t-93 -25q-17 0 -35 2t-38 7l10 51q28 -7 58 -7q42 0 68 21t42.5 55.5t26 79t18.5 92.5l60 339h-225l-64 -361q-10 -56 -25 -106.5t-40 -88.5t-63.5 -61t-94.5 -23q-20 0 -44 3.5t-41 8.5l10 52q33 -11 70 -11q42 0 69.5 18
t45.5 49t29 72t19 87l64 361h-119l9 53h119l6 33q9 51 24 90t38 65.5t55.5 39.5t77.5 13q24 0 46.5 -3t39.5 -11l-12 -52q-18 7 -36.5 9.5t-35.5 2.5q-57 0 -87.5 -36.5t-45.5 -121.5l-5 -29h225l7 38q10 52 26.5 90.5t41.5 63.5t59.5 37t80.5 12q71 0 114 -20l-12 -52
q-24 9 -47 13.5t-49 4.5q-32 0 -56 -7.5t-42.5 -25t-31 -47t-20.5 -73.5l-6 -34h257l-84 -477h-65l74 424h-191z" />
    <glyph glyph-name="f_f_l" unicode="ffl" horiz-adv-x="824" 
d="M-145 -152q15 -5 33 -8t35 -3q42 0 69.5 18t45.5 49t29 72t19 87l64 361h-119l9 53h119l7 38q19 103 63.5 153t130.5 50q57 0 95 -17l-12 -51q-34 14 -81 14q-55 0 -86 -34t-46 -119l-6 -34h225l7 38q19 106 65.5 154.5t135.5 48.5q28 0 50 -2.5t51 -9.5h65l-124 -706
h-65l114 652q-20 7 -43 9.5t-47 2.5q-30 0 -52.5 -8t-39 -26t-28 -47.5t-18.5 -71.5l-6 -34h140l-9 -53h-140l-64 -362q-10 -56 -23 -106.5t-36 -88.5t-59.5 -60.5t-92.5 -22.5q-17 0 -37.5 2.5t-40.5 7.5l10 52q15 -5 31.5 -7t31.5 -2q40 0 66 18.5t42 50t25.5 72
t17.5 85.5l64 361h-225l-64 -361q-10 -56 -25 -106.5t-40 -88.5t-63.5 -61t-94.5 -23q-20 0 -43.5 3.5t-39.5 8.5z" />
    <glyph glyph-name="f_b" unicode="fb" horiz-adv-x="823" 
d="M469 341q14 27 34 53t44 47t52 33.5t59 12.5t54 -13.5t39 -36.5t24 -54t8 -66q0 -64 -16.5 -123t-50.5 -104.5t-85.5 -72.5t-121.5 -27q-18 0 -39.5 2.5t-44 7t-42.5 10.5t-35 13l111 629q-19 6 -43 9t-48 3q-30 0 -52.5 -8t-39 -26t-28 -47.5t-18.5 -71.5l-6 -34h140
l-9 -53h-140l-64 -361q-10 -56 -25 -106.5t-40 -88.5t-63.5 -61t-94.5 -23q-20 0 -43.5 3.5t-39.5 8.5l10 52q15 -5 33 -8t35 -3q42 0 69.5 18t45.5 49t29 72t19 87l64 361h-119l9 53h119l7 38q19 106 65.5 154.5t135.5 48.5q57 0 101 -12h65zM644 434q-29 0 -57 -19
t-53.5 -47.5t-46.5 -63t-36 -65.5l-32 -182q17 -7 40.5 -11t49.5 -4q55 0 94.5 22.5t65 60t37.5 87t12 103.5q0 50 -18 84.5t-56 34.5z" />
    <glyph glyph-name="f_f_b" unicode="ffb" horiz-adv-x="1113" 
d="M748 652q-20 7 -43 9.5t-47 2.5q-30 0 -52.5 -8t-39 -26t-28 -47.5t-18.5 -71.5l-6 -34h140l-9 -53h-140l-64 -362q-10 -56 -23 -106.5t-36 -88.5t-59.5 -60.5t-92.5 -22.5q-17 0 -37.5 2.5t-40.5 7.5l10 52q15 -5 31.5 -7t31.5 -2q40 0 66 18.5t42 50t25.5 72t17.5 85.5
l64 361h-225l-64 -361q-10 -56 -25 -106.5t-40 -88.5t-63.5 -61t-94.5 -23q-20 0 -43.5 3.5t-39.5 8.5l10 52q15 -5 33 -8t35 -3q42 0 69.5 18t45.5 49t29 72t19 87l64 361h-119l9 53h119l7 38q19 103 63.5 153t130.5 50q57 0 95 -17l-12 -51q-34 14 -81 14q-55 0 -86 -34
t-46 -119l-6 -34h225l7 38q19 106 65.5 154.5t135.5 48.5q28 0 50 -2.5t51 -9.5h65l-64 -365q14 27 34 53t44 47t52 33.5t59 12.5t54 -13.5t39 -36.5t24 -54t8 -66q0 -64 -16.5 -123t-50.5 -104.5t-85.5 -72.5t-121.5 -27q-18 0 -39.5 2.5t-44 7t-42.5 10.5t-35 13zM934 434
q-29 0 -57 -19t-53.5 -47.5t-46.5 -63t-36 -65.5l-32 -182q17 -7 40.5 -11t49.5 -4q55 0 94.5 22.5t65 60t37.5 87t12 103.5q0 50 -18 84.5t-56 34.5z" />
    <glyph glyph-name="f_h" unicode="fh" horiz-adv-x="843" 
d="M469 343q13 27 31.5 53t41 46t50.5 32.5t61 12.5q31 0 54 -12.5t38 -34t22 -51.5t7 -65q0 -17 -1.5 -36t-5.5 -39l-44 -249h-65l43 244q7 38 7 76q0 48 -16 80.5t-56 32.5q-27 0 -52 -15.5t-48.5 -41t-44 -58.5t-38.5 -68l-44 -250h-65l115 652q-19 6 -43 9t-48 3
q-30 0 -52.5 -8t-39 -26t-28 -47.5t-18.5 -71.5l-6 -34h140l-9 -53h-140l-64 -361q-10 -56 -25 -106.5t-40 -88.5t-63.5 -61t-94.5 -23q-20 0 -43.5 3.5t-39.5 8.5l10 52q15 -5 33 -8t35 -3q42 0 69.5 18t45.5 49t29 72t19 87l64 361h-119l9 53h119l7 38q19 106 65.5 154.5
t135.5 48.5q57 0 101 -12h65z" />
    <glyph glyph-name="f_f_h" unicode="ffh" horiz-adv-x="1133" 
d="M759 343q13 27 31.5 53t41 46t50.5 32.5t61 12.5q31 0 54 -12.5t38 -34t22 -51.5t7 -65q0 -17 -1.5 -36t-5.5 -39l-44 -249h-65l43 244q7 38 7 76q0 48 -16 80.5t-56 32.5q-27 0 -52 -15.5t-48.5 -41t-44 -58.5t-38.5 -68l-44 -250h-65l115 652q-20 7 -43.5 9.5
t-47.5 2.5q-30 0 -52.5 -8t-39 -26t-28 -47.5t-18.5 -71.5l-6 -34h140l-9 -53h-140l-64 -362q-10 -56 -23 -106.5t-36 -88.5t-59.5 -60.5t-92.5 -22.5q-17 0 -37.5 2.5t-40.5 7.5l10 52q15 -5 31.5 -7t31.5 -2q40 0 66 18.5t42 50t25.5 72t17.5 85.5l64 361h-225l-64 -361
q-10 -56 -25 -106.5t-40 -88.5t-63.5 -61t-94.5 -23q-20 0 -43.5 3.5t-39.5 8.5l10 52q15 -5 33 -8t35 -3q42 0 69.5 18t45.5 49t29 72t19 87l64 361h-119l9 53h119l7 38q19 103 63.5 153t130.5 50q57 0 95 -17l-12 -51q-34 14 -81 14q-55 0 -86 -34t-46 -119l-6 -34h225
l7 38q19 106 65.5 154.5t135.5 48.5q28 0 50 -2.5t51 -9.5h65z" />
    <glyph glyph-name="f_j" unicode="fj" horiz-adv-x="526" 
d="M412 424h-197l-59 -333q-11 -61 -28 -116.5t-46.5 -98t-74 -67.5t-109.5 -25q-11 0 -25.5 1.5t-27.5 5.5l7 51q11 -3 24.5 -4t21.5 -1q49 0 81.5 19.5t54 54t35 82t23.5 104.5l58 327h-119l9 53h119l7 38q19 104 68.5 153.5t139.5 49.5q32 0 61 -4.5t53 -15.5l-12 -52
q-23 9 -47.5 13.5t-48.5 4.5q-32 0 -56 -7.5t-42.5 -25t-31 -47t-20.5 -73.5l-6 -34h263l-72 -409q-8 -48 -21.5 -90.5t-36 -78.5t-57 -65t-83.5 -50l-25 50q38 18 64.5 40.5t45 51.5t29.5 64t19 79z" />
    <glyph glyph-name="f_f_j" unicode="ffj" horiz-adv-x="816" 
d="M702 424h-197l-59 -333q-11 -61 -27.5 -116.5t-45.5 -98t-73 -67.5t-109 -25q-11 0 -22 2t-19 4l7 50q15 -3 34 -3q49 0 81 19.5t53 54t34 82t23 104.5l58 327h-225l-64 -361q-10 -56 -25 -106.5t-40 -88.5t-63.5 -61t-94.5 -23q-20 0 -43.5 3.5t-39.5 8.5l10 52
q15 -5 33 -8t35 -3q42 0 69.5 18t45.5 49t29 72t19 87l64 361h-119l9 53h119l7 38q19 103 63.5 153t130.5 50q57 0 95 -17l-12 -51q-34 14 -81 14q-55 0 -86 -34t-46 -119l-6 -34h225l7 38q19 104 68.5 153.5t139.5 49.5q32 0 61 -4.5t53 -15.5l-12 -52q-23 9 -47.5 13.5
t-48.5 4.5q-32 0 -56 -7.5t-42.5 -25t-31 -47t-20.5 -73.5l-6 -34h263l-72 -409q-9 -48 -22.5 -90.5t-36 -78.5t-56.5 -65t-83 -50l-25 50q38 18 64.5 40.5t45 51.5t29.5 64t19 79z" />
    <glyph glyph-name="f_k" unicode="fk" horiz-adv-x="760" 
d="M453 250l231 227h86l-248 -241q38 -62 88 -121t117 -115h-91q-28 25 -54.5 54.5t-50.5 60.5t-44.5 62.5t-35.5 60.5l-42 -238h-65l115 652q-19 6 -43 9t-48 3q-30 0 -52.5 -8t-39 -26t-28 -47.5t-18.5 -71.5l-6 -34h140l-9 -53h-140l-64 -361q-10 -56 -25 -106.5
t-40 -88.5t-63.5 -61t-94.5 -23q-20 0 -43.5 3.5t-39.5 8.5l10 52q15 -5 33 -8t35 -3q42 0 69.5 18t45.5 49t29 72t19 87l64 361h-119l9 53h119l7 38q19 106 65.5 154.5t135.5 48.5q57 0 101 -12h65z" />
    <glyph glyph-name="f_f_k" unicode="ffk" horiz-adv-x="1050" 
d="M743 250l231 227h86l-248 -241q38 -62 88 -121t117 -115h-91q-28 25 -54.5 54.5t-50.5 60.5t-44.5 62.5t-35.5 60.5l-42 -238h-65l115 652q-20 7 -43.5 9.5t-47.5 2.5q-30 0 -52.5 -8t-39 -26t-28 -47.5t-18.5 -71.5l-6 -34h140l-9 -53h-140l-64 -362q-10 -56 -23 -106.5
t-36 -88.5t-59.5 -60.5t-92.5 -22.5q-17 0 -37.5 2.5t-40.5 7.5l10 52q15 -5 31.5 -7t31.5 -2q40 0 66 18.5t42 50t25.5 72t17.5 85.5l64 361h-225l-64 -361q-10 -56 -25 -106.5t-40 -88.5t-63.5 -61t-94.5 -23q-20 0 -43.5 3.5t-39.5 8.5l10 52q15 -5 33 -8t35 -3
q42 0 69.5 18t45.5 49t29 72t19 87l64 361h-119l9 53h119l7 38q19 103 63.5 153t130.5 50q57 0 95 -17l-12 -51q-34 14 -81 14q-55 0 -86 -34t-46 -119l-6 -34h225l7 38q19 106 65.5 154.5t135.5 48.5q28 0 50 -2.5t51 -9.5h65z" />
    <glyph glyph-name=".notdef" horiz-adv-x="691" 
d="M130 666h466v-666h-466v666zM207 616l340 -527v527h-340zM179 49h339l-339 527v-527z" />
    <glyph glyph-name=".null" horiz-adv-x="0" 
 />
    <glyph glyph-name="nonmarkingreturn" horiz-adv-x="333" 
 />
    <glyph glyph-name="space" unicode=" " horiz-adv-x="210" 
 />
    <glyph glyph-name="exclam" unicode="!" horiz-adv-x="272" 
d="M141 164h-37l38 301l35 201h68l-35 -201zM54 36q0 24 15 38.5t39 14.5q20 0 31.5 -12.5t11.5 -30.5q0 -21 -14 -37t-40 -16q-20 0 -31.5 12.5t-11.5 30.5z" />
    <glyph glyph-name="quotedbl" unicode="&#x22;" horiz-adv-x="392" 
d="M115 435l33 231h65l-48 -231h-50zM289 435l33 231h65l-48 -231h-50z" />
    <glyph glyph-name="numbersign" unicode="#" horiz-adv-x="646" 
d="M397 185h-194l-52 -185h-54l53 185h-114l8 46h119l60 212h-122l8 46h127l49 177h54l-50 -177h194l50 177h54l-50 -177h107l-8 -46h-112l-60 -212h113l-8 -46h-117l-53 -185h-54zM216 231h194l60 212h-194z" />
    <glyph glyph-name="dollar" unicode="$" horiz-adv-x="438" 
d="M132 -113l21 115q-33 5 -67 16t-59 24l16 51q31 -17 69 -28.5t76 -11.5q56 0 92.5 27t36.5 85q0 50 -28.5 87t-74.5 77q-52 45 -83 86.5t-31 94.5q0 36 12 64t33.5 47.5t50.5 30.5t63 12l21 115h59l-21 -116q29 -4 58 -13t54 -24l-17 -53q-34 19 -66 29t-70 10
q-50 0 -81 -25t-31 -74q0 -40 22 -70.5t63 -65.5q23 -20 46.5 -42t42.5 -47t31 -54t12 -64t-12.5 -64.5t-35 -52t-54 -36t-68.5 -16.5l-20 -114h-60z" />
    <glyph glyph-name="percent" unicode="%" horiz-adv-x="854" 
d="M632 678l44 -30l-434 -660l-43 30zM406 526q0 -38 -12 -79t-36 -75.5t-59.5 -57t-81.5 -22.5q-33 0 -58 13t-41.5 34.5t-24.5 49.5t-8 58q0 45 12.5 86.5t36.5 74t59 51.5t80 19q33 0 58 -12t41.5 -33t25 -48.5t8.5 -58.5zM221 338q32 0 56 17.5t40.5 44.5t25 59.5
t8.5 63.5q0 45 -20.5 77t-63.5 32q-32 0 -56 -17t-39.5 -43.5t-23.5 -59.5t-8 -65q0 -22 4 -41.5t13.5 -34.5t25 -24t38.5 -9zM795 222q0 -38 -12 -79t-36 -75.5t-59.5 -57t-81.5 -22.5q-33 0 -58 13t-41.5 34.5t-24.5 49.5t-8 58q0 45 12.5 86.5t36.5 74t59 51.5t80 19
q33 0 58 -12t41.5 -33t25 -48.5t8.5 -58.5zM610 34q32 0 56 17.5t40.5 44.5t25 59.5t8.5 63.5q0 45 -20.5 77t-63.5 32q-32 0 -56 -17t-39.5 -43.5t-23.5 -59.5t-8 -65q0 -22 4 -41.5t13.5 -34.5t25 -24t38.5 -9z" />
    <glyph glyph-name="ampersand" unicode="&#x26;" horiz-adv-x="695" 
d="M40 135q0 38 14.5 67t37.5 53t53 44t60 39q-29 35 -49 79t-20 94q0 76 48 121.5t130 45.5q30 0 56.5 -8.5t46 -25t30.5 -40.5t11 -54q0 -39 -19 -72.5t-46 -61t-57 -49t-52 -36.5q35 -42 77 -79t93 -78q33 42 61.5 91.5t54.5 109.5l48 -22q-25 -59 -56 -112t-67 -97
q34 -27 73.5 -54.5t84.5 -56.5l-30 -45q-90 56 -165 115q-54 -54 -114.5 -84.5t-128.5 -30.5q-41 0 -73.5 11t-55 31t-34.5 46.5t-12 58.5zM219 38q57 0 104 25t95 71q-48 36 -93.5 77.5t-85.5 87.5q-26 -16 -50 -32.5t-43 -35t-30.5 -41.5t-11.5 -53q0 -48 31.5 -73.5
t83.5 -25.5zM196 510q0 -42 15.5 -76t41.5 -66q24 16 49.5 34.5t47 40t35 47.5t13.5 56q0 35 -23 59t-65 24q-52 0 -83 -31t-31 -88z" />
    <glyph glyph-name="quotesingle" unicode="'" horiz-adv-x="218" 
d="M115 435l33 231h65l-48 -231h-50z" />
    <glyph glyph-name="parenleft" unicode="(" horiz-adv-x="329" 
d="M71 141q0 87 16 166.5t45.5 154t72.5 145t97 139.5l47 -36q-50 -67 -89.5 -132.5t-67 -134.5t-42 -143t-14.5 -158q0 -78 15.5 -152t43.5 -153l-56 -23q-36 94 -52 170.5t-16 156.5z" />
    <glyph glyph-name="parenright" unicode=")" horiz-adv-x="329" 
d="M266 419q0 -87 -15.5 -166t-45.5 -152.5t-73 -144.5t-97 -142l-47 36q50 67 89.5 134t67 137t42 143.5t14.5 153.5q0 78 -15 150t-44 155l56 23q35 -90 51.5 -168t16.5 -159z" />
    <glyph glyph-name="asterisk" unicode="*" horiz-adv-x="402" 
d="M247 581l22 125l36 -6l-21 -120l120 63l15 -32l-122 -63l103 -64l-19 -31l-108 68l-21 -125l-36 6l20 116l-116 -61l-15 32l123 62l-112 70l20 31z" />
    <glyph glyph-name="plus" unicode="+" horiz-adv-x="593" 
d="M346 298v-209h-59v209h-196v51h196v209h59v-209h196v-51h-196z" />
    <glyph glyph-name="comma" unicode="," horiz-adv-x="226" 
d="M-28 -118q37 50 58.5 100t32.5 110l60 -11q-11 -69 -37.5 -123.5t-70.5 -105.5z" />
    <glyph glyph-name="hyphen" unicode="-" horiz-adv-x="349" 
d="M57 232l8 54h235l-9 -54h-234z" />
    <glyph glyph-name="period" unicode="." horiz-adv-x="242" 
d="M37 36q0 24 15 38.5t39 14.5q20 0 31.5 -12.5t11.5 -30.5q0 -21 -14 -37t-40 -16q-20 0 -31.5 12.5t-11.5 30.5z" />
    <glyph glyph-name="slash" unicode="/" horiz-adv-x="419" 
d="M386 693l50 -27l-387 -766l-50 27z" />
    <glyph glyph-name="zero" unicode="0" horiz-adv-x="574" 
d="M542 443q0 -40 -7.5 -89.5t-22.5 -100t-38.5 -98t-56 -85t-74.5 -60t-94 -22.5q-48 0 -82.5 19.5t-57 52.5t-33.5 76t-11 90q0 44 7 95t21.5 101.5t37.5 96.5t55 81.5t74 56.5t95 21q50 0 85.5 -19.5t58 -51.5t33 -75t10.5 -89zM252 41q36 0 67 18.5t56 50t44 72.5
t32 85.5t19.5 89.5t6.5 85q0 37 -7.5 70t-23 58t-40 40t-57.5 15q-39 0 -70 -19.5t-55.5 -51.5t-42 -73.5t-29 -86t-17 -88.5t-5.5 -80q0 -39 6.5 -72.5t21 -58.5t37.5 -39.5t57 -14.5z" />
    <glyph glyph-name="one" unicode="1" horiz-adv-x="328" 
d="M128 0l104 591l-141 -54l-18 52l188 77h49l-117 -666h-65z" />
    <glyph glyph-name="two" unicode="2" horiz-adv-x="450" 
d="M106 639q29 18 64.5 28.5t79.5 10.5q79 0 126 -44.5t47 -120.5q0 -47 -14 -88.5t-38 -79.5t-54.5 -73t-63.5 -68q-42 -42 -83 -80t-76 -70h290l-9 -54h-359l-8 42q57 53 102.5 98t89.5 90q25 27 53 58t51.5 66t38.5 73.5t15 79.5q0 51 -29.5 84t-85.5 33
q-34 0 -62.5 -9.5t-57.5 -25.5z" />
    <glyph glyph-name="three" unicode="3" horiz-adv-x="448" 
d="M395 172q0 -39 -14.5 -73t-41.5 -58.5t-65.5 -38.5t-85.5 -14q-46 0 -89.5 15t-75.5 35l19 50q32 -20 67.5 -33.5t80.5 -13.5q71 0 105.5 37.5t34.5 92.5q0 33 -14.5 59.5t-40 45.5t-59.5 29t-73 10h-12l4 54h10q44 0 83.5 11t69 31t47 49.5t17.5 66.5q0 46 -32 71.5
t-83 25.5q-34 0 -64.5 -8.5t-58.5 -22.5l-13 50q29 17 65 26t81 9q35 0 66 -9.5t54 -27.5t36.5 -45t13.5 -61q0 -76 -50 -124.5t-128 -70.5q29 -9 55.5 -23.5t46.5 -35t32 -48t12 -61.5z" />
    <glyph glyph-name="four" unicode="4" horiz-adv-x="506" 
d="M376 203l-36 -203h-62l36 203h-273l-11 49l358 414h69l-72 -411h88l-9 -52h-88zM380 579l-274 -324h217z" />
    <glyph glyph-name="five" unicode="5" horiz-adv-x="461" 
d="M409 184q0 -44 -16.5 -80t-46 -61.5t-70.5 -40t-89 -14.5q-42 0 -86 10.5t-78 28.5l15 53q33 -17 69 -27.5t79 -10.5q78 0 118 38.5t40 98.5q0 37 -17.5 63.5t-50 44.5t-77.5 27.5t-99 12.5l60 339h301l-9 -54h-236l-42 -239q41 -4 83 -15.5t75.5 -34t55 -56.5t21.5 -83z
" />
    <glyph glyph-name="six" unicode="6" horiz-adv-x="527" 
d="M484 627q-149 -42 -237.5 -120.5t-116.5 -187.5q23 23 62 41.5t95 18.5q39 0 72 -13t57 -37t37.5 -57.5t13.5 -73.5q0 -45 -16 -83.5t-44 -66.5t-66.5 -44t-84.5 -16q-51 0 -89 20t-63 53t-37 76t-12 90q0 88 32.5 162.5t89 132t131.5 97t161 59.5zM257 40q32 0 59 11.5
t46.5 31.5t30 48t10.5 61q0 62 -34 98.5t-91 36.5q-51 0 -89 -19.5t-68 -46.5q-3 -20 -3 -40q0 -33 8 -65t25 -58t43 -42t63 -16z" />
    <glyph glyph-name="seven" unicode="7" horiz-adv-x="443" 
d="M473 611l-392 -622l-49 31l376 592h-304l7 54h357z" />
    <glyph glyph-name="eight" unicode="8" horiz-adv-x="512" 
d="M317 678q37 0 68 -10.5t53.5 -28.5t34.5 -43t12 -54q0 -35 -15.5 -64t-39 -53t-51 -42.5t-52.5 -33.5q22 -17 44 -36t39.5 -41t28 -47t10.5 -55q0 -41 -16.5 -74.5t-45 -57.5t-67.5 -37t-84 -13q-42 0 -76 11.5t-59 32.5t-38.5 49.5t-13.5 61.5q0 43 18.5 76t46 58.5
t60 43.5t61.5 32q-20 14 -40 32t-35.5 39.5t-25 45.5t-9.5 50q0 38 14.5 67.5t40.5 49.5t61 30.5t76 10.5zM386 167q0 23 -9.5 43.5t-25 39t-35 35.5t-40.5 34q-27 -16 -56.5 -32t-53.5 -36t-39.5 -46t-15.5 -61q0 -50 34 -77.5t94 -27.5q66 0 106.5 34.5t40.5 93.5z
M187 521q0 -23 8 -42t21.5 -36t31 -32.5t36.5 -29.5q24 14 48.5 30t45 35.5t33 42.5t12.5 50q0 39 -30.5 63.5t-78.5 24.5q-27 0 -50 -6.5t-40 -20t-27 -33t-10 -46.5z" />
    <glyph glyph-name="nine" unicode="9" horiz-adv-x="513" 
d="M63 39q149 42 235.5 118t118.5 190q-23 -23 -62 -41.5t-95 -18.5q-40 0 -73 13t-57 37t-37 57.5t-13 74.5q0 42 14 80t41 66.5t66 45.5t90 17q50 0 87.5 -19.5t63 -52t38 -75.5t12.5 -90q0 -90 -33 -164.5t-89 -132t-131.5 -97t-160.5 -59.5zM290 626q-34 0 -61 -12
t-46 -33t-29 -49t-10 -60q0 -63 32.5 -98t92.5 -35q51 0 89 19.5t68 46.5q3 19 3 40q0 33 -8 65t-25 58t-43 42t-63 16z" />
    <glyph glyph-name="colon" unicode=":" horiz-adv-x="244" 
d="M37 36q0 24 15 38.5t39 14.5q20 0 31.5 -12.5t11.5 -30.5q0 -21 -14 -37t-40 -16q-20 0 -31.5 12.5t-11.5 30.5zM94 358q0 24 15 38.5t39 14.5q20 0 31.5 -12.5t11.5 -30.5q0 -21 -14 -37t-40 -16q-20 0 -31.5 12.5t-11.5 30.5z" />
    <glyph glyph-name="semicolon" unicode=";" horiz-adv-x="239" 
d="M89 358q0 24 15 38.5t39 14.5q20 0 31.5 -12.5t11.5 -30.5q0 -21 -14 -37t-40 -16q-20 0 -31.5 12.5t-11.5 30.5zM-28 -118q37 50 58.5 100t32.5 110l60 -11q-11 -69 -37.5 -123.5t-70.5 -105.5z" />
    <glyph glyph-name="less" unicode="&#x3c;" horiz-adv-x="581" 
d="M503 567l23 -48l-389 -196l389 -196l-23 -48l-428 219v50z" />
    <glyph glyph-name="equal" unicode="=" horiz-adv-x="600" 
d="M108 453h441v-51h-441v51zM108 244h441v-51h-441v51z" />
    <glyph glyph-name="greater" unicode="&#x3e;" horiz-adv-x="581" 
d="M526 348v-50l-428 -219l-23 48l389 196l-389 196l23 48z" />
    <glyph glyph-name="question" unicode="?" horiz-adv-x="415" 
d="M420 531q0 -55 -25.5 -101.5t-66.5 -87t-92.5 -76.5t-103.5 -70l-32 47q48 32 94 64.5t81.5 67t57 72.5t21.5 80q0 46 -28 71.5t-71 25.5q-60 0 -125 -37l-18 51q35 20 68.5 30t78.5 10q34 0 63 -9.5t51 -28.5t34.5 -46t12.5 -63zM85 36q0 24 15 38.5t39 14.5
q20 0 31.5 -12.5t11.5 -30.5q0 -21 -14 -37t-40 -16q-20 0 -31.5 12.5t-11.5 30.5z" />
    <glyph glyph-name="at" unicode="@" horiz-adv-x="796" 
d="M444 396q26 0 52 -6t47 -16l-26 -147q-3 -17 -3 -31q0 -32 14.5 -51.5t46.5 -19.5q28 0 51.5 14t40 38.5t25.5 58t9 71.5q0 55 -19.5 97.5t-55 72t-84 44.5t-106.5 15q-66 0 -124.5 -22.5t-102 -65t-68.5 -103t-25 -135.5q0 -134 76.5 -208t219.5 -74q67 0 127.5 13.5
t114.5 39.5l13 -41q-63 -29 -130 -42.5t-130 -13.5q-82 0 -145.5 24.5t-107 67.5t-66.5 102.5t-23 130.5q0 85 28 153.5t78 117t118 74.5t149 26q70 0 128 -20t99 -56t63.5 -86t22.5 -109q0 -50 -14 -91.5t-38.5 -71t-57.5 -46t-72 -16.5q-25 0 -44 8.5t-32.5 23t-20.5 33.5
t-7 39q-9 -20 -22 -38t-28.5 -31.5t-33 -22t-35.5 -8.5q-21 0 -35 9t-22.5 23.5t-12.5 33.5t-4 39q0 39 10.5 76t32 65t53.5 45t76 17zM440 352q-30 0 -52 -14t-36.5 -37t-21 -51.5t-6.5 -56.5q0 -24 7 -42.5t29 -18.5q14 0 28.5 9.5t28 25.5t26.5 37.5t24 45.5l17 96
q-18 6 -44 6z" />
    <glyph glyph-name="A" unicode="A" horiz-adv-x="639" 
d="M466 170h-314l-93 -170h-72l374 666h63l142 -666h-67zM181 225h275l-72 374z" />
    <glyph glyph-name="B" unicode="B" horiz-adv-x="547" 
d="M40 0l117 666h179q87 0 136 -38.5t49 -101.5q0 -37 -15 -67.5t-40 -53.5t-57 -38.5t-65 -21.5q65 -14 105 -50.5t40 -101.5q0 -51 -23 -88t-60.5 -60t-84.5 -34t-95 -11h-186zM424 194q0 31 -13 54.5t-35.5 38.5t-52.5 22.5t-64 7.5h-98l-47 -265h119q37 0 71.5 8
t61 25.5t42.5 44t16 64.5zM248 369q38 0 75 10t66.5 28.5t47.5 46.5t18 64q0 48 -36 72t-96 24h-110l-43 -245h78z" />
    <glyph glyph-name="C" unicode="C" horiz-adv-x="600" 
d="M420 678q49 0 98.5 -9.5t87.5 -27.5l-14 -54q-38 17 -82 26.5t-89 9.5q-72 0 -127.5 -25.5t-94 -70.5t-58 -106.5t-19.5 -133.5q0 -54 15.5 -99t46 -77.5t76 -50t106.5 -17.5q35 0 71.5 5.5t71.5 17.5l8 -52q-34 -13 -76 -19.5t-84 -6.5q-69 0 -124.5 22t-94.5 61.5
t-60.5 94t-21.5 119.5q0 78 23 149.5t68.5 125.5t114 86t158.5 32z" />
    <glyph glyph-name="D" unicode="D" horiz-adv-x="664" 
d="M157 666h160q71 0 130 -19.5t101 -56.5t65 -89.5t23 -119.5q0 -83 -29 -153t-83 -120.5t-131.5 -79t-174.5 -28.5h-178zM222 54q87 1 152 26t108.5 68.5t65.5 102.5t22 128q0 56 -19 99.5t-53.5 73t-82 45t-105.5 15.5h-97l-98 -558h107z" />
    <glyph glyph-name="E" unicode="E" horiz-adv-x="491" 
d="M157 666h351l-9 -55h-286l-43 -243h274l-10 -55h-274l-45 -258h289l-10 -55h-354z" />
    <glyph glyph-name="F" unicode="F" horiz-adv-x="466" 
d="M40 0l117 666h353l-9 -55h-287l-46 -259h274l-9 -55h-275l-52 -297h-66z" />
    <glyph glyph-name="G" unicode="G" horiz-adv-x="668" 
d="M430 678q59 0 117 -11t108 -38l-16 -53q-53 26 -105.5 36.5t-103.5 10.5q-74 0 -131.5 -26t-97 -71t-60 -106t-20.5 -131q0 -118 65.5 -183t193.5 -65q32 0 62.5 3t59.5 11l39 225h62l-46 -265q-18 -6 -41 -11t-47.5 -8.5t-50 -5.5t-47.5 -2q-75 0 -134 22.5t-99.5 62
t-61.5 95t-21 121.5q0 79 24 149.5t71.5 124t117.5 84.5t162 31z" />
    <glyph glyph-name="H" unicode="H" horiz-adv-x="659" 
d="M463 0l55 309h-358l-54 -309h-66l117 666h66l-53 -300h357l53 300h66l-117 -666h-66z" />
    <glyph glyph-name="I" unicode="I" horiz-adv-x="246" 
d="M111 0h-66l117 666h66z" />
    <glyph glyph-name="J" unicode="J" horiz-adv-x="242" 
d="M147 188q-9 -53 -24 -98.5t-39 -87t-59 -80t-86 -75.5l-36 45q39 30 69 62t51.5 68t35.5 76.5t22 88.5l84 479h66z" />
    <glyph glyph-name="K" unicode="K" 
d="M40 0l117 666h66l-56 -321l331 321h87l-346 -333l270 -333h-83l-261 334l-59 -334h-66z" />
    <glyph glyph-name="L" unicode="L" horiz-adv-x="449" 
d="M223 666l-107 -611h273l-10 -55h-339l117 666h66z" />
    <glyph glyph-name="M" unicode="M" horiz-adv-x="813" 
d="M424 128h-74l-136 425l-124 -553h-62l149 666h60l158 -481l317 481h67l-83 -666h-62l67 545z" />
    <glyph glyph-name="N" unicode="N" horiz-adv-x="687" 
d="M493 0l-290 567l-100 -567h-63l117 666h63l291 -567l100 567h63l-117 -666h-64z" />
    <glyph glyph-name="O" unicode="O" horiz-adv-x="724" 
d="M692 393q0 -78 -25 -151t-71.5 -129.5t-112.5 -90.5t-148 -34q-67 0 -118.5 23t-87 62t-53.5 90.5t-18 107.5q0 84 24.5 158t71 129.5t113 87.5t149.5 32q64 0 115.5 -21.5t87 -60t54.5 -90.5t19 -113zM340 42q64 0 117 29t90.5 77t58 111t20.5 131q0 51 -15.5 94
t-43.5 74t-67.5 48.5t-88.5 17.5q-70 0 -123.5 -30t-90 -79.5t-55 -112.5t-18.5 -128q0 -54 15 -97t43 -73t68 -46t90 -16z" />
    <glyph glyph-name="P" unicode="P" horiz-adv-x="497" 
d="M510 495q0 -60 -26.5 -102.5t-69.5 -69.5t-99 -39t-114 -12h-47l-48 -272h-66l117 666h156q43 0 79 -12t62.5 -34.5t41 -54t14.5 -70.5zM207 326q46 0 89 9t76 29t52.5 51.5t19.5 76.5q0 57 -39 88.5t-97 31.5h-94l-51 -286h44z" />
    <glyph glyph-name="Q" unicode="Q" horiz-adv-x="724" 
d="M692 393q0 -59 -14.5 -115t-41.5 -105t-66.5 -88.5t-88.5 -63.5l166 -121l-37 -45l-193 143q-17 -5 -38.5 -7.5t-43.5 -2.5q-67 0 -118.5 23t-87 62t-53.5 90.5t-18 107.5q0 84 24.5 158t71 129.5t113 87.5t149.5 32q64 0 115.5 -21.5t87 -60t54.5 -90.5t19 -113zM340 42
q64 0 117 29t90.5 77t58 111t20.5 131q0 51 -15.5 94t-43.5 74t-67.5 48.5t-88.5 17.5q-70 0 -123.5 -30t-90 -79.5t-55 -112.5t-18.5 -128q0 -54 15 -97t43 -73t68 -46t90 -16z" />
    <glyph glyph-name="R" unicode="R" horiz-adv-x="554" 
d="M519 500q0 -46 -18 -82t-47.5 -62.5t-67 -43.5t-77.5 -24l185 -288h-76l-173 279q-11 -2 -23 -2h-23h-44l-49 -277h-66l117 666h167q43 0 79 -12t61.5 -34t40 -52.5t14.5 -67.5zM213 331q46 0 89.5 9.5t77 29t53.5 50.5t20 75q0 59 -40.5 88t-100.5 29h-98l-50 -281h49z
" />
    <glyph glyph-name="S" unicode="S" horiz-adv-x="474" 
d="M416 170q0 -41 -16 -74.5t-45 -57.5t-68.5 -37t-86.5 -13q-44 0 -92 9.5t-86 26.5l15 55q38 -17 79.5 -27t83.5 -10q67 0 108.5 30.5t41.5 93.5q0 24 -9.5 46t-25.5 42t-38 39t-46 39q-30 24 -54 45t-41 42t-26 44t-9 50q0 40 14 71t39.5 52t60.5 31.5t77 10.5
q53 0 95.5 -11.5t80.5 -33.5l-16 -54q-38 20 -76.5 32.5t-80.5 12.5q-54 0 -91 -25t-37 -81q0 -20 7 -37t20.5 -33t32 -32.5t42.5 -34.5q22 -17 48 -38t48 -47t36.5 -57t14.5 -69z" />
    <glyph glyph-name="T" unicode="T" horiz-adv-x="492" 
d="M538 666l-9 -54h-186l-108 -612h-66l108 612h-186l9 54h438z" />
    <glyph glyph-name="U" unicode="U" horiz-adv-x="664" 
d="M588 666h66l-76 -435q-9 -49 -29 -93t-54 -77.5t-81 -53t-110 -19.5q-53 0 -95 16t-71 44.5t-45 67.5t-16 85q0 26 4 49l74 416h66l-74 -420q-2 -12 -3 -23.5t-1 -23.5q0 -33 9.5 -62t29.5 -50t51.5 -33t75.5 -12q85 0 136 48.5t66 135.5z" />
    <glyph glyph-name="V" unicode="V" horiz-adv-x="564" 
d="M282 0h-70l-115 666h65l98 -586l293 586h72z" />
    <glyph glyph-name="W" unicode="W" horiz-adv-x="916" 
d="M641 91l256 575h69l-306 -666h-68l-76 603l-278 -603h-68l-72 666h63l57 -575l267 575h80z" />
    <glyph glyph-name="X" unicode="X" horiz-adv-x="603" 
d="M318 288l-239 -288h-81l292 345l-158 321h70l130 -273l224 273h79l-275 -328l169 -338h-70z" />
    <glyph glyph-name="Y" unicode="Y" horiz-adv-x="511" 
d="M292 261l-46 -261h-66l47 270l-147 396h68l122 -340l232 340h77z" />
    <glyph glyph-name="Z" unicode="Z" horiz-adv-x="525" 
d="M137 666h413l-9 -54l-440 -558h351l-9 -54h-407l-8 54l439 558h-340z" />
    <glyph glyph-name="bracketleft" unicode="[" horiz-adv-x="346" 
d="M29 -176l161 912h176l-10 -53h-111l-142 -806h111l-9 -53h-176z" />
    <glyph glyph-name="backslash" unicode="\" horiz-adv-x="419" 
d="M308 -90l-58 -10l-119 766l57 9z" />
    <glyph glyph-name="bracketright" unicode="]" horiz-adv-x="345" 
d="M325 736l-161 -912h-176l10 53h111l142 806h-111l9 53h176z" />
    <glyph glyph-name="asciicircum" unicode="^" horiz-adv-x="500" 
d="M450 345l-51 -24l-134 288l-134 -288l-51 24l155 321h60z" />
    <glyph glyph-name="underscore" unicode="_" horiz-adv-x="404" 
d="M-88 -250l3 36h409l-4 -36h-408z" />
    <glyph glyph-name="grave" unicode="`" horiz-adv-x="385" 
d="M247 554l-63 156h70l46 -156h-53z" />
    <glyph glyph-name="a" unicode="a" horiz-adv-x="508" 
d="M384 0h-62l32 186q-14 -30 -34 -64.5t-44.5 -64t-54.5 -48.5t-63 -19q-32 0 -54 14t-36.5 37t-21 53t-6.5 62q0 63 17.5 122.5t52 106t85.5 74.5t119 28q40 0 80 -8t71 -20zM165 42q30 0 60.5 29t58.5 72.5t52 95t42 96.5l16 90q-34 10 -80 10q-50 0 -89 -22.5t-65.5 -61
t-40.5 -88.5t-14 -105q0 -23 3 -44t9.5 -37t18 -25.5t29.5 -9.5z" />
    <glyph glyph-name="b" unicode="b" horiz-adv-x="514" 
d="M159 706h65l-64 -365q14 27 34 53t44 47t52 33.5t59 12.5t54 -13.5t39 -36.5t24 -54t8 -66q0 -64 -16.5 -123t-50.5 -104.5t-85.5 -72.5t-121.5 -27q-18 0 -39.5 2.5t-44 7t-42.5 10.5t-35 13zM335 434q-29 0 -57 -19t-53.5 -47.5t-46.5 -63t-36 -65.5l-32 -182
q17 -7 40.5 -11t49.5 -4q55 0 94.5 22.5t65 60t37.5 87t12 103.5q0 50 -18 84.5t-56 34.5z" />
    <glyph glyph-name="c" unicode="c" horiz-adv-x="421" 
d="M291 487q75 0 128 -31l-14 -53q-28 14 -54.5 22t-59.5 8q-45 0 -80 -19.5t-59 -53t-36.5 -79t-12.5 -96.5q0 -65 29 -103.5t95 -38.5q31 0 59.5 7.5t54.5 20.5l13 -49q-28 -15 -62 -23.5t-72 -8.5q-48 0 -82 16t-56.5 43t-33 63t-10.5 75q0 59 16.5 113t49 95.5
t79.5 66.5t108 25z" />
    <glyph glyph-name="d" unicode="d" horiz-adv-x="521" 
d="M396 0h-63l25 145q-15 -26 -35.5 -53.5t-45.5 -50t-53.5 -37t-61.5 -14.5q-32 0 -55 14.5t-38 38t-22 53.5t-7 62q0 63 17 122.5t51 105t85 73.5t120 28q60 0 101 -16l41 235h65zM176 42q28 0 56 19.5t54 51t49.5 70.5t41.5 78l28 158q-40 16 -89 16q-56 0 -95.5 -23.5
t-65.5 -61.5t-38 -87.5t-12 -101.5q0 -21 2.5 -42.5t10 -38.5t21.5 -27.5t37 -10.5z" />
    <glyph glyph-name="e" unicode="e" horiz-adv-x="440" 
d="M295 487q26 0 49 -7t40 -20.5t27 -33.5t10 -46q0 -33 -15.5 -58.5t-41 -43.5t-58 -30.5t-68 -20t-70 -11.5t-63.5 -5q-3 -21 -3 -40q0 -56 26 -92t87 -36q35 0 68.5 10t64.5 27l13 -49q-32 -19 -70 -30t-80 -11q-44 0 -76 14.5t-53.5 39.5t-32 59t-10.5 73q0 58 17 114
t50 100t80.5 70.5t108.5 26.5zM287 437q-34 0 -63 -15.5t-51.5 -40t-37.5 -56t-21 -63.5q36 1 78.5 7t79 18.5t61.5 34.5t25 55q0 26 -18.5 43t-52.5 17z" />
    <glyph glyph-name="f" unicode="f" horiz-adv-x="359" 
d="M-145 -152q15 -5 33 -8t35 -3q42 0 69.5 18t45.5 49t29 72t19 87l64 361h-109l9 53h109l7 38q19 103 64 153t132 50q28 0 55 -5t49 -16l-12 -52q-19 8 -42.5 13.5t-47.5 5.5q-55 0 -87 -34t-47 -119l-6 -34h156l-9 -53h-156l-64 -361q-10 -56 -25 -106.5t-40 -88.5
t-63.5 -61t-94.5 -23q-20 0 -43.5 3.5t-39.5 8.5z" />
    <glyph glyph-name="g" unicode="g" horiz-adv-x="514" 
d="M396 31q-11 -60 -28.5 -106t-45 -77.5t-66 -47.5t-90.5 -16q-40 0 -84.5 12t-76.5 30l16 51q32 -17 69.5 -28.5t74.5 -11.5q39 0 67 13.5t47.5 38t31.5 60t20 80.5l25 141q-14 -29 -34 -58.5t-45 -53.5t-54 -39t-61 -15q-30 0 -52 11.5t-36.5 31.5t-22 47.5t-7.5 60.5
q0 69 18.5 129.5t54 105.5t87 71t118.5 26q38 0 77.5 -7t72.5 -21zM168 57q27 0 55.5 19t55.5 49.5t51.5 70.5t44.5 82l25 142q-38 14 -85 14q-49 0 -87.5 -22.5t-65 -60.5t-40.5 -89t-14 -109q0 -20 3 -37.5t10 -30.5t18.5 -20.5t28.5 -7.5z" />
    <glyph glyph-name="h" unicode="h" horiz-adv-x="534" 
d="M35 0l124 706h65l-64 -363q13 27 31.5 53t41 46t50.5 32.5t61 12.5q31 0 54 -12.5t38 -34t22 -51.5t7 -65q0 -17 -1.5 -36t-5.5 -39l-44 -249h-65l43 244q7 38 7 76q0 48 -16 80.5t-56 32.5q-27 0 -52 -15.5t-48.5 -41t-44 -58.5t-38.5 -68l-44 -250h-65z" />
    <glyph glyph-name="i" unicode="i" horiz-adv-x="225" 
d="M35 0l84 477h65l-84 -477h-65zM130 618q0 20 13.5 35.5t38.5 15.5q20 0 31 -11t11 -29q0 -22 -15 -36.5t-38 -14.5q-19 0 -30 11.5t-11 28.5z" />
    <glyph glyph-name="j" unicode="j" horiz-adv-x="226" 
d="M126 119q-10 -58 -28.5 -107t-47 -90t-69 -75.5t-95.5 -62.5l-29 47q44 25 78 53t59 62.5t41.5 77t25.5 95.5l63 358h65zM135 618q0 20 13.5 35.5t38.5 15.5q20 0 31 -11t11 -29q0 -22 -15 -36.5t-38 -14.5q-19 0 -30 11.5t-11 28.5z" />
    <glyph glyph-name="k" unicode="k" horiz-adv-x="451" 
d="M35 0l124 706h65l-80 -456l231 227h86l-248 -241q38 -62 88 -121t117 -115h-91q-28 25 -54.5 54.5t-50.5 60.5t-44.5 62.5t-35.5 60.5l-42 -238h-65z" />
    <glyph glyph-name="l" unicode="l" horiz-adv-x="225" 
d="M35 0l124 706h65l-124 -706h-65z" />
    <glyph glyph-name="m" unicode="m" horiz-adv-x="834" 
d="M407 0h-65l43 244q4 20 5.5 40t1.5 36q0 48 -16 80.5t-56 32.5q-26 0 -50 -15.5t-46.5 -41t-42.5 -58.5t-37 -68l-44 -250h-65l84 477h63l-24 -136q14 28 32.5 54.5t41 47t49 32.5t57.5 12q30 0 52 -11.5t36 -31.5t21.5 -47t9.5 -59q15 31 34 58t42 47t50.5 32t58.5 12
t54 -12t38.5 -34t23 -51.5t7.5 -65.5q0 -17 -2 -36.5t-5 -38.5l-44 -249h-65l43 244q7 41 7 76q0 48 -16 80.5t-56 32.5q-26 0 -51 -16t-47.5 -42t-42.5 -59t-35 -67z" />
    <glyph glyph-name="n" unicode="n" horiz-adv-x="534" 
d="M35 0l84 477h63l-24 -136q15 28 33.5 54.5t41.5 47t50.5 32.5t60.5 12q31 0 54 -12.5t38 -34t22 -51.5t7 -65q0 -17 -1.5 -36t-5.5 -39l-44 -249h-65l43 244q7 38 7 76q0 48 -16 80.5t-56 32.5q-26 0 -51.5 -15.5t-48.5 -41t-44 -58.5t-39 -68l-44 -250h-65z" />
    <glyph glyph-name="o" unicode="o" horiz-adv-x="508" 
d="M471 293q0 -53 -17 -107t-49.5 -97.5t-80 -71t-108.5 -27.5q-44 0 -77 15t-55.5 41.5t-34 61.5t-11.5 74q0 56 16.5 110.5t48.5 98t79 70t109 26.5q45 0 78.5 -15.5t56 -42t34 -61.5t11.5 -75zM221 42q43 0 77 22t58 57t37 79.5t13 88.5q0 30 -7 56.5t-22 46.5t-38 31.5
t-54 11.5q-42 0 -75.5 -21t-57.5 -56.5t-36.5 -80.5t-12.5 -93q0 -30 6.5 -55.5t20.5 -45t36.5 -30.5t54.5 -11z" />
    <glyph glyph-name="p" unicode="p" horiz-adv-x="515" 
d="M119 477h63l-27 -149q16 29 36 57.5t44 51t53 36.5t63 14q30 0 53.5 -13.5t39 -36.5t23.5 -53.5t8 -64.5q0 -63 -17 -122.5t-51 -105t-85 -73.5t-120 -28q-27 0 -52.5 4t-48.5 12l-37 -212h-65zM339 435q-26 0 -53.5 -18.5t-53.5 -49t-50 -69t-43 -77.5l-29 -163
q20 -8 43 -12t46 -4q55 0 95 23.5t66 61.5t38 87.5t12 101.5q0 22 -3.5 43.5t-12 38.5t-22 27t-33.5 10z" />
    <glyph glyph-name="q" unicode="q" horiz-adv-x="518" 
d="M359 -206h-65l61 350q-16 -29 -36 -57t-44 -49.5t-51.5 -34.5t-58.5 -13t-54.5 13.5t-39 36.5t-23.5 54t-8 66q0 64 16.5 123t50.5 104.5t85.5 72.5t120.5 27q43 0 86 -9t76 -24zM177 43q28 0 56.5 20t55 50.5t48 66t36.5 66.5l31 174q-19 8 -43 11.5t-47 3.5
q-53 0 -92 -22.5t-65 -60t-39 -87.5t-13 -105q0 -22 3.5 -43t11.5 -37.5t22 -26.5t35 -10z" />
    <glyph glyph-name="r" unicode="r" horiz-adv-x="327" 
d="M338 420q-5 1 -13 1q-63 0 -106.5 -48t-75.5 -130l-43 -243h-65l84 477h64l-26 -149q10 32 24.5 59.5t34.5 48t45 32t57 11.5q7 0 16 -0.5t14 -2.5z" />
    <glyph glyph-name="s" unicode="s" horiz-adv-x="396" 
d="M335 129q0 -32 -12.5 -57.5t-35 -43.5t-54 -28t-68.5 -10q-39 0 -77 9t-64 20l15 53q28 -13 60 -21.5t63 -8.5q47 0 78 19t31 61q0 32 -24.5 55.5t-59.5 46.5q-21 13 -40.5 27.5t-34.5 31t-24 36t-9 42.5q0 63 43 94.5t111 31.5q39 0 73.5 -8.5t61.5 -23.5l-14 -53
q-31 16 -60.5 24.5t-61.5 8.5q-37 0 -63 -15t-26 -53q0 -29 19 -47.5t57 -43.5q18 -12 38.5 -26.5t37.5 -32.5t28.5 -39.5t11.5 -48.5z" />
    <glyph glyph-name="t" unicode="t" horiz-adv-x="366" 
d="M55 477h89l23 129h65l-23 -129h158l-9 -53h-158l-49 -278q-2 -8 -3 -18t-1 -18q0 -32 14 -49.5t51 -17.5q26 0 50.5 6.5t44.5 14.5l6 -49q-20 -11 -50.5 -18t-59.5 -7q-62 0 -91.5 31.5t-29.5 86.5q0 11 1 20.5t3 17.5l49 278h-90z" />
    <glyph glyph-name="u" unicode="u" horiz-adv-x="523" 
d="M482 477l-84 -477h-63l28 164q-12 -27 -30.5 -58t-42 -56.5t-52 -42.5t-60.5 -17t-54.5 12t-37 33t-21 50t-6.5 62q0 17 2 37t5 37l45 256h65l-46 -262q-4 -20 -5.5 -38t-1.5 -34q0 -100 68 -100q27 0 54 21t51.5 54.5t46 74.5t38.5 82l36 202h65z" />
    <glyph glyph-name="v" unicode="v" horiz-adv-x="407" 
d="M146 0q-18 135 -44 251.5t-64 225.5h65q32 -98 53.5 -203t37.5 -214q26 44 51.5 93t46.5 102t35.5 109t20.5 113h64q-6 -64 -23.5 -124.5t-43 -119t-58.5 -116.5t-70 -117h-71z" />
    <glyph glyph-name="w" unicode="w" horiz-adv-x="695" 
d="M465 0l-90 423q-16 -52 -34.5 -101t-40.5 -100t-48 -105t-58 -117h-65q-13 137 -32 252t-48 225h61q24 -97 40 -203.5t24 -203.5q23 46 43.5 91t40.5 93.5t40 103t41 119.5h77l90 -407q45 92 76 190.5t41 216.5h62q-6 -65 -19 -124.5t-33 -117.5t-46.5 -116t-58.5 -119
h-63z" />
    <glyph glyph-name="x" unicode="x" horiz-adv-x="435" 
d="M238 226q18 -32 36 -61t38 -56t42 -54t48 -55h-75q-34 38 -66.5 84t-58.5 93l-138 -177h-74l182 231q-33 57 -59 119.5t-46 126.5h66q15 -51 35 -104t43 -93l145 197h73z" />
    <glyph glyph-name="y" unicode="y" horiz-adv-x="424" 
d="M255 23q-50 -72 -118.5 -133t-150.5 -106l-29 46q65 39 114.5 78.5t94.5 90.5q-20 128 -51 250t-73 228h65q16 -44 32 -95.5t30 -107t25.5 -112t19.5 -108.5q57 95 95.5 198.5t56.5 224.5h63q-8 -66 -27 -132t-43.5 -125t-51.5 -110t-52 -87z" />
    <glyph glyph-name="z" unicode="z" horiz-adv-x="433" 
d="M28 0l-6 51l315 374h-249l9 52h321l-8 -52l-315 -373h265l-8 -52h-324z" />
    <glyph glyph-name="braceleft" unicode="{" horiz-adv-x="386" 
d="M170 -17q-2 -9 -3 -19t-1 -18q0 -32 16.5 -50.5t61.5 -18.5h22l-9 -53h-24q-65 0 -98.5 32t-33.5 89q0 9 1 19.5t3 18.5l29 164q3 16 3 32q0 31 -15 53.5t-55 22.5h-19l7 50h21q48 0 72 28.5t32 75.5l30 169q7 43 20 73t33.5 49t49.5 27.5t69 8.5h36l-10 -53h-26
q-48 0 -72.5 -24t-34.5 -81l-29 -164q-11 -62 -38.5 -92.5t-80.5 -41.5q42 -13 58 -41t16 -66q0 -16 -3 -31z" />
    <glyph glyph-name="bar" unicode="|" horiz-adv-x="316" 
d="M140 -250v1000h56v-1000h-56z" />
    <glyph glyph-name="braceright" unicode="}" horiz-adv-x="386" 
d="M228 577q2 9 3 19t1 18q0 32 -16.5 50.5t-61.5 18.5h-22l9 53h24q66 0 99 -32t33 -89q0 -9 -1 -19.5t-3 -18.5l-29 -164q-3 -17 -3 -32q0 -31 15 -53.5t55 -22.5h19l-7 -50h-21q-48 0 -72 -28.5t-32 -75.5l-30 -169q-15 -86 -54 -122t-118 -36h-36l10 53h26q48 0 72.5 24
t34.5 81l29 164q11 59 37.5 91.5t81.5 42.5q-39 11 -56.5 40t-17.5 67q0 16 3 31z" />
    <glyph glyph-name="asciitilde" unicode="~" horiz-adv-x="553" 
d="M511 386q-25 -59 -52 -85t-70 -26q-28 0 -54 12.5t-53 26.5l-47 23.5t-44 11.5q-16 0 -26.5 -5.5t-18.5 -15.5t-15 -25.5t-17 -34.5l-48 23q22 62 50.5 88t75.5 26q31 0 55.5 -11.5t54.5 -27.5l45.5 -24.5t43.5 -10.5q25 0 39 18.5t34 60.5z" />
    <glyph glyph-name="uni00A0" unicode="&#xa0;" horiz-adv-x="210" 
 />
    <glyph glyph-name="exclamdown" unicode="&#xa1;" horiz-adv-x="272" 
d="M129 316h37l-38 -301l-35 -201h-68l35 201zM216 444q0 -24 -15 -38.5t-39 -14.5q-20 0 -31.5 12.5t-11.5 30.5q0 21 14 37t40 16q20 0 31.5 -12.5t11.5 -30.5z" />
    <glyph glyph-name="cent" unicode="&#xa2;" horiz-adv-x="456" 
d="M172 -22l22 123q-32 7 -56.5 25t-40.5 42.5t-24 54.5t-8 63q0 53 14 101t41 86t66.5 63t90.5 33l20 119h61l-21 -119q26 -2 53.5 -10t50.5 -21l-16 -51q-27 14 -54.5 22.5t-59.5 8.5q-45 0 -78.5 -20t-56.5 -52t-34.5 -74t-11.5 -85q0 -65 29.5 -102.5t92.5 -37.5
q31 0 58 8t57 23l14 -47q-25 -16 -59.5 -25.5t-68.5 -10.5l-20 -117h-61z" />
    <glyph glyph-name="sterling" unicode="&#xa3;" horiz-adv-x="538" 
d="M77 331h104l25 140q19 106 66 156.5t135 50.5q35 0 66 -7t55 -20l-12 -52q-50 25 -105 25q-30 0 -52.5 -8.5t-39.5 -27t-29 -49t-20 -74.5l-24 -134h173l-7 -53h-177q-31 -152 -136 -233q20 10 42.5 17t57.5 7q21 0 39.5 -4t35.5 -9t34 -9t36 -4q29 0 48.5 7t42.5 20
l18 -46q-20 -15 -48 -24.5t-62 -9.5q-22 0 -41.5 4t-38 9.5t-37.5 9.5t-41 4q-43 0 -74.5 -7.5t-64.5 -21.5l-21 48q61 46 96.5 108t49.5 134h-103z" />
    <glyph glyph-name="currency" unicode="&#xa4;" horiz-adv-x="622" 
d="M537 591l40 -38l-85 -85q25 -26 39 -61t14 -74q0 -40 -14 -75t-39 -62l85 -84l-40 -38l-88 87q-47 -32 -110 -32q-64 0 -111 32l-88 -87l-40 38l84 84q-24 28 -38 62.5t-14 74.5q0 38 14 73t38 62l-84 85l40 38l88 -87q23 15 51 23.5t60 8.5q31 0 59 -8.5t51 -23.5z
M190 333q0 -32 10.5 -60t29.5 -49.5t46.5 -34t62.5 -12.5q34 0 61.5 12.5t46.5 34t29.5 49.5t10.5 60q0 31 -10.5 59.5t-29.5 50t-46.5 34t-61.5 12.5q-35 0 -62.5 -12.5t-46.5 -34t-29.5 -50t-10.5 -59.5z" />
    <glyph glyph-name="yen" unicode="&#xa5;" horiz-adv-x="517" 
d="M361 378h109l-8 -48h-130l-42 -69l-10 -55h160l-9 -47h-160l-27 -159h-65l27 159h-157l9 47h157l10 58l-17 66h-129l9 48h107l-77 288h67l83 -340l198 340h72z" />
    <glyph glyph-name="brokenbar" unicode="&#xa6;" horiz-adv-x="316" 
d="M196 369h-56v381h56v-381zM140 -250v381h56v-381h-56z" />
    <glyph glyph-name="section" unicode="&#xa7;" horiz-adv-x="606" 
d="M419 716q29 0 59 -4t53 -12l-8 -44q-23 8 -45.5 11t-45.5 3q-28 0 -52 -9t-42 -26t-28 -43t-10 -59q0 -23 7 -42.5t18.5 -38t27 -36.5t32.5 -37q24 -28 47 -55.5t41 -57t29 -62.5t11 -71q0 -62 -27 -113.5t-71.5 -88.5t-102.5 -57t-121 -20q-32 0 -65.5 5.5t-60.5 14.5
l10 45q26 -9 53.5 -14t58.5 -5q61 0 95 32t34 92q0 23 -8.5 46.5t-23 47.5t-33 48.5t-39.5 49.5q-49 60 -79 113.5t-30 111.5q0 60 23 110.5t64.5 87t99.5 57t129 20.5zM316 661q-35 -14 -64 -32.5t-50 -44.5t-32.5 -60t-11.5 -78q0 -51 24.5 -95t63.5 -91q21 -25 43 -52
t39.5 -56t29 -60t11.5 -63q0 -28 -10.5 -57.5t-35.5 -52.5q60 32 97.5 85t37.5 122q0 61 -30.5 110.5t-79.5 102.5q-23 25 -41.5 47.5t-32 44.5t-20.5 45.5t-7 49.5q0 42 18 77.5t51 57.5z" />
    <glyph glyph-name="dieresis" unicode="&#xa8;" horiz-adv-x="506" 
d="M184 620q0 23 14 36.5t37 13.5q19 0 30 -11t11 -28q0 -22 -14 -36.5t-38 -14.5q-19 0 -29.5 11t-10.5 29zM361 620q0 23 14 36.5t37 13.5q19 0 30 -11t11 -28q0 -22 -14 -36.5t-38 -14.5q-19 0 -29.5 11t-10.5 29z" />
    <glyph glyph-name="copyright" unicode="&#xa9;" horiz-adv-x="819" 
d="M774 333q0 -71 -25 -133.5t-70.5 -109.5t-109 -74.5t-141.5 -27.5t-141.5 27.5t-109 74.5t-70.5 109.5t-25 133.5t25 134t70.5 110t109 74t141.5 27t141.5 -27t109 -74t70.5 -110t25 -134zM117 333q0 -65 22 -122t63 -100t98 -68t128 -25q70 0 127.5 25t98.5 68t63 100
t22 122q0 64 -22 121.5t-63 100.5t-98.5 68t-127.5 25q-71 0 -128 -25t-98 -68t-63 -100.5t-22 -121.5zM450 529q23 0 51 -4.5t48 -13.5l-8 -43q-41 15 -87 15q-71 0 -107 -39.5t-36 -110.5t36 -110.5t107 -39.5q46 0 87 15l8 -43q-20 -9 -48 -13.5t-51 -4.5
q-47 0 -82.5 14.5t-60.5 41t-37.5 62.5t-12.5 78t12.5 78t37.5 62.5t60.5 41t82.5 14.5z" />
    <glyph glyph-name="ordfeminine" unicode="&#xaa;" horiz-adv-x="443" 
d="M78 251h298l-8 -46h-298zM364 331h-53l23 129q-10 -22 -24.5 -46t-33 -44.5t-40.5 -33.5t-46 -13q-23 0 -40 9.5t-28 26t-16.5 38t-5.5 45.5q0 44 12.5 86t38 75t64 53t89.5 20q32 0 62.5 -6t54.5 -15zM200 368q21 0 42 19t40.5 47.5t36 61.5t28.5 62l11 64
q-13 5 -27 6.5t-28 1.5q-36 0 -63.5 -16t-46 -42.5t-27.5 -59.5t-9 -67q0 -30 8.5 -53.5t34.5 -23.5z" />
    <glyph glyph-name="guillemotleft" unicode="&#xab;" horiz-adv-x="551" 
d="M226 66l-48 -31l-129 207l198 204l40 -39l-169 -171zM442 66l-48 -31l-129 207l198 204l40 -39l-169 -171z" />
    <glyph glyph-name="logicalnot" unicode="&#xac;" horiz-adv-x="603" 
d="M472 89v209h-392v51h451v-260h-59z" />
    <glyph glyph-name="registered" unicode="&#xae;" horiz-adv-x="556" 
d="M95 462q0 44 15.5 83.5t44 69t69 46.5t89.5 17t89.5 -17t69 -46.5t44 -69t15.5 -83.5t-15.5 -83t-44 -68.5t-69 -47t-89.5 -17.5t-89.5 17.5t-69 47t-44 68.5t-15.5 83zM502 462q0 39 -13.5 73.5t-38.5 61t-59.5 41.5t-77.5 15t-78 -15t-59.5 -41.5t-38 -61t-13.5 -73.5
t13.5 -74t38 -61t59.5 -41t78 -15t77.5 15t59.5 41t38.5 61t13.5 74zM395 516q0 -25 -14.5 -40.5t-35.5 -22.5l75 -94h-48l-66 86h-20v-86h-38v219h70q32 0 54.5 -16.5t22.5 -45.5zM357 514q0 17 -13 25t-31 8h-27v-71h14q26 0 41.5 9t15.5 29z" />
    <glyph glyph-name="macron" unicode="&#xaf;" horiz-adv-x="493" 
d="M189 651h256l-9 -53h-256z" />
    <glyph glyph-name="degree" unicode="&#xb0;" horiz-adv-x="395" 
d="M115 557q0 24 8.5 46t24.5 38.5t39 26.5t53 10t53 -10t39 -26.5t24.5 -38.5t8.5 -46t-8.5 -46.5t-24.5 -39t-39 -26.5t-53 -10t-53 10t-39 26.5t-24.5 39t-8.5 46.5zM317 557q0 30 -18.5 55.5t-58.5 25.5q-20 0 -34.5 -7t-24 -18.5t-14 -26t-4.5 -29.5t4.5 -29.5
t14 -26.5t24 -19t34.5 -7t34.5 7t24 19t14 26.5t4.5 29.5z" />
    <glyph glyph-name="plusminus" unicode="&#xb1;" horiz-adv-x="611" 
d="M345 322v-186h-59v186h-196v50h196v185h59v-185h196v-50h-196zM90 51h451v-51h-451v51z" />
    <glyph glyph-name="twosuperior" unicode="&#xb2;" horiz-adv-x="348" 
d="M138 793q20 12 49.5 20t63.5 8q55 0 90.5 -28.5t35.5 -81.5q0 -36 -15.5 -65t-36.5 -51t-43.5 -38.5t-36.5 -26.5q-20 -14 -44.5 -32t-45.5 -32h194l-7 -46h-260l-8 39q15 12 32.5 25t35 26.5t33 25t26.5 20.5q18 14 39 30t38.5 35t29.5 40.5t12 46.5q0 32 -21.5 49
t-53.5 17q-26 0 -50.5 -6.5t-44.5 -17.5z" />
    <glyph glyph-name="threesuperior" unicode="&#xb3;" horiz-adv-x="346" 
d="M351 519q0 -25 -10.5 -45t-29.5 -34.5t-44 -22t-55 -7.5q-35 0 -66 9.5t-57 23.5l15 43q22 -13 49.5 -22t56.5 -9q38 0 61 17t23 48q0 37 -32.5 56.5t-83.5 19.5h-19l5 46h25q25 0 49.5 5t43 15.5t30 26t11.5 36.5q0 25 -18 37.5t-49 12.5q-23 0 -48.5 -5.5t-48.5 -17.5
l-12 42q24 14 54 20.5t60 6.5q51 0 85 -23.5t34 -66.5q0 -44 -31.5 -73t-81.5 -41q35 -10 59.5 -34t24.5 -64z" />
    <glyph glyph-name="acute" unicode="&#xb4;" horiz-adv-x="388" 
d="M172 554l98 156h79l-119 -156h-58z" />
    <glyph glyph-name="mu" unicode="&#xb5;" horiz-adv-x="535" 
d="M494 477l-84 -477h-63l28 160q-14 -28 -32.5 -58t-42 -55t-51.5 -41t-61 -16q-22 0 -39.5 8t-30 21.5t-21 31t-12.5 35.5q8 -47 5.5 -98.5t-10.5 -100.5l-16 -93h-65l120 683h65l-43 -245q-3 -19 -5 -38t-2 -36q0 -24 3 -44.5t10.5 -36.5t21 -25t35.5 -9q28 0 54.5 20
t50.5 52.5t45 72t37 78.5l38 211h65z" />
    <glyph glyph-name="paragraph" unicode="&#xb6;" horiz-adv-x="558" 
d="M480 618h-124l-75 -423q-43 1 -79 15.5t-62 40t-40.5 61t-14.5 79.5q0 65 19.5 116t55.5 86.5t86 54t111 18.5h188l-73 -418q-10 -59 -26 -112.5t-41.5 -103t-61 -95t-84.5 -87.5l-35 37q44 40 75.5 80.5t54 84t37 92t24.5 105.5z" />
    <glyph glyph-name="periodcentered" unicode="&#xb7;" horiz-adv-x="242" 
d="M73 246q0 24 15 38.5t39 14.5q20 0 31.5 -12.5t11.5 -30.5q0 -21 -14 -37t-40 -16q-20 0 -31.5 12.5t-11.5 30.5z" />
    <glyph glyph-name="cedilla" unicode="&#xb8;" horiz-adv-x="387" 
d="M203 -120q0 -23 -11 -39t-31 -27.5t-47 -18.5t-59 -11l-8 44q15 3 32 6t31 8.5t23.5 14t9.5 21.5q0 11 -8 18t-20 11.5t-26.5 7t-27.5 4.5l34 81h49l-21 -53q13 -2 27 -6.5t26 -12t19.5 -19t7.5 -29.5z" />
    <glyph glyph-name="onesuperior" unicode="&#xb9;" horiz-adv-x="258" 
d="M160 420l59 334l-98 -32l-12 46l135 43h42l-69 -391h-57z" />
    <glyph glyph-name="ordmasculine" unicode="&#xba;" horiz-adv-x="440" 
d="M78 251h294l-8 -46h-294zM288 676q66 0 102.5 -38.5t36.5 -98.5q0 -39 -12.5 -77.5t-36.5 -69.5t-58.5 -50t-78.5 -19q-34 0 -59.5 11t-43 29.5t-26 44t-8.5 54.5q0 42 12.5 80.5t36 68.5t57.5 47.5t78 17.5zM243 368q29 0 52.5 15t40 39t25.5 53.5t9 59.5q0 42 -22.5 69
t-64.5 27q-30 0 -52.5 -15t-38 -38.5t-23.5 -53.5t-8 -60q0 -41 19 -68.5t63 -27.5z" />
    <glyph glyph-name="guillemotright" unicode="&#xbb;" horiz-adv-x="551" 
d="M322 415l48 31l129 -207l-198 -204l-40 39l169 171zM106 415l48 31l129 -207l-198 -204l-40 39l169 171z" />
    <glyph glyph-name="onequarter" unicode="&#xbc;" horiz-adv-x="736" 
d="M631 108l-19 -108h-55l19 108h-186l-7 37l244 246h54l-42 -240h62l-6 -43h-64zM614 320l-161 -169h131zM141 275l59 334l-98 -32l-12 46l135 43h42l-69 -391h-57zM576 678l39 -27l-468 -663l-38 28z" />
    <glyph glyph-name="onehalf" unicode="&#xbd;" horiz-adv-x="788" 
d="M141 275l59 334l-98 -32l-12 46l135 43h42l-69 -391h-57zM576 678l39 -27l-468 -663l-38 28zM504 373q20 12 49.5 20t63.5 8q55 0 90.5 -28.5t35.5 -81.5q0 -36 -15.5 -65t-36.5 -51t-43.5 -38.5t-36.5 -26.5q-20 -14 -44.5 -32t-45.5 -32h194l-7 -46h-260l-8 39
q15 12 32.5 25t35 26.5t33 25t26.5 20.5q18 14 39 30t38.5 35t29.5 40.5t12 46.5q0 32 -21.5 49t-53.5 17q-26 0 -50.5 -6.5t-44.5 -17.5z" />
    <glyph glyph-name="threequarters" unicode="&#xbe;" horiz-adv-x="800" 
d="M695 108l-19 -108h-55l19 108h-186l-7 37l244 246h54l-42 -240h62l-6 -43h-64zM678 320l-161 -169h131zM640 678l39 -27l-468 -663l-38 28zM317 374q0 -25 -10.5 -45t-29.5 -34.5t-44 -22t-55 -7.5q-35 0 -66 9.5t-57 23.5l15 43q22 -13 49.5 -22t56.5 -9q38 0 61 17
t23 48q0 37 -32.5 56.5t-83.5 19.5h-19l5 46h25q25 0 49.5 5t43 15.5t30 26t11.5 36.5q0 25 -18 37.5t-49 12.5q-23 0 -48.5 -5.5t-48.5 -17.5l-12 42q24 14 54 20.5t60 6.5q51 0 85 -23.5t34 -66.5q0 -44 -31.5 -73t-81.5 -41q35 -10 59.5 -34t24.5 -64z" />
    <glyph glyph-name="questiondown" unicode="&#xbf;" horiz-adv-x="410" 
d="M5 -51q0 55 25.5 101.5t66.5 87t92.5 76t103.5 70.5l32 -47q-48 -32 -94 -64.5t-81.5 -67t-57 -72.5t-21.5 -80q0 -46 28 -71.5t71 -25.5q60 0 125 37l18 -51q-35 -20 -68.5 -30t-78.5 -10q-34 0 -63.5 9.5t-51 28.5t-34 46t-12.5 63zM350 444q0 -24 -15 -38.5t-39 -14.5
q-20 0 -31.5 12.5t-11.5 30.5q0 21 14 37t40 16q20 0 31.5 -12.5t11.5 -30.5z" />
    <glyph glyph-name="Agrave" unicode="&#xc0;" horiz-adv-x="639" 
d="M466 170h-314l-93 -170h-72l374 666h63l142 -666h-67zM181 225h275l-72 374zM358 730l-88 111h76l66 -111h-54z" />
    <glyph glyph-name="Aacute" unicode="&#xc1;" horiz-adv-x="639" 
d="M466 170h-314l-93 -170h-72l374 666h63l142 -666h-67zM181 225h275l-72 374zM369 730l99 111h85l-126 -111h-58z" />
    <glyph glyph-name="Acircumflex" unicode="&#xc2;" horiz-adv-x="639" 
d="M466 170h-314l-93 -170h-72l374 666h63l142 -666h-67zM181 225h275l-72 374zM525 730h-62l-54 79l-78 -79h-67l113 111h69z" />
    <glyph glyph-name="Atilde" unicode="&#xc3;" horiz-adv-x="639" 
d="M466 170h-314l-93 -170h-72l374 666h63l142 -666h-67zM181 225h275l-72 374zM479 735q-20 0 -38.5 8t-39.5 18t-35 16.5t-28 6.5q-20 0 -31.5 -13t-27.5 -41l-40 22q12 24 22 40t21.5 26t25 14t31.5 4t36 -5t44 -19q20 -11 35 -17.5t28 -6.5q19 0 29 12.5t23 35.5l40 -21
q-18 -41 -39 -60.5t-56 -19.5z" />
    <glyph glyph-name="Adieresis" unicode="&#xc4;" horiz-adv-x="639" 
d="M466 170h-314l-93 -170h-72l374 666h63l142 -666h-67zM181 225h275l-72 374zM274 783q0 21 13.5 34.5t36.5 13.5q17 0 28 -10t11 -27q0 -23 -14.5 -36.5t-36.5 -13.5q-18 0 -28 11t-10 28zM456 783q0 21 13.5 34.5t36.5 13.5q17 0 28 -10t11 -27q0 -23 -14.5 -36.5
t-36.5 -13.5q-18 0 -28 11t-10 28z" />
    <glyph glyph-name="Aring" unicode="&#xc5;" horiz-adv-x="639" 
d="M488 729q0 -29 -16.5 -51.5t-43.5 -33.5l138 -644h-67l-33 170h-314l-93 -170h-72l363 647q-32 18 -32 58q0 42 26.5 67t68.5 25q35 0 55 -19t20 -49zM181 225h275l-72 374zM410 764q-25 0 -39.5 -16t-14.5 -41q0 -16 9.5 -26.5t29.5 -10.5q23 0 38.5 17t15.5 41
q0 17 -10 26.5t-29 9.5z" />
    <glyph glyph-name="AE" unicode="&#xc6;" horiz-adv-x="868" 
d="M878 612h-330l-12 -244h271l-10 -54h-263l-13 -260h261l-9 -54h-315l8 171h-295l-126 -171h-77l499 666h420zM210 224h259l19 381z" />
    <glyph glyph-name="Ccedilla" unicode="&#xc7;" horiz-adv-x="600" 
d="M395 -120q0 -23 -11 -39t-31 -27.5t-47 -18.5t-59 -11l-8 44q15 3 32 6t31 8.5t23.5 14t9.5 21.5q0 11 -8.5 18t-21 11t-27 6.5t-27.5 5.5l29 77q-52 11 -93.5 36.5t-70.5 63t-44.5 85.5t-15.5 104q0 78 23 149.5t68.5 125.5t114 86t158.5 32q49 0 98.5 -9.5t87.5 -27.5
l-14 -54q-38 17 -82 26.5t-89 9.5q-72 0 -127.5 -25.5t-94 -70.5t-58 -106.5t-19.5 -133.5q0 -54 15.5 -99t46 -77.5t76 -50t106.5 -17.5q35 0 71.5 5.5t71.5 17.5l8 -52q-34 -13 -76 -19.5t-84 -6.5h-11t-16 1l-15 -42q13 -2 27 -6.5t26 -12t19.5 -19t7.5 -29.5z" />
    <glyph glyph-name="Egrave" unicode="&#xc8;" horiz-adv-x="491" 
d="M157 666h351l-9 -55h-286l-43 -243h274l-10 -55h-274l-45 -258h289l-10 -55h-354zM323 730l-88 111h76l66 -111h-54z" />
    <glyph glyph-name="Eacute" unicode="&#xc9;" horiz-adv-x="491" 
d="M157 666h351l-9 -55h-286l-43 -243h274l-10 -55h-274l-45 -258h289l-10 -55h-354zM272 730l99 111h85l-126 -111h-58z" />
    <glyph glyph-name="Ecircumflex" unicode="&#xca;" horiz-adv-x="491" 
d="M157 666h351l-9 -55h-286l-43 -243h274l-10 -55h-274l-45 -258h289l-10 -55h-354zM473 730h-62l-54 79l-78 -79h-67l113 111h69z" />
    <glyph glyph-name="Edieresis" unicode="&#xcb;" horiz-adv-x="491" 
d="M157 666h351l-9 -55h-286l-43 -243h274l-10 -55h-274l-45 -258h289l-10 -55h-354zM221 783q0 21 13.5 34.5t36.5 13.5q17 0 28 -10t11 -27q0 -23 -14.5 -36.5t-36.5 -13.5q-18 0 -28 11t-10 28zM403 783q0 21 13.5 34.5t36.5 13.5q17 0 28 -10t11 -27q0 -23 -14.5 -36.5
t-36.5 -13.5q-18 0 -28 11t-10 28z" />
    <glyph glyph-name="Igrave" unicode="&#xcc;" horiz-adv-x="246" 
d="M111 0h-66l117 666h66zM170 730l-88 111h76l66 -111h-54z" />
    <glyph glyph-name="Iacute" unicode="&#xcd;" horiz-adv-x="246" 
d="M111 0h-66l117 666h66zM173 730l99 111h85l-126 -111h-58z" />
    <glyph glyph-name="Icircumflex" unicode="&#xce;" horiz-adv-x="246" 
d="M111 0h-66l117 666h66zM334 730h-62l-54 79l-78 -79h-67l113 111h69z" />
    <glyph glyph-name="Idieresis" unicode="&#xcf;" horiz-adv-x="246" 
d="M111 0h-66l117 666h66zM75 783q0 21 13.5 34.5t36.5 13.5q17 0 28 -10t11 -27q0 -23 -14.5 -36.5t-36.5 -13.5q-18 0 -28 11t-10 28zM257 783q0 21 13.5 34.5t36.5 13.5q17 0 28 -10t11 -27q0 -23 -14.5 -36.5t-36.5 -13.5q-18 0 -28 11t-10 28z" />
    <glyph glyph-name="Eth" unicode="&#xd0;" horiz-adv-x="710" 
d="M74 359h75l54 307h160q71 0 130 -19.5t101 -56.5t65 -89.5t23 -119.5q0 -83 -29 -153t-83 -120.5t-131.5 -79t-174.5 -28.5h-178l54 307h-75zM268 54q87 1 152 26t108.5 68.5t65.5 102.5t22 128q0 56 -19 99.5t-53.5 73t-82 45t-105.5 15.5h-97l-45 -253h190l-9 -52h-190
l-44 -253h107z" />
    <glyph glyph-name="Ntilde" unicode="&#xd1;" horiz-adv-x="687" 
d="M493 0l-290 567l-100 -567h-63l117 666h63l291 -567l100 567h63l-117 -666h-64zM495 735q-20 0 -38.5 8t-39.5 18t-35 16.5t-28 6.5q-20 0 -31.5 -13t-27.5 -41l-40 22q12 24 22 40t21.5 26t25 14t31.5 4t36 -5t44 -19q20 -11 35 -17.5t28 -6.5q19 0 29 12.5t23 35.5
l40 -21q-18 -41 -39 -60.5t-56 -19.5z" />
    <glyph glyph-name="Ograve" unicode="&#xd2;" horiz-adv-x="724" 
d="M692 393q0 -78 -25 -151t-71.5 -129.5t-112.5 -90.5t-148 -34q-67 0 -118.5 23t-87 62t-53.5 90.5t-18 107.5q0 84 24.5 158t71 129.5t113 87.5t149.5 32q64 0 115.5 -21.5t87 -60t54.5 -90.5t19 -113zM340 42q64 0 117 29t90.5 77t58 111t20.5 131q0 51 -15.5 94
t-43.5 74t-67.5 48.5t-88.5 17.5q-70 0 -123.5 -30t-90 -79.5t-55 -112.5t-18.5 -128q0 -54 15 -97t43 -73t68 -46t90 -16zM388 730l-88 111h76l66 -111h-54z" />
    <glyph glyph-name="Oacute" unicode="&#xd3;" horiz-adv-x="724" 
d="M692 393q0 -78 -25 -151t-71.5 -129.5t-112.5 -90.5t-148 -34q-67 0 -118.5 23t-87 62t-53.5 90.5t-18 107.5q0 84 24.5 158t71 129.5t113 87.5t149.5 32q64 0 115.5 -21.5t87 -60t54.5 -90.5t19 -113zM340 42q64 0 117 29t90.5 77t58 111t20.5 131q0 51 -15.5 94
t-43.5 74t-67.5 48.5t-88.5 17.5q-70 0 -123.5 -30t-90 -79.5t-55 -112.5t-18.5 -128q0 -54 15 -97t43 -73t68 -46t90 -16zM392 730l99 111h85l-126 -111h-58z" />
    <glyph glyph-name="Ocircumflex" unicode="&#xd4;" horiz-adv-x="724" 
d="M692 393q0 -78 -25 -151t-71.5 -129.5t-112.5 -90.5t-148 -34q-67 0 -118.5 23t-87 62t-53.5 90.5t-18 107.5q0 84 24.5 158t71 129.5t113 87.5t149.5 32q64 0 115.5 -21.5t87 -60t54.5 -90.5t19 -113zM340 42q64 0 117 29t90.5 77t58 111t20.5 131q0 51 -15.5 94
t-43.5 74t-67.5 48.5t-88.5 17.5q-70 0 -123.5 -30t-90 -79.5t-55 -112.5t-18.5 -128q0 -54 15 -97t43 -73t68 -46t90 -16zM570 730h-62l-54 79l-78 -79h-67l113 111h69z" />
    <glyph glyph-name="Otilde" unicode="&#xd5;" horiz-adv-x="724" 
d="M692 393q0 -78 -25 -151t-71.5 -129.5t-112.5 -90.5t-148 -34q-67 0 -118.5 23t-87 62t-53.5 90.5t-18 107.5q0 84 24.5 158t71 129.5t113 87.5t149.5 32q64 0 115.5 -21.5t87 -60t54.5 -90.5t19 -113zM340 42q64 0 117 29t90.5 77t58 111t20.5 131q0 51 -15.5 94
t-43.5 74t-67.5 48.5t-88.5 17.5q-70 0 -123.5 -30t-90 -79.5t-55 -112.5t-18.5 -128q0 -54 15 -97t43 -73t68 -46t90 -16zM510 735q-20 0 -38.5 8t-39.5 18t-35 16.5t-28 6.5q-20 0 -31.5 -13t-27.5 -41l-40 22q12 24 22 40t21.5 26t25 14t31.5 4t36 -5t44 -19
q20 -11 35 -17.5t28 -6.5q19 0 29 12.5t23 35.5l40 -21q-18 -41 -39 -60.5t-56 -19.5z" />
    <glyph glyph-name="Odieresis" unicode="&#xd6;" horiz-adv-x="724" 
d="M692 393q0 -78 -25 -151t-71.5 -129.5t-112.5 -90.5t-148 -34q-67 0 -118.5 23t-87 62t-53.5 90.5t-18 107.5q0 84 24.5 158t71 129.5t113 87.5t149.5 32q64 0 115.5 -21.5t87 -60t54.5 -90.5t19 -113zM340 42q64 0 117 29t90.5 77t58 111t20.5 131q0 51 -15.5 94
t-43.5 74t-67.5 48.5t-88.5 17.5q-70 0 -123.5 -30t-90 -79.5t-55 -112.5t-18.5 -128q0 -54 15 -97t43 -73t68 -46t90 -16zM305 783q0 21 13.5 34.5t36.5 13.5q17 0 28 -10t11 -27q0 -23 -14.5 -36.5t-36.5 -13.5q-18 0 -28 11t-10 28zM487 783q0 21 13.5 34.5t36.5 13.5
q17 0 28 -10t11 -27q0 -23 -14.5 -36.5t-36.5 -13.5q-18 0 -28 11t-10 28z" />
    <glyph glyph-name="multiply" unicode="&#xd7;" horiz-adv-x="591" 
d="M477 523l39 -38l-163 -162l163 -162l-39 -39l-162 163l-162 -163l-38 39l162 162l-162 162l38 38l162 -163z" />
    <glyph glyph-name="Oslash" unicode="&#xd8;" horiz-adv-x="729" 
d="M144 60q-42 40 -62.5 94.5t-20.5 116.5q0 84 24.5 158t71 129.5t113 87.5t149.5 32q51 0 93.5 -14t76.5 -39l82 105l36 -28l-84 -107q35 -38 53.5 -90t18.5 -112q0 -78 -25 -151t-71.5 -129.5t-112.5 -90.5t-148 -34q-48 0 -87 11.5t-71 32.5l-75 -96l-36 28zM127 274
q0 -105 54 -167l370 470q-56 47 -137 47q-70 0 -123.5 -30t-90 -79.5t-55 -112.5t-18.5 -128zM343 42q64 0 117 29t90.5 77t58 111t20.5 131q0 45 -12 84t-35 69l-366 -466q52 -35 127 -35z" />
    <glyph glyph-name="Ugrave" unicode="&#xd9;" horiz-adv-x="664" 
d="M588 666h66l-76 -435q-9 -49 -29 -93t-54 -77.5t-81 -53t-110 -19.5q-53 0 -95 16t-71 44.5t-45 67.5t-16 85q0 26 4 49l74 416h66l-74 -420q-2 -12 -3 -23.5t-1 -23.5q0 -33 9.5 -62t29.5 -50t51.5 -33t75.5 -12q85 0 136 48.5t66 135.5zM399 730l-88 111h76l66 -111
h-54z" />
    <glyph glyph-name="Uacute" unicode="&#xda;" horiz-adv-x="664" 
d="M588 666h66l-76 -435q-9 -49 -29 -93t-54 -77.5t-81 -53t-110 -19.5q-53 0 -95 16t-71 44.5t-45 67.5t-16 85q0 26 4 49l74 416h66l-74 -420q-2 -12 -3 -23.5t-1 -23.5q0 -33 9.5 -62t29.5 -50t51.5 -33t75.5 -12q85 0 136 48.5t66 135.5zM344 730l99 111h85l-126 -111
h-58z" />
    <glyph glyph-name="Ucircumflex" unicode="&#xdb;" horiz-adv-x="664" 
d="M588 666h66l-76 -435q-9 -49 -29 -93t-54 -77.5t-81 -53t-110 -19.5q-53 0 -95 16t-71 44.5t-45 67.5t-16 85q0 26 4 49l74 416h66l-74 -420q-2 -12 -3 -23.5t-1 -23.5q0 -33 9.5 -62t29.5 -50t51.5 -33t75.5 -12q85 0 136 48.5t66 135.5zM543 730h-62l-54 79l-78 -79
h-67l113 111h69z" />
    <glyph glyph-name="Udieresis" unicode="&#xdc;" horiz-adv-x="664" 
d="M588 666h66l-76 -435q-9 -49 -29 -93t-54 -77.5t-81 -53t-110 -19.5q-53 0 -95 16t-71 44.5t-45 67.5t-16 85q0 26 4 49l74 416h66l-74 -420q-2 -12 -3 -23.5t-1 -23.5q0 -33 9.5 -62t29.5 -50t51.5 -33t75.5 -12q85 0 136 48.5t66 135.5zM289 783q0 21 13.5 34.5
t36.5 13.5q17 0 28 -10t11 -27q0 -23 -14.5 -36.5t-36.5 -13.5q-18 0 -28 11t-10 28zM471 783q0 21 13.5 34.5t36.5 13.5q17 0 28 -10t11 -27q0 -23 -14.5 -36.5t-36.5 -13.5q-18 0 -28 11t-10 28z" />
    <glyph glyph-name="Yacute" unicode="&#xdd;" horiz-adv-x="511" 
d="M292 261l-46 -261h-66l47 270l-147 396h68l122 -340l232 340h77zM276 730l99 111h85l-126 -111h-58z" />
    <glyph glyph-name="Thorn" unicode="&#xde;" horiz-adv-x="501" 
d="M486 359q0 -60 -26.5 -102.5t-69.5 -69.5t-99 -39t-114 -12h-47l-24 -136h-66l117 666h66l-24 -136h90q43 0 79 -12t62.5 -34.5t41 -54t14.5 -70.5zM183 190q47 0 90 9t75.5 28.5t52 51t19.5 77.5q0 57 -39 88.5t-97 31.5h-94l-51 -286h44z" />
    <glyph glyph-name="germandbls" unicode="&#xdf;" horiz-adv-x="561" 
d="M123 482q12 66 35 111.5t54.5 73t70.5 39.5t83 12q32 0 59.5 -8.5t47.5 -24.5t31.5 -38.5t11.5 -50.5q0 -26 -8.5 -47t-21 -38t-26.5 -31l-25 -25l-24.5 -24.5t-23.5 -26t-18 -28.5t-7 -33q0 -26 16.5 -44.5t39.5 -38.5q12 -11 27.5 -24.5t29 -31t22.5 -38t9 -44.5
q0 -33 -13 -57.5t-35.5 -41t-52 -25t-63.5 -8.5q-32 0 -67.5 8t-62.5 21l14 50q26 -12 56.5 -19t61.5 -7q41 0 69.5 18t28.5 59q0 17 -6.5 30.5t-16 25.5t-21.5 22t-24 21q-15 13 -28.5 26.5t-24 28t-16.5 31.5t-6 37q0 24 8.5 44.5t22 38.5t29 33.5l30.5 30.5q9 9 20 20.5
t20.5 25t16 28t6.5 29.5q0 35 -27.5 53.5t-67.5 18.5q-63 0 -107.5 -44t-61.5 -138l-74 -419q-11 -61 -26 -112.5t-40 -88.5t-63 -57.5t-93 -20.5q-21 0 -44.5 4t-40.5 10l11 51q15 -5 32.5 -8.5t37.5 -3.5q42 0 69.5 17.5t45 48t28 71.5t18.5 89z" />
    <glyph glyph-name="agrave" unicode="&#xe0;" horiz-adv-x="508" 
d="M384 0h-62l32 186q-14 -30 -34 -64.5t-44.5 -64t-54.5 -48.5t-63 -19q-32 0 -54 14t-36.5 37t-21 53t-6.5 62q0 63 17.5 122.5t52 106t85.5 74.5t119 28q40 0 80 -8t71 -20zM165 42q30 0 60.5 29t58.5 72.5t52 95t42 96.5l16 90q-34 10 -80 10q-50 0 -89 -22.5t-65.5 -61
t-40.5 -88.5t-14 -105q0 -23 3 -44t9.5 -37t18 -25.5t29.5 -9.5zM298 554l-63 156h70l46 -156h-53z" />
    <glyph glyph-name="aacute" unicode="&#xe1;" horiz-adv-x="508" 
d="M384 0h-62l32 186q-14 -30 -34 -64.5t-44.5 -64t-54.5 -48.5t-63 -19q-32 0 -54 14t-36.5 37t-21 53t-6.5 62q0 63 17.5 122.5t52 106t85.5 74.5t119 28q40 0 80 -8t71 -20zM165 42q30 0 60.5 29t58.5 72.5t52 95t42 96.5l16 90q-34 10 -80 10q-50 0 -89 -22.5t-65.5 -61
t-40.5 -88.5t-14 -105q0 -23 3 -44t9.5 -37t18 -25.5t29.5 -9.5zM277 554l98 156h79l-119 -156h-58z" />
    <glyph glyph-name="acircumflex" unicode="&#xe2;" horiz-adv-x="508" 
d="M384 0h-62l32 186q-14 -30 -34 -64.5t-44.5 -64t-54.5 -48.5t-63 -19q-32 0 -54 14t-36.5 37t-21 53t-6.5 62q0 63 17.5 122.5t52 106t85.5 74.5t119 28q40 0 80 -8t71 -20zM165 42q30 0 60.5 29t58.5 72.5t52 95t42 96.5l16 90q-34 10 -80 10q-50 0 -89 -22.5t-65.5 -61
t-40.5 -88.5t-14 -105q0 -23 3 -44t9.5 -37t18 -25.5t29.5 -9.5zM465 554h-62l-54 117l-94 -117h-66l130 156h66z" />
    <glyph glyph-name="atilde" unicode="&#xe3;" horiz-adv-x="508" 
d="M384 0h-62l32 186q-14 -30 -34 -64.5t-44.5 -64t-54.5 -48.5t-63 -19q-32 0 -54 14t-36.5 37t-21 53t-6.5 62q0 63 17.5 122.5t52 106t85.5 74.5t119 28q40 0 80 -8t71 -20zM165 42q30 0 60.5 29t58.5 72.5t52 95t42 96.5l16 90q-34 10 -80 10q-50 0 -89 -22.5t-65.5 -61
t-40.5 -88.5t-14 -105q0 -23 3 -44t9.5 -37t18 -25.5t29.5 -9.5zM409 575q-17 0 -35.5 8.5t-35.5 18.5t-29 16t-24 6q-20 0 -32 -13t-29 -42l-39 23q12 24 22.5 40t22 26t25 14.5t32.5 4.5q20 0 36 -7t35 -18q17 -10 29 -17t24 -7q19 0 29.5 12.5t24.5 37.5l39 -22
q-21 -41 -42 -61t-53 -20z" />
    <glyph glyph-name="adieresis" unicode="&#xe4;" horiz-adv-x="508" 
d="M384 0h-62l32 186q-14 -30 -34 -64.5t-44.5 -64t-54.5 -48.5t-63 -19q-32 0 -54 14t-36.5 37t-21 53t-6.5 62q0 63 17.5 122.5t52 106t85.5 74.5t119 28q40 0 80 -8t71 -20zM165 42q30 0 60.5 29t58.5 72.5t52 95t42 96.5l16 90q-34 10 -80 10q-50 0 -89 -22.5t-65.5 -61
t-40.5 -88.5t-14 -105q0 -23 3 -44t9.5 -37t18 -25.5t29.5 -9.5zM208 620q0 23 14 36.5t37 13.5q19 0 30 -11t11 -28q0 -22 -14 -36.5t-38 -14.5q-19 0 -29.5 11t-10.5 29zM385 620q0 23 14 36.5t37 13.5q19 0 30 -11t11 -28q0 -22 -14 -36.5t-38 -14.5q-19 0 -29.5 11
t-10.5 29z" />
    <glyph glyph-name="aring" unicode="&#xe5;" horiz-adv-x="508" 
d="M384 0h-62l32 186q-14 -30 -34 -64.5t-44.5 -64t-54.5 -48.5t-63 -19q-32 0 -54 14t-36.5 37t-21 53t-6.5 62q0 63 17.5 122.5t52 106t85.5 74.5t119 28q40 0 80 -8t71 -20zM165 42q30 0 60.5 29t58.5 72.5t52 95t42 96.5l16 90q-34 10 -80 10q-50 0 -89 -22.5t-65.5 -61
t-40.5 -88.5t-14 -105q0 -23 3 -44t9.5 -37t18 -25.5t29.5 -9.5zM430 646q0 -19 -7.5 -35.5t-20 -29t-30.5 -20t-39 -7.5q-35 0 -54 19.5t-19 48.5q0 42 26.5 67t68.5 25q35 0 55 -19t20 -49zM352 681q-25 0 -39.5 -16t-14.5 -41q0 -16 9.5 -26.5t29.5 -10.5q23 0 38.5 17
t15.5 41q0 17 -10 26.5t-29 9.5z" />
    <glyph glyph-name="ae" unicode="&#xe6;" horiz-adv-x="715" 
d="M638 30q-29 -18 -68 -29t-77 -11q-54 0 -90 22.5t-56 59.5q-38 -32 -84.5 -57t-107.5 -25q-30 0 -54 10t-40.5 26.5t-25.5 38t-9 45.5q0 40 14 68t38 45.5t55.5 26t66.5 10.5q34 2 67.5 3.5t59.5 2.5q3 14 5.5 30.5t2.5 29.5q0 58 -31 83t-82 25q-34 0 -65 -8t-57 -22
l-13 50q30 17 67.5 25t76.5 8q56 0 97.5 -27t52.5 -81q32 52 80 80t110 28q26 0 49 -7.5t40.5 -21t27.5 -34t10 -45.5q0 -52 -29.5 -83t-75.5 -47.5t-102 -22.5t-108 -7q-4 -19 -4 -40q0 -27 6.5 -52t20.5 -44.5t36.5 -31t54.5 -11.5q35 0 67.5 10.5t58.5 27.5zM327 116
q-6 24 -8 49.5t1 51.5q-18 0 -51 -1t-60 -4q-54 -6 -87 -28t-33 -71q0 -32 20 -52.5t58 -20.5q47 0 85.5 21t74.5 55zM566 437q-33 0 -62 -13.5t-52 -36.5t-39 -54t-22 -66q31 1 73.5 4.5t80.5 14t64.5 31t26.5 56.5q0 27 -18.5 45.5t-51.5 18.5z" />
    <glyph glyph-name="ccedilla" unicode="&#xe7;" horiz-adv-x="421" 
d="M276 -120q0 -23 -11 -39t-31 -27.5t-47 -18.5t-59 -11l-8 44q15 3 32 6t31 8.5t23.5 14t9.5 21.5q0 11 -8.5 18t-21 11.5t-27.5 7l-27 4.5l35 77q-34 8 -58.5 26.5t-40 44t-23 56.5t-7.5 64q0 59 16.5 113t49 95.5t79.5 66.5t108 25q75 0 128 -31l-14 -53
q-28 14 -54.5 22t-59.5 8q-45 0 -80 -19.5t-59 -53t-36.5 -79t-12.5 -96.5q0 -65 29 -103.5t95 -38.5q31 0 59.5 7.5t54.5 20.5l13 -49q-28 -15 -62 -23.5t-72 -8.5h-4l-20 -43q13 -2 27 -6.5t26 -12t19.5 -19t7.5 -29.5z" />
    <glyph glyph-name="egrave" unicode="&#xe8;" horiz-adv-x="440" 
d="M295 487q26 0 49 -7t40 -20.5t27 -33.5t10 -46q0 -33 -15.5 -58.5t-41 -43.5t-58 -30.5t-68 -20t-70 -11.5t-63.5 -5q-3 -21 -3 -40q0 -56 26 -92t87 -36q35 0 68.5 10t64.5 27l13 -49q-32 -19 -70 -30t-80 -11q-44 0 -76 14.5t-53.5 39.5t-32 59t-10.5 73q0 58 17 114
t50 100t80.5 70.5t108.5 26.5zM287 437q-34 0 -63 -15.5t-51.5 -40t-37.5 -56t-21 -63.5q36 1 78.5 7t79 18.5t61.5 34.5t25 55q0 26 -18.5 43t-52.5 17zM254 554l-63 156h70l46 -156h-53z" />
    <glyph glyph-name="eacute" unicode="&#xe9;" horiz-adv-x="440" 
d="M295 487q26 0 49 -7t40 -20.5t27 -33.5t10 -46q0 -33 -15.5 -58.5t-41 -43.5t-58 -30.5t-68 -20t-70 -11.5t-63.5 -5q-3 -21 -3 -40q0 -56 26 -92t87 -36q35 0 68.5 10t64.5 27l13 -49q-32 -19 -70 -30t-80 -11q-44 0 -76 14.5t-53.5 39.5t-32 59t-10.5 73q0 58 17 114
t50 100t80.5 70.5t108.5 26.5zM287 437q-34 0 -63 -15.5t-51.5 -40t-37.5 -56t-21 -63.5q36 1 78.5 7t79 18.5t61.5 34.5t25 55q0 26 -18.5 43t-52.5 17zM259 554l98 156h79l-119 -156h-58z" />
    <glyph glyph-name="ecircumflex" unicode="&#xea;" horiz-adv-x="440" 
d="M295 487q26 0 49 -7t40 -20.5t27 -33.5t10 -46q0 -33 -15.5 -58.5t-41 -43.5t-58 -30.5t-68 -20t-70 -11.5t-63.5 -5q-3 -21 -3 -40q0 -56 26 -92t87 -36q35 0 68.5 10t64.5 27l13 -49q-32 -19 -70 -30t-80 -11q-44 0 -76 14.5t-53.5 39.5t-32 59t-10.5 73q0 58 17 114
t50 100t80.5 70.5t108.5 26.5zM287 437q-34 0 -63 -15.5t-51.5 -40t-37.5 -56t-21 -63.5q36 1 78.5 7t79 18.5t61.5 34.5t25 55q0 26 -18.5 43t-52.5 17zM431 554h-62l-54 117l-94 -117h-66l130 156h66z" />
    <glyph glyph-name="edieresis" unicode="&#xeb;" horiz-adv-x="440" 
d="M295 487q26 0 49 -7t40 -20.5t27 -33.5t10 -46q0 -33 -15.5 -58.5t-41 -43.5t-58 -30.5t-68 -20t-70 -11.5t-63.5 -5q-3 -21 -3 -40q0 -56 26 -92t87 -36q35 0 68.5 10t64.5 27l13 -49q-32 -19 -70 -30t-80 -11q-44 0 -76 14.5t-53.5 39.5t-32 59t-10.5 73q0 58 17 114
t50 100t80.5 70.5t108.5 26.5zM287 437q-34 0 -63 -15.5t-51.5 -40t-37.5 -56t-21 -63.5q36 1 78.5 7t79 18.5t61.5 34.5t25 55q0 26 -18.5 43t-52.5 17zM176 620q0 23 14 36.5t37 13.5q19 0 30 -11t11 -28q0 -22 -14 -36.5t-38 -14.5q-19 0 -29.5 11t-10.5 29zM353 620
q0 23 14 36.5t37 13.5q19 0 30 -11t11 -28q0 -22 -14 -36.5t-38 -14.5q-19 0 -29.5 11t-10.5 29z" />
    <glyph glyph-name="igrave" unicode="&#xec;" horiz-adv-x="225" 
d="M35 0l84 477h65l-84 -477h-65zM127 554l-63 156h70l46 -156h-53z" />
    <glyph glyph-name="iacute" unicode="&#xed;" horiz-adv-x="225" 
d="M35 0l84 477h65l-84 -477h-65zM133 554l98 156h79l-119 -156h-58z" />
    <glyph glyph-name="icircumflex" unicode="&#xee;" horiz-adv-x="225" 
d="M35 0l84 477h65l-84 -477h-65zM298 554h-62l-54 117l-94 -117h-66l130 156h66z" />
    <glyph glyph-name="idieresis" unicode="&#xef;" horiz-adv-x="225" 
d="M35 0l84 477h65l-84 -477h-65zM38 620q0 23 14 36.5t37 13.5q19 0 30 -11t11 -28q0 -22 -14 -36.5t-38 -14.5q-19 0 -29.5 11t-10.5 29zM215 620q0 23 14 36.5t37 13.5q19 0 30 -11t11 -28q0 -22 -14 -36.5t-38 -14.5q-19 0 -29.5 11t-10.5 29z" />
    <glyph glyph-name="eth" unicode="&#xf0;" horiz-adv-x="523" 
d="M486 678l-92 -62q48 -41 75 -100.5t27 -132.5q0 -17 -2 -34.5t-5 -36.5q-12 -70 -36 -129t-58.5 -102t-80.5 -67t-103 -24q-42 0 -74.5 15.5t-54.5 42.5t-33 62.5t-11 74.5q0 54 15 103t44.5 86.5t74 59.5t103.5 22q49 0 90 -16t72 -42q-5 70 -29.5 112t-59.5 71
l-108 -72l-22 35l95 61q-31 21 -67.5 35.5t-77.5 22.5l14 53q50 -9 95.5 -27t83.5 -46l103 68zM101 181q0 -61 27.5 -100.5t88.5 -39.5q47 0 82.5 24t61 61.5t41 84t22.5 91.5l7 44q-30 26 -68.5 42t-80.5 16q-46 0 -80 -17.5t-56.5 -47.5t-33.5 -71t-11 -87z" />
    <glyph glyph-name="ntilde" unicode="&#xf1;" horiz-adv-x="534" 
d="M35 0l84 477h63l-24 -136q15 28 33.5 54.5t41.5 47t50.5 32.5t60.5 12q31 0 54 -12.5t38 -34t22 -51.5t7 -65q0 -17 -1.5 -36t-5.5 -39l-44 -249h-65l43 244q7 38 7 76q0 48 -16 80.5t-56 32.5q-26 0 -51.5 -15.5t-48.5 -41t-44 -58.5t-39 -68l-44 -250h-65zM387 575
q-17 0 -35.5 8.5t-35.5 18.5t-29 16t-24 6q-20 0 -32 -13t-29 -42l-39 23q12 24 22.5 40t22 26t25 14.5t32.5 4.5q20 0 36 -7t35 -18q17 -10 29 -17t24 -7q19 0 29.5 12.5t24.5 37.5l39 -22q-21 -41 -42 -61t-53 -20z" />
    <glyph glyph-name="ograve" unicode="&#xf2;" horiz-adv-x="508" 
d="M471 293q0 -53 -17 -107t-49.5 -97.5t-80 -71t-108.5 -27.5q-44 0 -77 15t-55.5 41.5t-34 61.5t-11.5 74q0 56 16.5 110.5t48.5 98t79 70t109 26.5q45 0 78.5 -15.5t56 -42t34 -61.5t11.5 -75zM221 42q43 0 77 22t58 57t37 79.5t13 88.5q0 30 -7 56.5t-22 46.5t-38 31.5
t-54 11.5q-42 0 -75.5 -21t-57.5 -56.5t-36.5 -80.5t-12.5 -93q0 -30 6.5 -55.5t20.5 -45t36.5 -30.5t54.5 -11zM263 554l-63 156h70l46 -156h-53z" />
    <glyph glyph-name="oacute" unicode="&#xf3;" horiz-adv-x="508" 
d="M471 293q0 -53 -17 -107t-49.5 -97.5t-80 -71t-108.5 -27.5q-44 0 -77 15t-55.5 41.5t-34 61.5t-11.5 74q0 56 16.5 110.5t48.5 98t79 70t109 26.5q45 0 78.5 -15.5t56 -42t34 -61.5t11.5 -75zM221 42q43 0 77 22t58 57t37 79.5t13 88.5q0 30 -7 56.5t-22 46.5t-38 31.5
t-54 11.5q-42 0 -75.5 -21t-57.5 -56.5t-36.5 -80.5t-12.5 -93q0 -30 6.5 -55.5t20.5 -45t36.5 -30.5t54.5 -11zM270 554l98 156h79l-119 -156h-58z" />
    <glyph glyph-name="ocircumflex" unicode="&#xf4;" horiz-adv-x="508" 
d="M471 293q0 -53 -17 -107t-49.5 -97.5t-80 -71t-108.5 -27.5q-44 0 -77 15t-55.5 41.5t-34 61.5t-11.5 74q0 56 16.5 110.5t48.5 98t79 70t109 26.5q45 0 78.5 -15.5t56 -42t34 -61.5t11.5 -75zM221 42q43 0 77 22t58 57t37 79.5t13 88.5q0 30 -7 56.5t-22 46.5t-38 31.5
t-54 11.5q-42 0 -75.5 -21t-57.5 -56.5t-36.5 -80.5t-12.5 -93q0 -30 6.5 -55.5t20.5 -45t36.5 -30.5t54.5 -11zM448 554h-62l-54 117l-94 -117h-66l130 156h66z" />
    <glyph glyph-name="otilde" unicode="&#xf5;" horiz-adv-x="508" 
d="M471 293q0 -53 -17 -107t-49.5 -97.5t-80 -71t-108.5 -27.5q-44 0 -77 15t-55.5 41.5t-34 61.5t-11.5 74q0 56 16.5 110.5t48.5 98t79 70t109 26.5q45 0 78.5 -15.5t56 -42t34 -61.5t11.5 -75zM221 42q43 0 77 22t58 57t37 79.5t13 88.5q0 30 -7 56.5t-22 46.5t-38 31.5
t-54 11.5q-42 0 -75.5 -21t-57.5 -56.5t-36.5 -80.5t-12.5 -93q0 -30 6.5 -55.5t20.5 -45t36.5 -30.5t54.5 -11zM380 575q-17 0 -35.5 8.5t-35.5 18.5t-29 16t-24 6q-20 0 -32 -13t-29 -42l-39 23q12 24 22.5 40t22 26t25 14.5t32.5 4.5q20 0 36 -7t35 -18q17 -10 29 -17
t24 -7q19 0 29.5 12.5t24.5 37.5l39 -22q-21 -41 -42 -61t-53 -20z" />
    <glyph glyph-name="odieresis" unicode="&#xf6;" horiz-adv-x="508" 
d="M471 293q0 -53 -17 -107t-49.5 -97.5t-80 -71t-108.5 -27.5q-44 0 -77 15t-55.5 41.5t-34 61.5t-11.5 74q0 56 16.5 110.5t48.5 98t79 70t109 26.5q45 0 78.5 -15.5t56 -42t34 -61.5t11.5 -75zM221 42q43 0 77 22t58 57t37 79.5t13 88.5q0 30 -7 56.5t-22 46.5t-38 31.5
t-54 11.5q-42 0 -75.5 -21t-57.5 -56.5t-36.5 -80.5t-12.5 -93q0 -30 6.5 -55.5t20.5 -45t36.5 -30.5t54.5 -11zM189 620q0 23 14 36.5t37 13.5q19 0 30 -11t11 -28q0 -22 -14 -36.5t-38 -14.5q-19 0 -29.5 11t-10.5 29zM366 620q0 23 14 36.5t37 13.5q19 0 30 -11t11 -28
q0 -22 -14 -36.5t-38 -14.5q-19 0 -29.5 11t-10.5 29z" />
    <glyph glyph-name="divide" unicode="&#xf7;" horiz-adv-x="611" 
d="M93 298v51h451v-51h-451zM269 143q0 20 13.5 34.5t35.5 14.5q23 0 36 -14.5t13 -34.5t-13 -34.5t-36 -14.5q-22 0 -35.5 14.5t-13.5 34.5zM269 504q0 20 13.5 34.5t35.5 14.5q23 0 36 -14.5t13 -34.5t-13 -34.5t-36 -14.5q-22 0 -35.5 14.5t-13.5 34.5z" />
    <glyph glyph-name="oslash" unicode="&#xf8;" horiz-adv-x="515" 
d="M86 49q-22 26 -33 60t-11 73q0 56 16.5 111t48.5 98t79 69.5t109 26.5q32 0 59 -9t48 -25l67 86l32 -25l-70 -89q22 -26 33 -60t11 -72q0 -53 -17 -106.5t-49.5 -97.5t-79.5 -71.5t-108 -27.5q-32 0 -58 8.5t-47 23.5l-66 -84l-32 25zM107 184q0 -24 4.5 -46t13.5 -39
l241 308q-15 13 -34.5 20.5t-42.5 7.5q-42 0 -75.5 -21t-57 -56.5t-36.5 -80.5t-13 -93zM226 42q44 0 78 22.5t57.5 58.5t36 80t12.5 86q0 49 -19 84l-241 -307q30 -24 76 -24z" />
    <glyph glyph-name="ugrave" unicode="&#xf9;" horiz-adv-x="523" 
d="M482 477l-84 -477h-63l28 164q-12 -27 -30.5 -58t-42 -56.5t-52 -42.5t-60.5 -17t-54.5 12t-37 33t-21 50t-6.5 62q0 17 2 37t5 37l45 256h65l-46 -262q-4 -20 -5.5 -38t-1.5 -34q0 -100 68 -100q27 0 54 21t51.5 54.5t46 74.5t38.5 82l36 202h65zM289 554l-63 156h70
l46 -156h-53z" />
    <glyph glyph-name="uacute" unicode="&#xfa;" horiz-adv-x="523" 
d="M482 477l-84 -477h-63l28 164q-12 -27 -30.5 -58t-42 -56.5t-52 -42.5t-60.5 -17t-54.5 12t-37 33t-21 50t-6.5 62q0 17 2 37t5 37l45 256h65l-46 -262q-4 -20 -5.5 -38t-1.5 -34q0 -100 68 -100q27 0 54 21t51.5 54.5t46 74.5t38.5 82l36 202h65zM261 554l98 156h79
l-119 -156h-58z" />
    <glyph glyph-name="ucircumflex" unicode="&#xfb;" horiz-adv-x="523" 
d="M482 477l-84 -477h-63l28 164q-12 -27 -30.5 -58t-42 -56.5t-52 -42.5t-60.5 -17t-54.5 12t-37 33t-21 50t-6.5 62q0 17 2 37t5 37l45 256h65l-46 -262q-4 -20 -5.5 -38t-1.5 -34q0 -100 68 -100q27 0 54 21t51.5 54.5t46 74.5t38.5 82l36 202h65zM454 554h-62l-54 117
l-94 -117h-66l130 156h66z" />
    <glyph glyph-name="udieresis" unicode="&#xfc;" horiz-adv-x="523" 
d="M482 477l-84 -477h-63l28 164q-12 -27 -30.5 -58t-42 -56.5t-52 -42.5t-60.5 -17t-54.5 12t-37 33t-21 50t-6.5 62q0 17 2 37t5 37l45 256h65l-46 -262q-4 -20 -5.5 -38t-1.5 -34q0 -100 68 -100q27 0 54 21t51.5 54.5t46 74.5t38.5 82l36 202h65zM195 620q0 23 14 36.5
t37 13.5q19 0 30 -11t11 -28q0 -22 -14 -36.5t-38 -14.5q-19 0 -29.5 11t-10.5 29zM372 620q0 23 14 36.5t37 13.5q19 0 30 -11t11 -28q0 -22 -14 -36.5t-38 -14.5q-19 0 -29.5 11t-10.5 29z" />
    <glyph glyph-name="yacute" unicode="&#xfd;" horiz-adv-x="424" 
d="M255 23q-50 -72 -118.5 -133t-150.5 -106l-29 46q65 39 114.5 78.5t94.5 90.5q-20 128 -51 250t-73 228h65q16 -44 32 -95.5t30 -107t25.5 -112t19.5 -108.5q57 95 95.5 198.5t56.5 224.5h63q-8 -66 -27 -132t-43.5 -125t-51.5 -110t-52 -87zM184 554l98 156h79
l-119 -156h-58z" />
    <glyph glyph-name="thorn" unicode="&#xfe;" horiz-adv-x="513" 
d="M159 706h65l-65 -373q17 30 37 58t43.5 49t51 34t60.5 13q30 0 53.5 -13.5t39 -36.5t23.5 -53.5t8 -64.5q0 -63 -17 -122.5t-51 -105t-85 -73.5t-120 -28q-27 0 -52.5 4t-48.5 12l-37 -212h-65zM339 435q-26 0 -53.5 -18.5t-53.5 -49t-50 -69t-43 -77.5l-29 -163
q20 -8 43 -12t46 -4q55 0 95 23.5t66 61.5t38 87.5t12 101.5q0 22 -3.5 43.5t-12 38.5t-22 27t-33.5 10z" />
    <glyph glyph-name="ydieresis" unicode="&#xff;" horiz-adv-x="424" 
d="M255 23q-50 -72 -118.5 -133t-150.5 -106l-29 46q65 39 114.5 78.5t94.5 90.5q-20 128 -51 250t-73 228h65q16 -44 32 -95.5t30 -107t25.5 -112t19.5 -108.5q57 95 95.5 198.5t56.5 224.5h63q-8 -66 -27 -132t-43.5 -125t-51.5 -110t-52 -87zM121 620q0 23 14 36.5
t37 13.5q19 0 30 -11t11 -28q0 -22 -14 -36.5t-38 -14.5q-19 0 -29.5 11t-10.5 29zM298 620q0 23 14 36.5t37 13.5q19 0 30 -11t11 -28q0 -22 -14 -36.5t-38 -14.5q-19 0 -29.5 11t-10.5 29z" />
    <glyph glyph-name="Amacron" unicode="&#x100;" horiz-adv-x="639" 
d="M466 170h-314l-93 -170h-72l374 666h63l142 -666h-67zM181 225h275l-72 374zM273 817h273l-9 -51h-273z" />
    <glyph glyph-name="amacron" unicode="&#x101;" horiz-adv-x="508" 
d="M384 0h-62l32 186q-14 -30 -34 -64.5t-44.5 -64t-54.5 -48.5t-63 -19q-32 0 -54 14t-36.5 37t-21 53t-6.5 62q0 63 17.5 122.5t52 106t85.5 74.5t119 28q40 0 80 -8t71 -20zM165 42q30 0 60.5 29t58.5 72.5t52 95t42 96.5l16 90q-34 10 -80 10q-50 0 -89 -22.5t-65.5 -61
t-40.5 -88.5t-14 -105q0 -23 3 -44t9.5 -37t18 -25.5t29.5 -9.5zM214 651h256l-9 -53h-256z" />
    <glyph glyph-name="Abreve" unicode="&#x102;" horiz-adv-x="639" 
d="M466 170h-314l-93 -170h-72l374 666h63l142 -666h-67zM181 225h275l-72 374zM541 825q-22 -48 -56 -71.5t-79 -23.5q-48 0 -77.5 27.5t-37.5 75.5l48 14q6 -35 23 -53.5t48 -18.5t51.5 18.5t37.5 53.5z" />
    <glyph glyph-name="abreve" unicode="&#x103;" horiz-adv-x="508" 
d="M384 0h-62l32 186q-14 -30 -34 -64.5t-44.5 -64t-54.5 -48.5t-63 -19q-32 0 -54 14t-36.5 37t-21 53t-6.5 62q0 63 17.5 122.5t52 106t85.5 74.5t119 28q40 0 80 -8t71 -20zM165 42q30 0 60.5 29t58.5 72.5t52 95t42 96.5l16 90q-34 10 -80 10q-50 0 -89 -22.5t-65.5 -61
t-40.5 -88.5t-14 -105q0 -23 3 -44t9.5 -37t18 -25.5t29.5 -9.5zM484 677q-24 -60 -57.5 -91.5t-90.5 -31.5t-88 36.5t-31 93.5l49 9q2 -46 19.5 -69t54.5 -23t59.5 27t37.5 69z" />
    <glyph glyph-name="Aogonek" unicode="&#x104;" horiz-adv-x="639" 
d="M530 -203q-29 -13 -71 -13q-38 0 -60 20t-22 53q0 27 10.5 48.5t28 39t39 31t44.5 24.5l-33 170h-314l-93 -170h-72l374 666h63l142 -666q-25 -17 -48 -32t-41 -31t-28.5 -33t-10.5 -38q0 -17 9.5 -26.5t29.5 -9.5q24 0 45 9zM181 225h275l-72 374z" />
    <glyph glyph-name="aogonek" unicode="&#x105;" horiz-adv-x="508" 
d="M348 -203q-29 -13 -71 -13q-38 0 -60 20t-22 53q0 27 11.5 48.5t29.5 39t40.5 31t45.5 24.5l32 186q-14 -30 -34 -64.5t-44.5 -64t-54.5 -48.5t-63 -19q-32 0 -54 14t-36.5 37t-21 53t-6.5 62q0 63 17.5 122.5t52 106t85.5 74.5t119 28q40 0 80 -8t71 -20l-81 -459
q-25 -17 -48 -32t-41 -31t-28.5 -33t-10.5 -38q0 -17 9.5 -26.5t29.5 -9.5q24 0 45 9zM165 42q30 0 60.5 29t58.5 72.5t52 95t42 96.5l16 90q-34 10 -80 10q-50 0 -89 -22.5t-65.5 -61t-40.5 -88.5t-14 -105q0 -23 3 -44t9.5 -37t18 -25.5t29.5 -9.5z" />
    <glyph glyph-name="Cacute" unicode="&#x106;" horiz-adv-x="600" 
d="M420 678q49 0 98.5 -9.5t87.5 -27.5l-14 -54q-38 17 -82 26.5t-89 9.5q-72 0 -127.5 -25.5t-94 -70.5t-58 -106.5t-19.5 -133.5q0 -54 15.5 -99t46 -77.5t76 -50t106.5 -17.5q35 0 71.5 5.5t71.5 17.5l8 -52q-34 -13 -76 -19.5t-84 -6.5q-69 0 -124.5 22t-94.5 61.5
t-60.5 94t-21.5 119.5q0 78 23 149.5t68.5 125.5t114 86t158.5 32zM375 730l99 111h85l-126 -111h-58z" />
    <glyph glyph-name="cacute" unicode="&#x107;" horiz-adv-x="421" 
d="M291 487q75 0 128 -31l-14 -53q-28 14 -54.5 22t-59.5 8q-45 0 -80 -19.5t-59 -53t-36.5 -79t-12.5 -96.5q0 -65 29 -103.5t95 -38.5q31 0 59.5 7.5t54.5 20.5l13 -49q-28 -15 -62 -23.5t-72 -8.5q-48 0 -82 16t-56.5 43t-33 63t-10.5 75q0 59 16.5 113t49 95.5
t79.5 66.5t108 25zM242 554l98 156h79l-119 -156h-58z" />
    <glyph glyph-name="Ccircumflex" unicode="&#x108;" horiz-adv-x="600" 
d="M420 678q49 0 98.5 -9.5t87.5 -27.5l-14 -54q-38 17 -82 26.5t-89 9.5q-72 0 -127.5 -25.5t-94 -70.5t-58 -106.5t-19.5 -133.5q0 -54 15.5 -99t46 -77.5t76 -50t106.5 -17.5q35 0 71.5 5.5t71.5 17.5l8 -52q-34 -13 -76 -19.5t-84 -6.5q-69 0 -124.5 22t-94.5 61.5
t-60.5 94t-21.5 119.5q0 78 23 149.5t68.5 125.5t114 86t158.5 32zM554 730h-62l-54 79l-78 -79h-67l113 111h69z" />
    <glyph glyph-name="ccircumflex" unicode="&#x109;" horiz-adv-x="421" 
d="M291 487q75 0 128 -31l-14 -53q-28 14 -54.5 22t-59.5 8q-45 0 -80 -19.5t-59 -53t-36.5 -79t-12.5 -96.5q0 -65 29 -103.5t95 -38.5q31 0 59.5 7.5t54.5 20.5l13 -49q-28 -15 -62 -23.5t-72 -8.5q-48 0 -82 16t-56.5 43t-33 63t-10.5 75q0 59 16.5 113t49 95.5
t79.5 66.5t108 25zM429 554h-62l-54 117l-94 -117h-66l130 156h66z" />
    <glyph glyph-name="Cdotaccent" unicode="&#x10a;" horiz-adv-x="600" 
d="M420 678q49 0 98.5 -9.5t87.5 -27.5l-14 -54q-38 17 -82 26.5t-89 9.5q-72 0 -127.5 -25.5t-94 -70.5t-58 -106.5t-19.5 -133.5q0 -54 15.5 -99t46 -77.5t76 -50t106.5 -17.5q35 0 71.5 5.5t71.5 17.5l8 -52q-34 -13 -76 -19.5t-84 -6.5q-69 0 -124.5 22t-94.5 61.5
t-60.5 94t-21.5 119.5q0 78 23 149.5t68.5 125.5t114 86t158.5 32zM387 785q0 20 13.5 35.5t38.5 15.5q20 0 31 -11t11 -29q0 -22 -15 -36.5t-38 -14.5q-19 0 -30 11.5t-11 28.5z" />
    <glyph glyph-name="cdotaccent" unicode="&#x10b;" horiz-adv-x="421" 
d="M291 487q75 0 128 -31l-14 -53q-28 14 -54.5 22t-59.5 8q-45 0 -80 -19.5t-59 -53t-36.5 -79t-12.5 -96.5q0 -65 29 -103.5t95 -38.5q31 0 59.5 7.5t54.5 20.5l13 -49q-28 -15 -62 -23.5t-72 -8.5q-48 0 -82 16t-56.5 43t-33 63t-10.5 75q0 59 16.5 113t49 95.5
t79.5 66.5t108 25zM258 618q0 20 13.5 35.5t38.5 15.5q20 0 31 -11t11 -29q0 -22 -15 -36.5t-38 -14.5q-19 0 -30 11.5t-11 28.5z" />
    <glyph glyph-name="Ccaron" unicode="&#x10c;" horiz-adv-x="600" 
d="M420 678q49 0 98.5 -9.5t87.5 -27.5l-14 -54q-38 17 -82 26.5t-89 9.5q-72 0 -127.5 -25.5t-94 -70.5t-58 -106.5t-19.5 -133.5q0 -54 15.5 -99t46 -77.5t76 -50t106.5 -17.5q35 0 71.5 5.5t71.5 17.5l8 -52q-34 -13 -76 -19.5t-84 -6.5q-69 0 -124.5 22t-94.5 61.5
t-60.5 94t-21.5 119.5q0 78 23 149.5t68.5 125.5t114 86t158.5 32zM320 841h62l54 -79l78 79h67l-113 -111h-69z" />
    <glyph glyph-name="ccaron" unicode="&#x10d;" horiz-adv-x="421" 
d="M291 487q75 0 128 -31l-14 -53q-28 14 -54.5 22t-59.5 8q-45 0 -80 -19.5t-59 -53t-36.5 -79t-12.5 -96.5q0 -65 29 -103.5t95 -38.5q31 0 59.5 7.5t54.5 20.5l13 -49q-28 -15 -62 -23.5t-72 -8.5q-48 0 -82 16t-56.5 43t-33 63t-10.5 75q0 59 16.5 113t49 95.5
t79.5 66.5t108 25zM177 710h62l54 -117l94 117h66l-130 -156h-66z" />
    <glyph glyph-name="Dcaron" unicode="&#x10e;" horiz-adv-x="664" 
d="M157 666h160q71 0 130 -19.5t101 -56.5t65 -89.5t23 -119.5q0 -83 -29 -153t-83 -120.5t-131.5 -79t-174.5 -28.5h-178zM222 54q87 1 152 26t108.5 68.5t65.5 102.5t22 128q0 56 -19 99.5t-53.5 73t-82 45t-105.5 15.5h-97l-98 -558h107zM247 841h62l54 -79l78 79h67
l-113 -111h-69z" />
    <glyph glyph-name="dcaron" unicode="&#x10f;" horiz-adv-x="606" 
d="M396 0h-63l25 145q-15 -26 -35.5 -53.5t-45.5 -50t-53.5 -37t-61.5 -14.5q-32 0 -55 14.5t-38 38t-22 53.5t-7 62q0 63 17 122.5t51 105t85 73.5t120 28q60 0 101 -16l41 235h65zM176 42q28 0 56 19.5t54 51t49.5 70.5t41.5 78l28 158q-40 16 -89 16q-56 0 -95.5 -23.5
t-65.5 -61.5t-38 -87.5t-12 -101.5q0 -21 2.5 -42.5t10 -38.5t21.5 -27.5t37 -10.5zM558 517q30 45 48.5 92t29.5 97l60 -10q-14 -63 -36.5 -111t-59.5 -96z" />
    <glyph glyph-name="Dcroat" unicode="&#x110;" horiz-adv-x="710" 
d="M74 359h75l54 307h160q71 0 130 -19.5t101 -56.5t65 -89.5t23 -119.5q0 -83 -29 -153t-83 -120.5t-131.5 -79t-174.5 -28.5h-178l54 307h-75zM268 54q87 1 152 26t108.5 68.5t65.5 102.5t22 128q0 56 -19 99.5t-53.5 73t-82 45t-105.5 15.5h-97l-45 -253h190l-9 -52h-190
l-44 -253h107z" />
    <glyph glyph-name="dcroat" unicode="&#x111;" horiz-adv-x="521" 
d="M281 613h157l17 93h65l-17 -93h73l-8 -49h-73l-99 -564h-63l25 145q-15 -26 -35.5 -53.5t-45.5 -50t-53.5 -37t-61.5 -14.5q-32 0 -55 14.5t-38 38t-22 53.5t-7 62q0 63 17 122.5t51 105t85 73.5t120 28q60 0 101 -16l16 93h-158zM176 42q28 0 56 19.5t54 51t49.5 70.5
t41.5 78l28 158q-40 16 -89 16q-56 0 -95.5 -23.5t-65.5 -61.5t-38 -87.5t-12 -101.5q0 -21 2.5 -42.5t10 -38.5t21.5 -27.5t37 -10.5z" />
    <glyph glyph-name="Emacron" unicode="&#x112;" horiz-adv-x="491" 
d="M157 666h351l-9 -55h-286l-43 -243h274l-10 -55h-274l-45 -258h289l-10 -55h-354zM222 817h273l-9 -51h-273z" />
    <glyph glyph-name="emacron" unicode="&#x113;" horiz-adv-x="440" 
d="M295 487q26 0 49 -7t40 -20.5t27 -33.5t10 -46q0 -33 -15.5 -58.5t-41 -43.5t-58 -30.5t-68 -20t-70 -11.5t-63.5 -5q-3 -21 -3 -40q0 -56 26 -92t87 -36q35 0 68.5 10t64.5 27l13 -49q-32 -19 -70 -30t-80 -11q-44 0 -76 14.5t-53.5 39.5t-32 59t-10.5 73q0 58 17 114
t50 100t80.5 70.5t108.5 26.5zM287 437q-34 0 -63 -15.5t-51.5 -40t-37.5 -56t-21 -63.5q36 1 78.5 7t79 18.5t61.5 34.5t25 55q0 26 -18.5 43t-52.5 17zM183 651h256l-9 -53h-256z" />
    <glyph glyph-name="Ebreve" unicode="&#x114;" horiz-adv-x="491" 
d="M157 666h351l-9 -55h-286l-43 -243h274l-10 -55h-274l-45 -258h289l-10 -55h-354zM476 825q-22 -48 -56 -71.5t-79 -23.5q-48 0 -77.5 27.5t-37.5 75.5l48 14q6 -35 23 -53.5t48 -18.5t51.5 18.5t37.5 53.5z" />
    <glyph glyph-name="ebreve" unicode="&#x115;" horiz-adv-x="440" 
d="M295 487q26 0 49 -7t40 -20.5t27 -33.5t10 -46q0 -33 -15.5 -58.5t-41 -43.5t-58 -30.5t-68 -20t-70 -11.5t-63.5 -5q-3 -21 -3 -40q0 -56 26 -92t87 -36q35 0 68.5 10t64.5 27l13 -49q-32 -19 -70 -30t-80 -11q-44 0 -76 14.5t-53.5 39.5t-32 59t-10.5 73q0 58 17 114
t50 100t80.5 70.5t108.5 26.5zM287 437q-34 0 -63 -15.5t-51.5 -40t-37.5 -56t-21 -63.5q36 1 78.5 7t79 18.5t61.5 34.5t25 55q0 26 -18.5 43t-52.5 17zM448 677q-24 -60 -57.5 -91.5t-90.5 -31.5t-88 36.5t-31 93.5l49 9q2 -46 19.5 -69t54.5 -23t59.5 27t37.5 69z" />
    <glyph glyph-name="Edotaccent" unicode="&#x116;" horiz-adv-x="491" 
d="M157 666h351l-9 -55h-286l-43 -243h274l-10 -55h-274l-45 -258h289l-10 -55h-354zM301 785q0 20 13.5 35.5t38.5 15.5q20 0 31 -11t11 -29q0 -22 -15 -36.5t-38 -14.5q-19 0 -30 11.5t-11 28.5z" />
    <glyph glyph-name="edotaccent" unicode="&#x117;" horiz-adv-x="440" 
d="M295 487q26 0 49 -7t40 -20.5t27 -33.5t10 -46q0 -33 -15.5 -58.5t-41 -43.5t-58 -30.5t-68 -20t-70 -11.5t-63.5 -5q-3 -21 -3 -40q0 -56 26 -92t87 -36q35 0 68.5 10t64.5 27l13 -49q-32 -19 -70 -30t-80 -11q-44 0 -76 14.5t-53.5 39.5t-32 59t-10.5 73q0 58 17 114
t50 100t80.5 70.5t108.5 26.5zM287 437q-34 0 -63 -15.5t-51.5 -40t-37.5 -56t-21 -63.5q36 1 78.5 7t79 18.5t61.5 34.5t25 55q0 26 -18.5 43t-52.5 17zM264 618q0 20 13.5 35.5t38.5 15.5q20 0 31 -11t11 -29q0 -22 -15 -36.5t-38 -14.5q-19 0 -30 11.5t-11 28.5z" />
    <glyph glyph-name="Eogonek" unicode="&#x118;" horiz-adv-x="491" 
d="M157 666h351l-9 -55h-286l-43 -243h274l-10 -55h-274l-45 -258h289l-10 -55q-25 -17 -48 -32t-41 -31t-28.5 -33t-10.5 -38q0 -17 9.5 -26.5t29.5 -9.5q24 0 45 9l8 -42q-29 -13 -71 -13q-38 0 -60 20t-22 53q0 27 12 49.5t31 40t41.5 30.5t42.5 23h-292z" />
    <glyph glyph-name="eogonek" unicode="&#x119;" horiz-adv-x="440" 
d="M297 -203q-29 -13 -71 -13q-38 0 -60 20t-22 53q0 27 11 49t27.5 38.5t35.5 28.5t34 20q-21 -3 -41 -3q-44 0 -76 14.5t-53.5 39.5t-32 59t-10.5 73q0 58 17 114t50 100t80.5 70.5t108.5 26.5q26 0 49 -7t40 -20.5t27 -33.5t10 -46q0 -33 -15.5 -58.5t-41 -43.5
t-58 -30.5t-68 -20t-70 -11.5t-63.5 -5q-3 -21 -3 -40q0 -56 26 -92t87 -36q35 0 68.5 10t64.5 27l13 -49q-31 -18 -59 -38.5t-49.5 -41.5t-34.5 -42.5t-13 -42.5q0 -17 9.5 -26.5t29.5 -9.5q24 0 45 9zM287 437q-34 0 -63 -15.5t-51.5 -40t-37.5 -56t-21 -63.5q36 1 78.5 7
t79 18.5t61.5 34.5t25 55q0 26 -18.5 43t-52.5 17z" />
    <glyph glyph-name="Ecaron" unicode="&#x11a;" horiz-adv-x="491" 
d="M157 666h351l-9 -55h-286l-43 -243h274l-10 -55h-274l-45 -258h289l-10 -55h-354zM227 841h62l54 -79l78 79h67l-113 -111h-69z" />
    <glyph glyph-name="ecaron" unicode="&#x11b;" horiz-adv-x="440" 
d="M295 487q26 0 49 -7t40 -20.5t27 -33.5t10 -46q0 -33 -15.5 -58.5t-41 -43.5t-58 -30.5t-68 -20t-70 -11.5t-63.5 -5q-3 -21 -3 -40q0 -56 26 -92t87 -36q35 0 68.5 10t64.5 27l13 -49q-32 -19 -70 -30t-80 -11q-44 0 -76 14.5t-53.5 39.5t-32 59t-10.5 73q0 58 17 114
t50 100t80.5 70.5t108.5 26.5zM287 437q-34 0 -63 -15.5t-51.5 -40t-37.5 -56t-21 -63.5q36 1 78.5 7t79 18.5t61.5 34.5t25 55q0 26 -18.5 43t-52.5 17zM187 710h62l54 -117l94 117h66l-130 -156h-66z" />
    <glyph glyph-name="Gcircumflex" unicode="&#x11c;" horiz-adv-x="668" 
d="M430 678q59 0 117 -11t108 -38l-16 -53q-53 26 -105.5 36.5t-103.5 10.5q-74 0 -131.5 -26t-97 -71t-60 -106t-20.5 -131q0 -118 65.5 -183t193.5 -65q32 0 62.5 3t59.5 11l39 225h62l-46 -265q-18 -6 -41 -11t-47.5 -8.5t-50 -5.5t-47.5 -2q-75 0 -134 22.5t-99.5 62
t-61.5 95t-21 121.5q0 79 24 149.5t71.5 124t117.5 84.5t162 31zM559 730h-62l-54 79l-78 -79h-67l113 111h69z" />
    <glyph glyph-name="gcircumflex" unicode="&#x11d;" horiz-adv-x="514" 
d="M396 31q-11 -60 -28.5 -106t-45 -77.5t-66 -47.5t-90.5 -16q-40 0 -84.5 12t-76.5 30l16 51q32 -17 69.5 -28.5t74.5 -11.5q39 0 67 13.5t47.5 38t31.5 60t20 80.5l25 141q-14 -29 -34 -58.5t-45 -53.5t-54 -39t-61 -15q-30 0 -52 11.5t-36.5 31.5t-22 47.5t-7.5 60.5
q0 69 18.5 129.5t54 105.5t87 71t118.5 26q38 0 77.5 -7t72.5 -21zM168 57q27 0 55.5 19t55.5 49.5t51.5 70.5t44.5 82l25 142q-38 14 -85 14q-49 0 -87.5 -22.5t-65 -60.5t-40.5 -89t-14 -109q0 -20 3 -37.5t10 -30.5t18.5 -20.5t28.5 -7.5zM466 554h-62l-54 117l-94 -117
h-66l130 156h66z" />
    <glyph glyph-name="Gbreve" unicode="&#x11e;" horiz-adv-x="668" 
d="M430 678q59 0 117 -11t108 -38l-16 -53q-53 26 -105.5 36.5t-103.5 10.5q-74 0 -131.5 -26t-97 -71t-60 -106t-20.5 -131q0 -118 65.5 -183t193.5 -65q32 0 62.5 3t59.5 11l39 225h62l-46 -265q-18 -6 -41 -11t-47.5 -8.5t-50 -5.5t-47.5 -2q-75 0 -134 22.5t-99.5 62
t-61.5 95t-21 121.5q0 79 24 149.5t71.5 124t117.5 84.5t162 31zM570 825q-22 -48 -56 -71.5t-79 -23.5q-48 0 -77.5 27.5t-37.5 75.5l48 14q6 -35 23 -53.5t48 -18.5t51.5 18.5t37.5 53.5z" />
    <glyph glyph-name="gbreve" unicode="&#x11f;" horiz-adv-x="514" 
d="M396 31q-11 -60 -28.5 -106t-45 -77.5t-66 -47.5t-90.5 -16q-40 0 -84.5 12t-76.5 30l16 51q32 -17 69.5 -28.5t74.5 -11.5q39 0 67 13.5t47.5 38t31.5 60t20 80.5l25 141q-14 -29 -34 -58.5t-45 -53.5t-54 -39t-61 -15q-30 0 -52 11.5t-36.5 31.5t-22 47.5t-7.5 60.5
q0 69 18.5 129.5t54 105.5t87 71t118.5 26q38 0 77.5 -7t72.5 -21zM168 57q27 0 55.5 19t55.5 49.5t51.5 70.5t44.5 82l25 142q-38 14 -85 14q-49 0 -87.5 -22.5t-65 -60.5t-40.5 -89t-14 -109q0 -20 3 -37.5t10 -30.5t18.5 -20.5t28.5 -7.5zM481 677q-24 -60 -57.5 -91.5
t-90.5 -31.5t-88 36.5t-31 93.5l49 9q2 -46 19.5 -69t54.5 -23t59.5 27t37.5 69z" />
    <glyph glyph-name="Gdotaccent" unicode="&#x120;" horiz-adv-x="668" 
d="M430 678q59 0 117 -11t108 -38l-16 -53q-53 26 -105.5 36.5t-103.5 10.5q-74 0 -131.5 -26t-97 -71t-60 -106t-20.5 -131q0 -118 65.5 -183t193.5 -65q32 0 62.5 3t59.5 11l39 225h62l-46 -265q-18 -6 -41 -11t-47.5 -8.5t-50 -5.5t-47.5 -2q-75 0 -134 22.5t-99.5 62
t-61.5 95t-21 121.5q0 79 24 149.5t71.5 124t117.5 84.5t162 31zM409 785q0 20 13.5 35.5t38.5 15.5q20 0 31 -11t11 -29q0 -22 -15 -36.5t-38 -14.5q-19 0 -30 11.5t-11 28.5z" />
    <glyph glyph-name="gdotaccent" unicode="&#x121;" horiz-adv-x="514" 
d="M396 31q-11 -60 -28.5 -106t-45 -77.5t-66 -47.5t-90.5 -16q-40 0 -84.5 12t-76.5 30l16 51q32 -17 69.5 -28.5t74.5 -11.5q39 0 67 13.5t47.5 38t31.5 60t20 80.5l25 141q-14 -29 -34 -58.5t-45 -53.5t-54 -39t-61 -15q-30 0 -52 11.5t-36.5 31.5t-22 47.5t-7.5 60.5
q0 69 18.5 129.5t54 105.5t87 71t118.5 26q38 0 77.5 -7t72.5 -21zM168 57q27 0 55.5 19t55.5 49.5t51.5 70.5t44.5 82l25 142q-38 14 -85 14q-49 0 -87.5 -22.5t-65 -60.5t-40.5 -89t-14 -109q0 -20 3 -37.5t10 -30.5t18.5 -20.5t28.5 -7.5zM285 618q0 20 13.5 35.5
t38.5 15.5q20 0 31 -11t11 -29q0 -22 -15 -36.5t-38 -14.5q-19 0 -30 11.5t-11 28.5z" />
    <glyph glyph-name="Gcommaaccent" unicode="&#x122;" horiz-adv-x="668" 
d="M430 678q59 0 117 -11t108 -38l-16 -53q-53 26 -105.5 36.5t-103.5 10.5q-74 0 -131.5 -26t-97 -71t-60 -106t-20.5 -131q0 -118 65.5 -183t193.5 -65q32 0 62.5 3t59.5 11l39 225h62l-46 -265q-18 -6 -41 -11t-47.5 -8.5t-50 -5.5t-47.5 -2q-75 0 -134 22.5t-99.5 62
t-61.5 95t-21 121.5q0 79 24 149.5t71.5 124t117.5 84.5t162 31zM255 -225q25 41 37.5 76.5t19.5 75.5l64 -11q-10 -50 -29.5 -91.5t-47.5 -74.5z" />
    <glyph glyph-name="gcommaaccent" unicode="&#x123;" horiz-adv-x="514" 
d="M396 31q-11 -60 -28.5 -106t-45 -77.5t-66 -47.5t-90.5 -16q-40 0 -84.5 12t-76.5 30l16 51q32 -17 69.5 -28.5t74.5 -11.5q39 0 67 13.5t47.5 38t31.5 60t20 80.5l25 141q-14 -29 -34 -58.5t-45 -53.5t-54 -39t-61 -15q-30 0 -52 11.5t-36.5 31.5t-22 47.5t-7.5 60.5
q0 69 18.5 129.5t54 105.5t87 71t118.5 26q38 0 77.5 -7t72.5 -21zM168 57q27 0 55.5 19t55.5 49.5t51.5 70.5t44.5 82l25 142q-38 14 -85 14q-49 0 -87.5 -22.5t-65 -60.5t-40.5 -89t-14 -109q0 -20 3 -37.5t10 -30.5t18.5 -20.5t28.5 -7.5zM405 697q-23 -29 -38.5 -63.5
t-24.5 -79.5l-60 11q11 54 31.5 93t52.5 68z" />
    <glyph glyph-name="Hcircumflex" unicode="&#x124;" horiz-adv-x="659" 
d="M463 0l55 309h-358l-54 -309h-66l117 666h66l-53 -300h357l53 300h66l-117 -666h-66zM540 730h-62l-54 79l-78 -79h-67l113 111h69z" />
    <glyph glyph-name="hcircumflex" unicode="&#x125;" horiz-adv-x="534" 
d="M35 0l124 706h65l-64 -363q13 27 31.5 53t41 46t50.5 32.5t61 12.5q31 0 54 -12.5t38 -34t22 -51.5t7 -65q0 -17 -1.5 -36t-5.5 -39l-44 -249h-65l43 244q7 38 7 76q0 48 -16 80.5t-56 32.5q-27 0 -52 -15.5t-48.5 -41t-44 -58.5t-38.5 -68l-44 -250h-65zM323 750h-62
l-54 79l-78 -79h-67l113 111h69z" />
    <glyph glyph-name="Hbar" unicode="&#x126;" horiz-adv-x="659" 
d="M463 0l55 309h-358l-54 -309h-66l87 496h-80l8 51h81l21 119h66l-21 -119h357l21 119h66l-21 -119h81l-8 -51h-82l-87 -496h-66zM527 366l23 130h-357l-23 -130h357z" />
    <glyph glyph-name="hbar" unicode="&#x127;" horiz-adv-x="534" 
d="M69 613h73l17 93h65l-17 -93h149l-8 -49h-149l-39 -221q13 27 31.5 53t41 46t50.5 32.5t61 12.5q31 0 54 -12.5t38 -34t22 -51.5t7 -65q0 -17 -1.5 -36t-5.5 -39l-44 -249h-65l43 244q7 38 7 76q0 48 -16 80.5t-56 32.5q-27 0 -52 -15.5t-48.5 -41t-44 -58.5t-38.5 -68
l-44 -250h-65l99 564h-74z" />
    <glyph glyph-name="Itilde" unicode="&#x128;" horiz-adv-x="246" 
d="M111 0h-66l117 666h66zM278 735q-20 0 -38.5 8t-39.5 18t-35 16.5t-28 6.5q-20 0 -31.5 -13t-27.5 -41l-40 22q12 24 22 40t21.5 26t25 14t31.5 4t36 -5t44 -19q20 -11 35 -17.5t28 -6.5q19 0 29 12.5t23 35.5l40 -21q-18 -41 -39 -60.5t-56 -19.5z" />
    <glyph glyph-name="itilde" unicode="&#x129;" horiz-adv-x="225" 
d="M35 0l84 477h65l-84 -477h-65zM237 575q-17 0 -35.5 8.5t-35.5 18.5t-29 16t-24 6q-20 0 -32 -13t-29 -42l-39 23q12 24 22.5 40t22 26t25 14.5t32.5 4.5q20 0 36 -7t35 -18q17 -10 29 -17t24 -7q19 0 29.5 12.5t24.5 37.5l39 -22q-21 -41 -42 -61t-53 -20z" />
    <glyph glyph-name="uni012A" unicode="&#x12a;" horiz-adv-x="246" 
d="M111 0h-66l117 666h66zM82 817h273l-9 -51h-273z" />
    <glyph glyph-name="imacron" unicode="&#x12b;" horiz-adv-x="225" 
d="M35 0l84 477h65l-84 -477h-65zM52 651h256l-9 -53h-256z" />
    <glyph glyph-name="Ibreve" unicode="&#x12c;" horiz-adv-x="246" 
d="M111 0h-66l117 666h66zM346 825q-22 -48 -56 -71.5t-79 -23.5q-48 0 -77.5 27.5t-37.5 75.5l48 14q6 -35 23 -53.5t48 -18.5t51.5 18.5t37.5 53.5z" />
    <glyph glyph-name="uni012D" unicode="&#x12d;" horiz-adv-x="225" 
d="M35 0l84 477h65l-84 -477h-65zM315 677q-24 -60 -57.5 -91.5t-90.5 -31.5t-88 36.5t-31 93.5l49 9q2 -46 19.5 -69t54.5 -23t59.5 27t37.5 69z" />
    <glyph glyph-name="Iogonek" unicode="&#x12e;" horiz-adv-x="246" 
d="M74 -207q-27 -9 -51 -9q-37 0 -59.5 20.5t-22.5 56.5q0 26 10 48t25 39t33.5 30t35.5 22l117 666h66l-117 -666q-46 -31 -77.5 -62t-31.5 -74q0 -34 36 -34q13 0 30 5z" />
    <glyph glyph-name="iogonek" unicode="&#x12f;" horiz-adv-x="225" 
d="M63 -207q-27 -9 -51 -9q-37 0 -59.5 20.5t-22.5 56.5q0 26 10 48t25.5 39t34 30t35.5 22l84 477h65l-84 -477q-46 -31 -77.5 -62t-31.5 -74q0 -34 36 -34q13 0 30 5zM130 618q0 20 13.5 35.5t38.5 15.5q20 0 31 -11t11 -29q0 -22 -15 -36.5t-38 -14.5q-19 0 -30 11.5
t-11 28.5z" />
    <glyph glyph-name="Idotaccent" unicode="&#x130;" horiz-adv-x="246" 
d="M111 0h-66l117 666h66zM169 785q0 20 13.5 35.5t38.5 15.5q20 0 31 -11t11 -29q0 -22 -15 -36.5t-38 -14.5q-19 0 -30 11.5t-11 28.5z" />
    <glyph glyph-name="dotlessi" unicode="&#x131;" horiz-adv-x="225" 
d="M35 0l84 477h65l-84 -477h-65z" />
    <glyph glyph-name="IJ" unicode="&#x132;" horiz-adv-x="488" 
d="M111 0h-66l117 666h66zM393 188q-9 -53 -24 -98.5t-39 -87t-59 -80t-86 -75.5l-36 45q39 30 69 62t51.5 68t35.5 76.5t22 88.5l84 479h66z" />
    <glyph glyph-name="ij" unicode="&#x133;" horiz-adv-x="451" 
d="M35 0l84 477h65l-84 -477h-65zM130 618q0 20 13.5 35.5t38.5 15.5q20 0 31 -11t11 -29q0 -22 -15 -36.5t-38 -14.5q-19 0 -30 11.5t-11 28.5zM351 119q-10 -58 -28.5 -107t-47 -90t-69 -75.5t-95.5 -62.5l-29 47q44 25 78 53t59 62.5t41.5 77t25.5 95.5l63 358h65z
M360 618q0 20 13.5 35.5t38.5 15.5q20 0 31 -11t11 -29q0 -22 -15 -36.5t-38 -14.5q-19 0 -30 11.5t-11 28.5z" />
    <glyph glyph-name="Jcircumflex" unicode="&#x134;" horiz-adv-x="242" 
d="M147 188q-9 -53 -24 -98.5t-39 -87t-59 -80t-86 -75.5l-36 45q39 30 69 62t51.5 68t35.5 76.5t22 88.5l84 479h66zM332 730h-62l-54 79l-78 -79h-67l113 111h69z" />
    <glyph glyph-name="jcircumflex" unicode="&#x135;" horiz-adv-x="226" 
d="M126 119q-10 -58 -28.5 -107t-47 -90t-69 -75.5t-95.5 -62.5l-29 47q44 25 78 53t59 62.5t41.5 77t25.5 95.5l63 358h65zM304 554h-62l-54 117l-94 -117h-66l130 156h66z" />
    <glyph glyph-name="Kcommaaccent" unicode="&#x136;" 
d="M40 0l117 666h66l-56 -321l331 321h87l-346 -333l270 -333h-83l-261 334l-59 -334h-66zM166 -225q25 41 37.5 76.5t19.5 75.5l64 -11q-10 -50 -29.5 -91.5t-47.5 -74.5z" />
    <glyph glyph-name="kcommaaccent" unicode="&#x137;" horiz-adv-x="451" 
d="M35 0l124 706h65l-80 -456l231 227h86l-248 -241q38 -62 88 -121t117 -115h-91q-28 25 -54.5 54.5t-50.5 60.5t-44.5 62.5t-35.5 60.5l-42 -238h-65zM115 -225q25 41 37.5 76.5t19.5 75.5l64 -11q-10 -50 -29.5 -91.5t-47.5 -74.5z" />
    <glyph glyph-name="kgreenlandic" unicode="&#x138;" horiz-adv-x="451" 
d="M35 0l84 477h65l-40 -227l231 227h86l-248 -241q38 -62 88 -121t117 -115h-91q-28 25 -54.5 54.5t-50.5 60.5t-44.5 62.5t-35.5 60.5l-42 -238h-65z" />
    <glyph glyph-name="Lacute" unicode="&#x139;" horiz-adv-x="449" 
d="M223 666l-107 -611h273l-10 -55h-339l117 666h66zM166 730l99 111h85l-126 -111h-58z" />
    <glyph glyph-name="lacute" unicode="&#x13a;" horiz-adv-x="225" 
d="M35 0l124 706h65l-124 -706h-65zM169 750l99 111h85l-126 -111h-58z" />
    <glyph glyph-name="Lcommaaccent" unicode="&#x13b;" horiz-adv-x="449" 
d="M223 666l-107 -611h273l-10 -55h-339l117 666h66zM98 -225q25 41 37.5 76.5t19.5 75.5l64 -11q-10 -50 -29.5 -91.5t-47.5 -74.5z" />
    <glyph glyph-name="lcommaaccent" unicode="&#x13c;" horiz-adv-x="225" 
d="M35 0l124 706h65l-124 -706h-65zM-35 -225q25 41 37.5 76.5t19.5 75.5l64 -11q-10 -50 -29.5 -91.5t-47.5 -74.5z" />
    <glyph glyph-name="Lcaron" unicode="&#x13d;" horiz-adv-x="449" 
d="M223 666l-107 -611h273l-10 -55h-339l117 666h66zM303 477q30 45 48.5 92t29.5 97l60 -10q-14 -63 -36.5 -111t-59.5 -96z" />
    <glyph glyph-name="lcaron" unicode="&#x13e;" horiz-adv-x="314" 
d="M35 0l124 706h65l-124 -706h-65zM256 517q30 45 48.5 92t29.5 97l60 -10q-14 -63 -36.5 -111t-59.5 -96z" />
    <glyph glyph-name="Ldot" unicode="&#x13f;" horiz-adv-x="449" 
d="M223 666l-107 -611h273l-10 -55h-339l117 666h66zM276 318q0 24 15 38.5t39 14.5q20 0 31.5 -12.5t11.5 -30.5q0 -21 -14 -37t-40 -16q-20 0 -31.5 12.5t-11.5 30.5z" />
    <glyph glyph-name="ldot" unicode="&#x140;" horiz-adv-x="342" 
d="M35 0l124 706h65l-124 -706h-65zM235 283q0 24 15 38.5t39 14.5q20 0 31.5 -12.5t11.5 -30.5q0 -21 -14 -37t-40 -16q-20 0 -31.5 12.5t-11.5 30.5z" />
    <glyph glyph-name="Lslash" unicode="&#x141;" horiz-adv-x="459" 
d="M174 328l-48 -273h273l-10 -55h-339l52 295l-75 -34l-17 46l102 46l55 313h66l-49 -280l198 91l18 -45z" />
    <glyph glyph-name="lslash" unicode="&#x142;" horiz-adv-x="240" 
d="M40 0l62 355l-54 -25l-19 45l83 38l52 293h65l-46 -260l68 31l18 -45l-96 -44l-68 -388h-65z" />
    <glyph glyph-name="Nacute" unicode="&#x143;" horiz-adv-x="687" 
d="M493 0l-290 567l-100 -567h-63l117 666h63l291 -567l100 567h63l-117 -666h-64zM352 730l99 111h85l-126 -111h-58z" />
    <glyph glyph-name="nacute" unicode="&#x144;" horiz-adv-x="534" 
d="M35 0l84 477h63l-24 -136q15 28 33.5 54.5t41.5 47t50.5 32.5t60.5 12q31 0 54 -12.5t38 -34t22 -51.5t7 -65q0 -17 -1.5 -36t-5.5 -39l-44 -249h-65l43 244q7 38 7 76q0 48 -16 80.5t-56 32.5q-26 0 -51.5 -15.5t-48.5 -41t-44 -58.5t-39 -68l-44 -250h-65zM255 554
l98 156h79l-119 -156h-58z" />
    <glyph glyph-name="Ncommaaccent" unicode="&#x145;" horiz-adv-x="687" 
d="M493 0l-290 567l-100 -567h-63l117 666h63l291 -567l100 567h63l-117 -666h-64zM195 -225q25 41 37.5 76.5t19.5 75.5l64 -11q-10 -50 -29.5 -91.5t-47.5 -74.5z" />
    <glyph glyph-name="ncommaaccent" unicode="&#x146;" horiz-adv-x="534" 
d="M35 0l84 477h63l-24 -136q15 28 33.5 54.5t41.5 47t50.5 32.5t60.5 12q31 0 54 -12.5t38 -34t22 -51.5t7 -65q0 -17 -1.5 -36t-5.5 -39l-44 -249h-65l43 244q7 38 7 76q0 48 -16 80.5t-56 32.5q-26 0 -51.5 -15.5t-48.5 -41t-44 -58.5t-39 -68l-44 -250h-65zM131 -225
q25 41 37.5 76.5t19.5 75.5l64 -11q-10 -50 -29.5 -91.5t-47.5 -74.5z" />
    <glyph glyph-name="Ncaron" unicode="&#x147;" horiz-adv-x="687" 
d="M493 0l-290 567l-100 -567h-63l117 666h63l291 -567l100 567h63l-117 -666h-64zM305 841h62l54 -79l78 79h67l-113 -111h-69z" />
    <glyph glyph-name="ncaron" unicode="&#x148;" horiz-adv-x="534" 
d="M35 0l84 477h63l-24 -136q15 28 33.5 54.5t41.5 47t50.5 32.5t60.5 12q31 0 54 -12.5t38 -34t22 -51.5t7 -65q0 -17 -1.5 -36t-5.5 -39l-44 -249h-65l43 244q7 38 7 76q0 48 -16 80.5t-56 32.5q-26 0 -51.5 -15.5t-48.5 -41t-44 -58.5t-39 -68l-44 -250h-65zM201 710h62
l54 -117l94 117h66l-130 -156h-66z" />
    <glyph glyph-name="napostrophe" unicode="&#x149;" horiz-adv-x="571" 
d="M72 0l84 477h63l-24 -136q15 28 33.5 54.5t41.5 47t50.5 32.5t60.5 12q31 0 54 -12.5t38 -34t22 -51.5t7 -65q0 -17 -1.5 -36t-5.5 -39l-44 -249h-65l43 244q7 38 7 76q0 48 -16 80.5t-56 32.5q-26 0 -51.5 -15.5t-48.5 -41t-44 -58.5t-39 -68l-44 -250h-65zM15 517
q30 45 48.5 92t29.5 97l60 -10q-14 -63 -36.5 -111t-59.5 -96z" />
    <glyph glyph-name="Eng" unicode="&#x14a;" horiz-adv-x="687" 
d="M573 91q-11 -59 -30.5 -105t-50 -83t-73 -66t-97.5 -53l-24 49q62 29 110.5 68t80.5 108l-286 558l-100 -567h-63l117 666h63l291 -567l100 567h63z" />
    <glyph glyph-name="eng" unicode="&#x14b;" horiz-adv-x="534" 
d="M392 244q7 38 7 76q0 48 -16 80.5t-56 32.5q-26 0 -51.5 -15.5t-48.5 -41t-44 -58.5t-39 -68l-44 -250h-65l84 477h63l-24 -136q15 28 33.5 54.5t41.5 47t50.5 32.5t60.5 12q31 0 54 -12.5t38 -34t22 -51.5t7 -65q0 -17 -1.5 -36t-5.5 -39l-28 -158q-19 -107 -74.5 -185
t-160.5 -122l-23 49q85 42 130.5 103t62.5 155z" />
    <glyph glyph-name="Omacron" unicode="&#x14c;" horiz-adv-x="724" 
d="M692 393q0 -78 -25 -151t-71.5 -129.5t-112.5 -90.5t-148 -34q-67 0 -118.5 23t-87 62t-53.5 90.5t-18 107.5q0 84 24.5 158t71 129.5t113 87.5t149.5 32q64 0 115.5 -21.5t87 -60t54.5 -90.5t19 -113zM340 42q64 0 117 29t90.5 77t58 111t20.5 131q0 51 -15.5 94
t-43.5 74t-67.5 48.5t-88.5 17.5q-70 0 -123.5 -30t-90 -79.5t-55 -112.5t-18.5 -128q0 -54 15 -97t43 -73t68 -46t90 -16zM311 817h273l-9 -51h-273z" />
    <glyph glyph-name="omacron" unicode="&#x14d;" horiz-adv-x="508" 
d="M471 293q0 -53 -17 -107t-49.5 -97.5t-80 -71t-108.5 -27.5q-44 0 -77 15t-55.5 41.5t-34 61.5t-11.5 74q0 56 16.5 110.5t48.5 98t79 70t109 26.5q45 0 78.5 -15.5t56 -42t34 -61.5t11.5 -75zM221 42q43 0 77 22t58 57t37 79.5t13 88.5q0 30 -7 56.5t-22 46.5t-38 31.5
t-54 11.5q-42 0 -75.5 -21t-57.5 -56.5t-36.5 -80.5t-12.5 -93q0 -30 6.5 -55.5t20.5 -45t36.5 -30.5t54.5 -11zM197 651h256l-9 -53h-256z" />
    <glyph glyph-name="Obreve" unicode="&#x14e;" horiz-adv-x="724" 
d="M692 393q0 -78 -25 -151t-71.5 -129.5t-112.5 -90.5t-148 -34q-67 0 -118.5 23t-87 62t-53.5 90.5t-18 107.5q0 84 24.5 158t71 129.5t113 87.5t149.5 32q64 0 115.5 -21.5t87 -60t54.5 -90.5t19 -113zM340 42q64 0 117 29t90.5 77t58 111t20.5 131q0 51 -15.5 94
t-43.5 74t-67.5 48.5t-88.5 17.5q-70 0 -123.5 -30t-90 -79.5t-55 -112.5t-18.5 -128q0 -54 15 -97t43 -73t68 -46t90 -16zM577 825q-22 -48 -56 -71.5t-79 -23.5q-48 0 -77.5 27.5t-37.5 75.5l48 14q6 -35 23 -53.5t48 -18.5t51.5 18.5t37.5 53.5z" />
    <glyph glyph-name="obreve" unicode="&#x14f;" horiz-adv-x="508" 
d="M471 293q0 -53 -17 -107t-49.5 -97.5t-80 -71t-108.5 -27.5q-44 0 -77 15t-55.5 41.5t-34 61.5t-11.5 74q0 56 16.5 110.5t48.5 98t79 70t109 26.5q45 0 78.5 -15.5t56 -42t34 -61.5t11.5 -75zM221 42q43 0 77 22t58 57t37 79.5t13 88.5q0 30 -7 56.5t-22 46.5t-38 31.5
t-54 11.5q-42 0 -75.5 -21t-57.5 -56.5t-36.5 -80.5t-12.5 -93q0 -30 6.5 -55.5t20.5 -45t36.5 -30.5t54.5 -11zM470 677q-24 -60 -57.5 -91.5t-90.5 -31.5t-88 36.5t-31 93.5l49 9q2 -46 19.5 -69t54.5 -23t59.5 27t37.5 69z" />
    <glyph glyph-name="Ohungarumlaut" unicode="&#x150;" horiz-adv-x="724" 
d="M692 393q0 -78 -25 -151t-71.5 -129.5t-112.5 -90.5t-148 -34q-67 0 -118.5 23t-87 62t-53.5 90.5t-18 107.5q0 84 24.5 158t71 129.5t113 87.5t149.5 32q64 0 115.5 -21.5t87 -60t54.5 -90.5t19 -113zM340 42q64 0 117 29t90.5 77t58 111t20.5 131q0 51 -15.5 94
t-43.5 74t-67.5 48.5t-88.5 17.5q-70 0 -123.5 -30t-90 -79.5t-55 -112.5t-18.5 -128q0 -54 15 -97t43 -73t68 -46t90 -16zM319 730l62 111h74l-80 -111h-56zM495 730l62 111h74l-80 -111h-56z" />
    <glyph glyph-name="ohungarumlaut" unicode="&#x151;" horiz-adv-x="508" 
d="M471 293q0 -53 -17 -107t-49.5 -97.5t-80 -71t-108.5 -27.5q-44 0 -77 15t-55.5 41.5t-34 61.5t-11.5 74q0 56 16.5 110.5t48.5 98t79 70t109 26.5q45 0 78.5 -15.5t56 -42t34 -61.5t11.5 -75zM221 42q43 0 77 22t58 57t37 79.5t13 88.5q0 30 -7 56.5t-22 46.5t-38 31.5
t-54 11.5q-42 0 -75.5 -21t-57.5 -56.5t-36.5 -80.5t-12.5 -93q0 -30 6.5 -55.5t20.5 -45t36.5 -30.5t54.5 -11zM199 554l80 156h74l-99 -156h-55zM372 554l80 156h74l-99 -156h-55z" />
    <glyph glyph-name="OE" unicode="&#x152;" horiz-adv-x="937" 
d="M486 0q-14 -3 -31 -5.5t-34.5 -4t-34 -2t-28.5 -0.5q-74 0 -130 23t-94 62t-57.5 92t-19.5 113q0 90 25.5 163.5t74 126t119.5 81.5t162 29q45 0 87 -3.5t79 -8.5h351l-10 -55h-285l-43 -243h273l-9 -55h-273l-46 -259h288l-9 -54h-355zM374 42q28 0 63.5 3.5t57.5 9.5
l99 557q-31 5 -73.5 8.5t-78.5 3.5q-77 0 -136.5 -25t-100 -70t-61.5 -108t-21 -140q0 -112 63 -175.5t188 -63.5z" />
    <glyph glyph-name="oe" unicode="&#x153;" horiz-adv-x="796" 
d="M651 487q55 0 90.5 -29t35.5 -78q0 -50 -32 -82t-80 -50.5t-103 -26t-101 -9.5q-2 -9 -2.5 -20.5t-0.5 -21.5q0 -27 6 -50.5t19.5 -40.5t35.5 -27t53 -10q35 0 68 10t63 27l13 -49q-32 -19 -69.5 -29.5t-79.5 -10.5q-34 0 -61 9.5t-47 26t-33 37.5t-18 44
q-34 -52 -82 -84.5t-112 -32.5q-44 0 -77 15.5t-55 42.5t-33 62.5t-11 74.5q0 57 16.5 111.5t49 97t79.5 68t107 25.5q61 0 103 -32.5t58 -88.5q33 55 81.5 88t118.5 33zM219 42q42 0 76 22.5t58.5 58.5t38 80t13.5 86q0 30 -7.5 56.5t-22.5 46.5t-38 31.5t-53 11.5
q-42 0 -75.5 -20.5t-57 -55t-36.5 -80t-13 -95.5q0 -29 6 -55t20 -45.5t36.5 -30.5t54.5 -11zM643 437q-34 0 -63 -15t-51.5 -39.5t-37.5 -56t-21 -63.5q35 1 77.5 6t79.5 17.5t62 34t25 56.5q0 26 -18 43t-53 17z" />
    <glyph glyph-name="Racute" unicode="&#x154;" horiz-adv-x="554" 
d="M519 500q0 -46 -18 -82t-47.5 -62.5t-67 -43.5t-77.5 -24l185 -288h-76l-173 279q-11 -2 -23 -2h-23h-44l-49 -277h-66l117 666h167q43 0 79 -12t61.5 -34t40 -52.5t14.5 -67.5zM213 331q46 0 89.5 9.5t77 29t53.5 50.5t20 75q0 59 -40.5 88t-100.5 29h-98l-50 -281h49z
M261 730l99 111h85l-126 -111h-58z" />
    <glyph glyph-name="racute" unicode="&#x155;" horiz-adv-x="327" 
d="M338 420q-5 1 -13 1q-63 0 -106.5 -48t-75.5 -130l-43 -243h-65l84 477h64l-26 -149q10 32 24.5 59.5t34.5 48t45 32t57 11.5q7 0 16 -0.5t14 -2.5zM183 554l98 156h79l-119 -156h-58z" />
    <glyph glyph-name="Rcommaaccent" unicode="&#x156;" horiz-adv-x="554" 
d="M519 500q0 -46 -18 -82t-47.5 -62.5t-67 -43.5t-77.5 -24l185 -288h-76l-173 279q-11 -2 -23 -2h-23h-44l-49 -277h-66l117 666h167q43 0 79 -12t61.5 -34t40 -52.5t14.5 -67.5zM213 331q46 0 89.5 9.5t77 29t53.5 50.5t20 75q0 59 -40.5 88t-100.5 29h-98l-50 -281h49z
M152 -225q25 41 37.5 76.5t19.5 75.5l64 -11q-10 -50 -29.5 -91.5t-47.5 -74.5z" />
    <glyph glyph-name="rcommaaccent" unicode="&#x157;" horiz-adv-x="327" 
d="M338 420q-5 1 -13 1q-63 0 -106.5 -48t-75.5 -130l-43 -243h-65l84 477h64l-26 -149q10 32 24.5 59.5t34.5 48t45 32t57 11.5q7 0 16 -0.5t14 -2.5zM-35 -225q25 41 37.5 76.5t19.5 75.5l64 -11q-10 -50 -29.5 -91.5t-47.5 -74.5z" />
    <glyph glyph-name="Rcaron" unicode="&#x158;" horiz-adv-x="554" 
d="M519 500q0 -46 -18 -82t-47.5 -62.5t-67 -43.5t-77.5 -24l185 -288h-76l-173 279q-11 -2 -23 -2h-23h-44l-49 -277h-66l117 666h167q43 0 79 -12t61.5 -34t40 -52.5t14.5 -67.5zM213 331q46 0 89.5 9.5t77 29t53.5 50.5t20 75q0 59 -40.5 88t-100.5 29h-98l-50 -281h49z
M208 841h62l54 -79l78 79h67l-113 -111h-69z" />
    <glyph glyph-name="rcaron" unicode="&#x159;" horiz-adv-x="327" 
d="M338 420q-5 1 -13 1q-63 0 -106.5 -48t-75.5 -130l-43 -243h-65l84 477h64l-26 -149q10 32 24.5 59.5t34.5 48t45 32t57 11.5q7 0 16 -0.5t14 -2.5zM118 710h62l54 -117l94 117h66l-130 -156h-66z" />
    <glyph glyph-name="Sacute" unicode="&#x15a;" horiz-adv-x="474" 
d="M416 170q0 -41 -16 -74.5t-45 -57.5t-68.5 -37t-86.5 -13q-44 0 -92 9.5t-86 26.5l15 55q38 -17 79.5 -27t83.5 -10q67 0 108.5 30.5t41.5 93.5q0 24 -9.5 46t-25.5 42t-38 39t-46 39q-30 24 -54 45t-41 42t-26 44t-9 50q0 40 14 71t39.5 52t60.5 31.5t77 10.5
q53 0 95.5 -11.5t80.5 -33.5l-16 -54q-38 20 -76.5 32.5t-80.5 12.5q-54 0 -91 -25t-37 -81q0 -20 7 -37t20.5 -33t32 -32.5t42.5 -34.5q22 -17 48 -38t48 -47t36.5 -57t14.5 -69zM243 730l99 111h85l-126 -111h-58z" />
    <glyph glyph-name="sacute" unicode="&#x15b;" horiz-adv-x="396" 
d="M335 129q0 -32 -12.5 -57.5t-35 -43.5t-54 -28t-68.5 -10q-39 0 -77 9t-64 20l15 53q28 -13 60 -21.5t63 -8.5q47 0 78 19t31 61q0 32 -24.5 55.5t-59.5 46.5q-21 13 -40.5 27.5t-34.5 31t-24 36t-9 42.5q0 63 43 94.5t111 31.5q39 0 73.5 -8.5t61.5 -23.5l-14 -53
q-31 16 -60.5 24.5t-61.5 8.5q-37 0 -63 -15t-26 -53q0 -29 19 -47.5t57 -43.5q18 -12 38.5 -26.5t37.5 -32.5t28.5 -39.5t11.5 -48.5zM194 554l98 156h79l-119 -156h-58z" />
    <glyph glyph-name="Scircumflex" unicode="&#x15c;" horiz-adv-x="474" 
d="M416 170q0 -41 -16 -74.5t-45 -57.5t-68.5 -37t-86.5 -13q-44 0 -92 9.5t-86 26.5l15 55q38 -17 79.5 -27t83.5 -10q67 0 108.5 30.5t41.5 93.5q0 24 -9.5 46t-25.5 42t-38 39t-46 39q-30 24 -54 45t-41 42t-26 44t-9 50q0 40 14 71t39.5 52t60.5 31.5t77 10.5
q53 0 95.5 -11.5t80.5 -33.5l-16 -54q-38 20 -76.5 32.5t-80.5 12.5q-54 0 -91 -25t-37 -81q0 -20 7 -37t20.5 -33t32 -32.5t42.5 -34.5q22 -17 48 -38t48 -47t36.5 -57t14.5 -69zM438 730h-62l-54 79l-78 -79h-67l113 111h69z" />
    <glyph glyph-name="scircumflex" unicode="&#x15d;" horiz-adv-x="396" 
d="M335 129q0 -32 -12.5 -57.5t-35 -43.5t-54 -28t-68.5 -10q-39 0 -77 9t-64 20l15 53q28 -13 60 -21.5t63 -8.5q47 0 78 19t31 61q0 32 -24.5 55.5t-59.5 46.5q-21 13 -40.5 27.5t-34.5 31t-24 36t-9 42.5q0 63 43 94.5t111 31.5q39 0 73.5 -8.5t61.5 -23.5l-14 -53
q-31 16 -60.5 24.5t-61.5 8.5q-37 0 -63 -15t-26 -53q0 -29 19 -47.5t57 -43.5q18 -12 38.5 -26.5t37.5 -32.5t28.5 -39.5t11.5 -48.5zM382 554h-62l-54 117l-94 -117h-66l130 156h66z" />
    <glyph glyph-name="Scedilla" unicode="&#x15e;" horiz-adv-x="474" 
d="M273 -120q0 -23 -11 -39t-31 -27.5t-47 -18.5t-59 -11l-8 44q15 3 32 6t31 8.5t23.5 14t9.5 21.5q0 11 -8 18t-20 11t-26.5 6.5t-27.5 5.5l29 71q-36 4 -72 12t-66 22l15 55q38 -17 79.5 -27t83.5 -10q67 0 108.5 30.5t41.5 93.5q0 24 -9.5 46t-25.5 42t-38 39t-46 39
q-30 24 -54 45t-41 42t-26 44t-9 50q0 40 14 71t39.5 52t60.5 31.5t77 10.5q53 0 95.5 -11.5t80.5 -33.5l-16 -54q-38 20 -76.5 32.5t-80.5 12.5q-54 0 -91 -25t-37 -81q0 -20 7 -37t20.5 -33t32 -32.5t42.5 -34.5q22 -17 48 -38t48 -47t36.5 -57t14.5 -69
q0 -40 -15.5 -72.5t-43 -56.5t-65.5 -38t-83 -15l-16 -41q13 -2 27 -6.5t26 -12t19.5 -19t7.5 -29.5z" />
    <glyph glyph-name="Scedilla" unicode="&#xf6c1;" horiz-adv-x="474" 
d="M273 -120q0 -23 -11 -39t-31 -27.5t-47 -18.5t-59 -11l-8 44q15 3 32 6t31 8.5t23.5 14t9.5 21.5q0 11 -8 18t-20 11t-26.5 6.5t-27.5 5.5l29 71q-36 4 -72 12t-66 22l15 55q38 -17 79.5 -27t83.5 -10q67 0 108.5 30.5t41.5 93.5q0 24 -9.5 46t-25.5 42t-38 39t-46 39
q-30 24 -54 45t-41 42t-26 44t-9 50q0 40 14 71t39.5 52t60.5 31.5t77 10.5q53 0 95.5 -11.5t80.5 -33.5l-16 -54q-38 20 -76.5 32.5t-80.5 12.5q-54 0 -91 -25t-37 -81q0 -20 7 -37t20.5 -33t32 -32.5t42.5 -34.5q22 -17 48 -38t48 -47t36.5 -57t14.5 -69
q0 -40 -15.5 -72.5t-43 -56.5t-65.5 -38t-83 -15l-16 -41q13 -2 27 -6.5t26 -12t19.5 -19t7.5 -29.5z" />
    <glyph glyph-name="scedilla" unicode="&#x15f;" horiz-adv-x="396" 
d="M232 -120q0 -23 -11 -39t-31 -27.5t-47 -18.5t-59 -11l-8 44q15 3 32 6t31 8.5t23.5 14t9.5 21.5q0 11 -8 18t-20 11t-26.5 6.5t-27.5 5.5l31 74q-29 4 -54 11t-43 15l15 53q28 -13 60 -21.5t63 -8.5q47 0 78 19t31 61q0 32 -24.5 55.5t-59.5 46.5q-21 13 -40.5 27.5
t-34.5 31t-24 36t-9 42.5q0 63 43 94.5t111 31.5q39 0 73.5 -8.5t61.5 -23.5l-14 -53q-31 16 -60.5 24.5t-61.5 8.5q-37 0 -63 -15t-26 -53q0 -29 19 -47.5t57 -43.5q18 -12 38.5 -26.5t37.5 -32.5t28.5 -39.5t11.5 -48.5q0 -63 -46.5 -100t-119.5 -39l-17 -43
q13 -2 27 -6.5t26 -12t19.5 -19t7.5 -29.5z" />
    <glyph glyph-name="scedilla" unicode="&#xf6c2;" horiz-adv-x="396" 
d="M232 -120q0 -23 -11 -39t-31 -27.5t-47 -18.5t-59 -11l-8 44q15 3 32 6t31 8.5t23.5 14t9.5 21.5q0 11 -8 18t-20 11t-26.5 6.5t-27.5 5.5l31 74q-29 4 -54 11t-43 15l15 53q28 -13 60 -21.5t63 -8.5q47 0 78 19t31 61q0 32 -24.5 55.5t-59.5 46.5q-21 13 -40.5 27.5
t-34.5 31t-24 36t-9 42.5q0 63 43 94.5t111 31.5q39 0 73.5 -8.5t61.5 -23.5l-14 -53q-31 16 -60.5 24.5t-61.5 8.5q-37 0 -63 -15t-26 -53q0 -29 19 -47.5t57 -43.5q18 -12 38.5 -26.5t37.5 -32.5t28.5 -39.5t11.5 -48.5q0 -63 -46.5 -100t-119.5 -39l-17 -43
q13 -2 27 -6.5t26 -12t19.5 -19t7.5 -29.5z" />
    <glyph glyph-name="Scaron" unicode="&#x160;" horiz-adv-x="474" 
d="M416 170q0 -41 -16 -74.5t-45 -57.5t-68.5 -37t-86.5 -13q-44 0 -92 9.5t-86 26.5l15 55q38 -17 79.5 -27t83.5 -10q67 0 108.5 30.5t41.5 93.5q0 24 -9.5 46t-25.5 42t-38 39t-46 39q-30 24 -54 45t-41 42t-26 44t-9 50q0 40 14 71t39.5 52t60.5 31.5t77 10.5
q53 0 95.5 -11.5t80.5 -33.5l-16 -54q-38 20 -76.5 32.5t-80.5 12.5q-54 0 -91 -25t-37 -81q0 -20 7 -37t20.5 -33t32 -32.5t42.5 -34.5q22 -17 48 -38t48 -47t36.5 -57t14.5 -69zM192 841h62l54 -79l78 79h67l-113 -111h-69z" />
    <glyph glyph-name="scaron" unicode="&#x161;" horiz-adv-x="396" 
d="M335 129q0 -32 -12.5 -57.5t-35 -43.5t-54 -28t-68.5 -10q-39 0 -77 9t-64 20l15 53q28 -13 60 -21.5t63 -8.5q47 0 78 19t31 61q0 32 -24.5 55.5t-59.5 46.5q-21 13 -40.5 27.5t-34.5 31t-24 36t-9 42.5q0 63 43 94.5t111 31.5q39 0 73.5 -8.5t61.5 -23.5l-14 -53
q-31 16 -60.5 24.5t-61.5 8.5q-37 0 -63 -15t-26 -53q0 -29 19 -47.5t57 -43.5q18 -12 38.5 -26.5t37.5 -32.5t28.5 -39.5t11.5 -48.5zM129 710h62l54 -117l94 117h66l-130 -156h-66z" />
    <glyph glyph-name="Tcommaaccent" unicode="&#x162;" horiz-adv-x="492" 
d="M538 666l-9 -54h-186l-108 -612h-66l108 612h-186l9 54h438zM100 -225q25 41 37.5 76.5t19.5 75.5l64 -11q-10 -50 -29.5 -91.5t-47.5 -74.5z" />
    <glyph glyph-name="Tcommaaccent" unicode="&#x21a;" horiz-adv-x="492" 
d="M538 666l-9 -54h-186l-108 -612h-66l108 612h-186l9 54h438zM100 -225q25 41 37.5 76.5t19.5 75.5l64 -11q-10 -50 -29.5 -91.5t-47.5 -74.5z" />
    <glyph glyph-name="tcommaaccent" unicode="&#x163;" horiz-adv-x="366" 
d="M55 477h89l23 129h65l-23 -129h158l-9 -53h-158l-49 -278q-2 -8 -3 -18t-1 -18q0 -32 14 -49.5t51 -17.5q26 0 50.5 6.5t44.5 14.5l6 -49q-20 -11 -50.5 -18t-59.5 -7q-62 0 -91.5 31.5t-29.5 86.5q0 11 1 20.5t3 17.5l49 278h-90zM94 -225q25 41 37.5 76.5t19.5 75.5
l64 -11q-10 -50 -29.5 -91.5t-47.5 -74.5z" />
    <glyph glyph-name="tcommaaccent" unicode="&#x21b;" horiz-adv-x="366" 
d="M55 477h89l23 129h65l-23 -129h158l-9 -53h-158l-49 -278q-2 -8 -3 -18t-1 -18q0 -32 14 -49.5t51 -17.5q26 0 50.5 6.5t44.5 14.5l6 -49q-20 -11 -50.5 -18t-59.5 -7q-62 0 -91.5 31.5t-29.5 86.5q0 11 1 20.5t3 17.5l49 278h-90zM94 -225q25 41 37.5 76.5t19.5 75.5
l64 -11q-10 -50 -29.5 -91.5t-47.5 -74.5z" />
    <glyph glyph-name="Tcaron" unicode="&#x164;" horiz-adv-x="492" 
d="M538 666l-9 -54h-186l-108 -612h-66l108 612h-186l9 54h438zM214 841h62l54 -79l78 79h67l-113 -111h-69z" />
    <glyph glyph-name="tcaron" unicode="&#x165;" horiz-adv-x="366" 
d="M55 477h89l23 129h65l-23 -129h158l-9 -53h-158l-49 -278q-2 -8 -3 -18t-1 -18q0 -32 14 -49.5t51 -17.5q26 0 50.5 6.5t44.5 14.5l6 -49q-20 -11 -50.5 -18t-59.5 -7q-62 0 -91.5 31.5t-29.5 86.5q0 11 1 20.5t3 17.5l49 278h-90zM305 595q24 38 39.5 73t22.5 80l59 -13
q-8 -48 -28.5 -89.5t-49.5 -78.5z" />
    <glyph glyph-name="Tbar" unicode="&#x166;" horiz-adv-x="492" 
d="M286 291l-51 -291h-66l51 291h-120l8 52h121l48 269h-186l9 54h438l-9 -54h-186l-48 -269h122l-8 -52h-123z" />
    <glyph glyph-name="tbar" unicode="&#x167;" horiz-adv-x="366" 
d="M22 275h86l27 149h-90l10 53h89l23 129h65l-23 -129h158l-9 -53h-158l-27 -149h139l-8 -49h-139l-14 -80q-2 -8 -3 -18t-1 -18q0 -32 14 -49.5t51 -17.5q26 0 50.5 6.5t44.5 14.5l6 -49q-20 -11 -50.5 -18t-59.5 -7q-62 0 -91.5 31.5t-29.5 86.5q0 11 1 20.5t3 17.5
l14 80h-87z" />
    <glyph glyph-name="Utilde" unicode="&#x168;" horiz-adv-x="664" 
d="M588 666h66l-76 -435q-9 -49 -29 -93t-54 -77.5t-81 -53t-110 -19.5q-53 0 -95 16t-71 44.5t-45 67.5t-16 85q0 26 4 49l74 416h66l-74 -420q-2 -12 -3 -23.5t-1 -23.5q0 -33 9.5 -62t29.5 -50t51.5 -33t75.5 -12q85 0 136 48.5t66 135.5zM495 735q-20 0 -38.5 8
t-39.5 18t-35 16.5t-28 6.5q-20 0 -31.5 -13t-27.5 -41l-40 22q12 24 22 40t21.5 26t25 14t31.5 4t36 -5t44 -19q20 -11 35 -17.5t28 -6.5q19 0 29 12.5t23 35.5l40 -21q-18 -41 -39 -60.5t-56 -19.5z" />
    <glyph glyph-name="utilde" unicode="&#x169;" horiz-adv-x="523" 
d="M482 477l-84 -477h-63l28 164q-12 -27 -30.5 -58t-42 -56.5t-52 -42.5t-60.5 -17t-54.5 12t-37 33t-21 50t-6.5 62q0 17 2 37t5 37l45 256h65l-46 -262q-4 -20 -5.5 -38t-1.5 -34q0 -100 68 -100q27 0 54 21t51.5 54.5t46 74.5t38.5 82l36 202h65zM390 575
q-17 0 -35.5 8.5t-35.5 18.5t-29 16t-24 6q-20 0 -32 -13t-29 -42l-39 23q12 24 22.5 40t22 26t25 14.5t32.5 4.5q20 0 36 -7t35 -18q17 -10 29 -17t24 -7q19 0 29.5 12.5t24.5 37.5l39 -22q-21 -41 -42 -61t-53 -20z" />
    <glyph glyph-name="Umacron" unicode="&#x16a;" horiz-adv-x="664" 
d="M588 666h66l-76 -435q-9 -49 -29 -93t-54 -77.5t-81 -53t-110 -19.5q-53 0 -95 16t-71 44.5t-45 67.5t-16 85q0 26 4 49l74 416h66l-74 -420q-2 -12 -3 -23.5t-1 -23.5q0 -33 9.5 -62t29.5 -50t51.5 -33t75.5 -12q85 0 136 48.5t66 135.5zM296 817h273l-9 -51h-273z" />
    <glyph glyph-name="umacron" unicode="&#x16b;" horiz-adv-x="523" 
d="M482 477l-84 -477h-63l28 164q-12 -27 -30.5 -58t-42 -56.5t-52 -42.5t-60.5 -17t-54.5 12t-37 33t-21 50t-6.5 62q0 17 2 37t5 37l45 256h65l-46 -262q-4 -20 -5.5 -38t-1.5 -34q0 -100 68 -100q27 0 54 21t51.5 54.5t46 74.5t38.5 82l36 202h65zM198 651h256l-9 -53
h-256z" />
    <glyph glyph-name="Ubreve" unicode="&#x16c;" horiz-adv-x="664" 
d="M588 666h66l-76 -435q-9 -49 -29 -93t-54 -77.5t-81 -53t-110 -19.5q-53 0 -95 16t-71 44.5t-45 67.5t-16 85q0 26 4 49l74 416h66l-74 -420q-2 -12 -3 -23.5t-1 -23.5q0 -33 9.5 -62t29.5 -50t51.5 -33t75.5 -12q85 0 136 48.5t66 135.5zM552 825q-22 -48 -56 -71.5
t-79 -23.5q-48 0 -77.5 27.5t-37.5 75.5l48 14q6 -35 23 -53.5t48 -18.5t51.5 18.5t37.5 53.5z" />
    <glyph glyph-name="ubreve" unicode="&#x16d;" horiz-adv-x="523" 
d="M482 477l-84 -477h-63l28 164q-12 -27 -30.5 -58t-42 -56.5t-52 -42.5t-60.5 -17t-54.5 12t-37 33t-21 50t-6.5 62q0 17 2 37t5 37l45 256h65l-46 -262q-4 -20 -5.5 -38t-1.5 -34q0 -100 68 -100q27 0 54 21t51.5 54.5t46 74.5t38.5 82l36 202h65zM468 677
q-24 -60 -57.5 -91.5t-90.5 -31.5t-88 36.5t-31 93.5l49 9q2 -46 19.5 -69t54.5 -23t59.5 27t37.5 69z" />
    <glyph glyph-name="Uring" unicode="&#x16e;" horiz-adv-x="664" 
d="M588 666h66l-76 -435q-9 -49 -29 -93t-54 -77.5t-81 -53t-110 -19.5q-53 0 -95 16t-71 44.5t-45 67.5t-16 85q0 26 4 49l74 416h66l-74 -420q-2 -12 -3 -23.5t-1 -23.5q0 -33 9.5 -62t29.5 -50t51.5 -33t75.5 -12q85 0 136 48.5t66 135.5zM510 822q0 -19 -7.5 -35.5
t-20 -29t-30.5 -20t-39 -7.5q-35 0 -54 19.5t-19 48.5q0 42 26.5 67t68.5 25q35 0 55 -19t20 -49zM432 857q-25 0 -39.5 -16t-14.5 -41q0 -16 9.5 -26.5t29.5 -10.5q23 0 38.5 17t15.5 41q0 17 -10 26.5t-29 9.5z" />
    <glyph glyph-name="uring" unicode="&#x16f;" horiz-adv-x="523" 
d="M482 477l-84 -477h-63l28 164q-12 -27 -30.5 -58t-42 -56.5t-52 -42.5t-60.5 -17t-54.5 12t-37 33t-21 50t-6.5 62q0 17 2 37t5 37l45 256h65l-46 -262q-4 -20 -5.5 -38t-1.5 -34q0 -100 68 -100q27 0 54 21t51.5 54.5t46 74.5t38.5 82l36 202h65zM411 646
q0 -19 -7.5 -35.5t-20 -29t-30.5 -20t-39 -7.5q-35 0 -54 19.5t-19 48.5q0 42 26.5 67t68.5 25q35 0 55 -19t20 -49zM333 681q-25 0 -39.5 -16t-14.5 -41q0 -16 9.5 -26.5t29.5 -10.5q23 0 38.5 17t15.5 41q0 17 -10 26.5t-29 9.5z" />
    <glyph glyph-name="Uhungarumlaut" unicode="&#x170;" horiz-adv-x="664" 
d="M588 666h66l-76 -435q-9 -49 -29 -93t-54 -77.5t-81 -53t-110 -19.5q-53 0 -95 16t-71 44.5t-45 67.5t-16 85q0 26 4 49l74 416h66l-74 -420q-2 -12 -3 -23.5t-1 -23.5q0 -33 9.5 -62t29.5 -50t51.5 -33t75.5 -12q85 0 136 48.5t66 135.5zM284 730l62 111h74l-80 -111
h-56zM460 730l62 111h74l-80 -111h-56z" />
    <glyph glyph-name="uhungarumlaut" unicode="&#x171;" horiz-adv-x="523" 
d="M482 477l-84 -477h-63l28 164q-12 -27 -30.5 -58t-42 -56.5t-52 -42.5t-60.5 -17t-54.5 12t-37 33t-21 50t-6.5 62q0 17 2 37t5 37l45 256h65l-46 -262q-4 -20 -5.5 -38t-1.5 -34q0 -100 68 -100q27 0 54 21t51.5 54.5t46 74.5t38.5 82l36 202h65zM187 554l80 156h74
l-99 -156h-55zM360 554l80 156h74l-99 -156h-55z" />
    <glyph glyph-name="Uogonek" unicode="&#x172;" horiz-adv-x="664" 
d="M385 -203q-29 -13 -71 -13q-38 0 -60 20t-22 53q0 25 9 45t24 36t34.5 28.5t40.5 23.5q-9 -1 -18 -1.5t-18 -0.5q-53 0 -95 16t-71 44.5t-45 67.5t-16 85q0 26 4 49l74 416h66l-74 -420q-2 -12 -3 -23.5t-1 -23.5q0 -33 9.5 -62t29.5 -50t51.5 -33t75.5 -12
q85 0 136 48.5t66 135.5l77 440h66l-76 -435q-13 -72 -44.5 -121t-85.5 -86q-29 -20 -56.5 -38t-49.5 -37t-35.5 -39.5t-13.5 -43.5q0 -17 9.5 -26.5t29.5 -9.5q24 0 45 9z" />
    <glyph glyph-name="uogonek" unicode="&#x173;" horiz-adv-x="523" 
d="M362 -203q-29 -13 -71 -13q-38 0 -60 20t-22 53q0 27 11 48.5t29 39t40.5 31t45.5 24.5l28 164q-12 -27 -30.5 -58t-42 -56.5t-52 -42.5t-60.5 -17t-54.5 12t-37 33t-21 50t-6.5 62q0 17 2 37t5 37l45 256h65l-46 -262q-4 -20 -5.5 -38t-1.5 -34q0 -100 68 -100
q27 0 54 21t51.5 54.5t46 74.5t38.5 82l36 202h65l-84 -477q-25 -17 -48 -32t-41 -31t-28.5 -33t-10.5 -38q0 -17 9.5 -26.5t29.5 -9.5q24 0 45 9z" />
    <glyph glyph-name="Wcircumflex" unicode="&#x174;" horiz-adv-x="916" 
d="M641 91l256 575h69l-306 -666h-68l-76 603l-278 -603h-68l-72 666h63l57 -575l267 575h80zM663 730h-62l-54 79l-78 -79h-67l113 111h69z" />
    <glyph glyph-name="wcircumflex" unicode="&#x175;" horiz-adv-x="695" 
d="M465 0l-90 423q-16 -52 -34.5 -101t-40.5 -100t-48 -105t-58 -117h-65q-13 137 -32 252t-48 225h61q24 -97 40 -203.5t24 -203.5q23 46 43.5 91t40.5 93.5t40 103t41 119.5h77l90 -407q45 92 76 190.5t41 216.5h62q-6 -65 -19 -124.5t-33 -117.5t-46.5 -116t-58.5 -119
h-63zM523 554h-62l-54 117l-94 -117h-66l130 156h66z" />
    <glyph glyph-name="Ycircumflex" unicode="&#x176;" horiz-adv-x="511" 
d="M292 261l-46 -261h-66l47 270l-147 396h68l122 -340l232 340h77zM463 730h-62l-54 79l-78 -79h-67l113 111h69z" />
    <glyph glyph-name="ycircumflex" unicode="&#x177;" horiz-adv-x="424" 
d="M255 23q-50 -72 -118.5 -133t-150.5 -106l-29 46q65 39 114.5 78.5t94.5 90.5q-20 128 -51 250t-73 228h65q16 -44 32 -95.5t30 -107t25.5 -112t19.5 -108.5q57 95 95.5 198.5t56.5 224.5h63q-8 -66 -27 -132t-43.5 -125t-51.5 -110t-52 -87zM392 554h-62l-54 117
l-94 -117h-66l130 156h66z" />
    <glyph glyph-name="Ydieresis" unicode="&#x178;" horiz-adv-x="511" 
d="M292 261l-46 -261h-66l47 270l-147 396h68l122 -340l232 340h77zM204 783q0 21 13.5 34.5t36.5 13.5q17 0 28 -10t11 -27q0 -23 -14.5 -36.5t-36.5 -13.5q-18 0 -28 11t-10 28zM386 783q0 21 13.5 34.5t36.5 13.5q17 0 28 -10t11 -27q0 -23 -14.5 -36.5t-36.5 -13.5
q-18 0 -28 11t-10 28z" />
    <glyph glyph-name="Zacute" unicode="&#x179;" horiz-adv-x="525" 
d="M137 666h413l-9 -54l-440 -558h351l-9 -54h-407l-8 54l439 558h-340zM275 730l99 111h85l-126 -111h-58z" />
    <glyph glyph-name="zacute" unicode="&#x17a;" horiz-adv-x="433" 
d="M28 0l-6 51l315 374h-249l9 52h321l-8 -52l-315 -373h265l-8 -52h-324zM219 554l98 156h79l-119 -156h-58z" />
    <glyph glyph-name="Zdotaccent" unicode="&#x17b;" horiz-adv-x="525" 
d="M137 666h413l-9 -54l-440 -558h351l-9 -54h-407l-8 54l439 558h-340zM302 785q0 20 13.5 35.5t38.5 15.5q20 0 31 -11t11 -29q0 -22 -15 -36.5t-38 -14.5q-19 0 -30 11.5t-11 28.5z" />
    <glyph glyph-name="zdotaccent" unicode="&#x17c;" horiz-adv-x="433" 
d="M28 0l-6 51l315 374h-249l9 52h321l-8 -52l-315 -373h265l-8 -52h-324zM229 618q0 20 13.5 35.5t38.5 15.5q20 0 31 -11t11 -29q0 -22 -15 -36.5t-38 -14.5q-19 0 -30 11.5t-11 28.5z" />
    <glyph glyph-name="Zcaron" unicode="&#x17d;" horiz-adv-x="525" 
d="M137 666h413l-9 -54l-440 -558h351l-9 -54h-407l-8 54l439 558h-340zM237 841h62l54 -79l78 79h67l-113 -111h-69z" />
    <glyph glyph-name="zcaron" unicode="&#x17e;" horiz-adv-x="433" 
d="M28 0l-6 51l315 374h-249l9 52h321l-8 -52l-315 -373h265l-8 -52h-324zM159 710h62l54 -117l94 117h66l-130 -156h-66z" />
    <glyph glyph-name="florin" unicode="&#x192;" horiz-adv-x="458" 
d="M66 358l12 51h108l13 47q17 63 37 105t45 67.5t56.5 36.5t72.5 11q21 0 40.5 -3.5t38.5 -11.5l-11 -51q-15 6 -32 9.5t-36 3.5q-27 0 -48.5 -7.5t-39 -26.5t-32 -52t-27.5 -83l-12 -45h135l-10 -51h-139l-37 -138q-18 -68 -37 -129.5t-45.5 -108t-65 -74t-96.5 -27.5
q-17 0 -37.5 3.5t-36.5 8.5l10 50q13 -4 29.5 -6.5t31.5 -2.5q39 0 65.5 20.5t47 58.5t36.5 91t34 119l37 135h-107z" />
    <glyph glyph-name="Aringacute" unicode="&#x1fa;" horiz-adv-x="639" 
d="M384 831l80 90h85l-107 -90h-58zM488 729q0 -29 -16.5 -51.5t-43.5 -33.5l138 -644h-67l-33 170h-314l-93 -170h-72l363 647q-32 18 -32 58q0 42 26.5 67t68.5 25q35 0 55 -19t20 -49zM181 225h275l-72 374zM410 764q-25 0 -39.5 -16t-14.5 -41q0 -16 9.5 -26.5
t29.5 -10.5q23 0 38.5 17t15.5 41q0 17 -10 26.5t-29 9.5z" />
    <glyph glyph-name="aringacute" unicode="&#x1fb;" horiz-adv-x="508" 
d="M384 0h-62l32 186q-14 -30 -34 -64.5t-44.5 -64t-54.5 -48.5t-63 -19q-32 0 -54 14t-36.5 37t-21 53t-6.5 62q0 63 17.5 122.5t52 106t85.5 74.5t119 28q40 0 80 -8t71 -20zM165 42q30 0 60.5 29t58.5 72.5t52 95t42 96.5l16 90q-34 10 -80 10q-50 0 -89 -22.5t-65.5 -61
t-40.5 -88.5t-14 -105q0 -23 3 -44t9.5 -37t18 -25.5t29.5 -9.5zM423 634q0 -19 -7.5 -35.5t-20 -29t-30.5 -20t-39 -7.5q-35 0 -54 19.5t-19 48.5q0 42 26.5 67t68.5 25q35 0 55 -19t20 -49zM345 669q-25 0 -39.5 -16t-14.5 -41q0 -16 9.5 -26.5t29.5 -10.5q23 0 38.5 17
t15.5 41q0 17 -10 26.5t-29 9.5zM324 745l80 90h85l-107 -90h-58z" />
    <glyph glyph-name="AEacute" unicode="&#x1fc;" horiz-adv-x="868" 
d="M878 612h-330l-12 -244h271l-10 -54h-263l-13 -260h261l-9 -54h-315l8 171h-295l-126 -171h-77l499 666h420zM210 224h259l19 381zM508 730l99 111h85l-126 -111h-58z" />
    <glyph glyph-name="aeacute" unicode="&#x1fd;" horiz-adv-x="715" 
d="M638 30q-29 -18 -68 -29t-77 -11q-54 0 -90 22.5t-56 59.5q-38 -32 -84.5 -57t-107.5 -25q-30 0 -54 10t-40.5 26.5t-25.5 38t-9 45.5q0 40 14 68t38 45.5t55.5 26t66.5 10.5q34 2 67.5 3.5t59.5 2.5q3 14 5.5 30.5t2.5 29.5q0 58 -31 83t-82 25q-34 0 -65 -8t-57 -22
l-13 50q30 17 67.5 25t76.5 8q56 0 97.5 -27t52.5 -81q32 52 80 80t110 28q26 0 49 -7.5t40.5 -21t27.5 -34t10 -45.5q0 -52 -29.5 -83t-75.5 -47.5t-102 -22.5t-108 -7q-4 -19 -4 -40q0 -27 6.5 -52t20.5 -44.5t36.5 -31t54.5 -11.5q35 0 67.5 10.5t58.5 27.5zM327 116
q-6 24 -8 49.5t1 51.5q-18 0 -51 -1t-60 -4q-54 -6 -87 -28t-33 -71q0 -32 20 -52.5t58 -20.5q47 0 85.5 21t74.5 55zM566 437q-33 0 -62 -13.5t-52 -36.5t-39 -54t-22 -66q31 1 73.5 4.5t80.5 14t64.5 31t26.5 56.5q0 27 -18.5 45.5t-51.5 18.5zM362 554l98 156h79
l-119 -156h-58z" />
    <glyph glyph-name="Oslashacute" unicode="&#x1fe;" horiz-adv-x="729" 
d="M144 60q-42 40 -62.5 94.5t-20.5 116.5q0 84 24.5 158t71 129.5t113 87.5t149.5 32q51 0 93.5 -14t76.5 -39l82 105l36 -28l-84 -107q35 -38 53.5 -90t18.5 -112q0 -78 -25 -151t-71.5 -129.5t-112.5 -90.5t-148 -34q-48 0 -87 11.5t-71 32.5l-75 -96l-36 28zM127 274
q0 -105 54 -167l370 470q-56 47 -137 47q-70 0 -123.5 -30t-90 -79.5t-55 -112.5t-18.5 -128zM343 42q64 0 117 29t90.5 77t58 111t20.5 131q0 45 -12 84t-35 69l-366 -466q52 -35 127 -35zM379 730l99 111h85l-126 -111h-58z" />
    <glyph glyph-name="oslashacute" unicode="&#x1ff;" horiz-adv-x="515" 
d="M86 49q-22 26 -33 60t-11 73q0 56 16.5 111t48.5 98t79 69.5t109 26.5q32 0 59 -9t48 -25l67 86l32 -25l-70 -89q22 -26 33 -60t11 -72q0 -53 -17 -106.5t-49.5 -97.5t-79.5 -71.5t-108 -27.5q-32 0 -58 8.5t-47 23.5l-66 -84l-32 25zM107 184q0 -24 4.5 -46t13.5 -39
l241 308q-15 13 -34.5 20.5t-42.5 7.5q-42 0 -75.5 -21t-57 -56.5t-36.5 -80.5t-13 -93zM226 42q44 0 78 22.5t57.5 58.5t36 80t12.5 86q0 49 -19 84l-241 -307q30 -24 76 -24zM258 554l98 156h79l-119 -156h-58z" />
    <glyph glyph-name="Scommaaccent" unicode="&#x218;" horiz-adv-x="474" 
d="M416 170q0 -41 -16 -74.5t-45 -57.5t-68.5 -37t-86.5 -13q-44 0 -92 9.5t-86 26.5l15 55q38 -17 79.5 -27t83.5 -10q67 0 108.5 30.5t41.5 93.5q0 24 -9.5 46t-25.5 42t-38 39t-46 39q-30 24 -54 45t-41 42t-26 44t-9 50q0 40 14 71t39.5 52t60.5 31.5t77 10.5
q53 0 95.5 -11.5t80.5 -33.5l-16 -54q-38 20 -76.5 32.5t-80.5 12.5q-54 0 -91 -25t-37 -81q0 -20 7 -37t20.5 -33t32 -32.5t42.5 -34.5q22 -17 48 -38t48 -47t36.5 -57t14.5 -69zM93 -225q25 41 37.5 76.5t19.5 75.5l64 -11q-10 -50 -29.5 -91.5t-47.5 -74.5z" />
    <glyph glyph-name="scommaaccent" unicode="&#x219;" horiz-adv-x="396" 
d="M335 129q0 -32 -12.5 -57.5t-35 -43.5t-54 -28t-68.5 -10q-39 0 -77 9t-64 20l15 53q28 -13 60 -21.5t63 -8.5q47 0 78 19t31 61q0 32 -24.5 55.5t-59.5 46.5q-21 13 -40.5 27.5t-34.5 31t-24 36t-9 42.5q0 63 43 94.5t111 31.5q39 0 73.5 -8.5t61.5 -23.5l-14 -53
q-31 16 -60.5 24.5t-61.5 8.5q-37 0 -63 -15t-26 -53q0 -29 19 -47.5t57 -43.5q18 -12 38.5 -26.5t37.5 -32.5t28.5 -39.5t11.5 -48.5zM52 -225q25 41 37.5 76.5t19.5 75.5l64 -11q-10 -50 -29.5 -91.5t-47.5 -74.5z" />
    <glyph glyph-name="circumflex" unicode="&#x2c6;" horiz-adv-x="516" 
d="M448 554h-62l-54 117l-94 -117h-66l130 156h66z" />
    <glyph glyph-name="caron" unicode="&#x2c7;" horiz-adv-x="516" 
d="M201 710h62l54 -117l94 117h66l-130 -156h-66z" />
    <glyph glyph-name="breve" unicode="&#x2d8;" horiz-adv-x="506" 
d="M463 677q-24 -60 -57.5 -91.5t-90.5 -31.5t-88 36.5t-31 93.5l49 9q2 -46 19.5 -69t54.5 -23t59.5 27t37.5 69z" />
    <glyph glyph-name="dotaccent" unicode="&#x2d9;" horiz-adv-x="331" 
d="M183 618q0 20 13.5 35.5t38.5 15.5q20 0 31 -11t11 -29q0 -22 -15 -36.5t-38 -14.5q-19 0 -30 11.5t-11 28.5z" />
    <glyph glyph-name="ring" unicode="&#x2da;" horiz-adv-x="406" 
d="M354 646q0 -19 -7.5 -35.5t-20 -29t-30.5 -20t-39 -7.5q-35 0 -54 19.5t-19 48.5q0 42 26.5 67t68.5 25q35 0 55 -19t20 -49zM276 681q-25 0 -39.5 -16t-14.5 -41q0 -16 9.5 -26.5t29.5 -10.5q23 0 38.5 17t15.5 41q0 17 -10 26.5t-29 9.5z" />
    <glyph glyph-name="ogonek" unicode="&#x2db;" horiz-adv-x="401" 
d="M202 -203q-29 -13 -71 -13q-38 0 -60 20t-22 53q0 27 11.5 48.5t29.5 39t40.5 31t45.5 24.5h62q-25 -17 -48 -32t-41 -31t-28.5 -33t-10.5 -38q0 -17 9.5 -26.5t29.5 -9.5q24 0 45 9z" />
    <glyph glyph-name="tilde" unicode="&#x2dc;" horiz-adv-x="507" 
d="M383 575q-17 0 -35.5 8.5t-35.5 18.5t-29 16t-24 6q-20 0 -32 -13t-29 -42l-39 23q12 24 22.5 40t22 26t25 14.5t32.5 4.5q20 0 36 -7t35 -18q17 -10 29 -17t24 -7q19 0 29.5 12.5t24.5 37.5l39 -22q-21 -41 -42 -61t-53 -20z" />
    <glyph glyph-name="hungarumlaut" unicode="&#x2dd;" horiz-adv-x="498" 
d="M152 554l80 156h74l-99 -156h-55zM325 554l80 156h74l-99 -156h-55z" />
    <glyph glyph-name="uni0312" unicode="&#x312;" horiz-adv-x="350" 
d="M298 697q-23 -29 -38.5 -63.5t-24.5 -79.5l-60 11q11 54 31.5 93t52.5 68z" />
    <glyph glyph-name="uni0315" unicode="&#x315;" horiz-adv-x="360" 
d="M155 517q30 45 48.5 92t29.5 97l60 -10q-14 -63 -36.5 -111t-59.5 -96z" />
    <glyph glyph-name="uni0326" unicode="&#x326;" horiz-adv-x="342" 
d="M35 -225q25 41 37.5 76.5t19.5 75.5l64 -11q-10 -50 -29.5 -91.5t-47.5 -74.5z" />
    <glyph glyph-name="Omega" unicode="&#x3a9;" horiz-adv-x="769" 
d="M727 415q0 -60 -17.5 -111.5t-48 -96.5t-71.5 -83.5t-88 -70.5h148l-9 -53h-208l-8 54q47 30 90 67t75.5 81t52 96t19.5 112q0 50 -17.5 90t-48 67.5t-71.5 42.5t-87 15q-66 0 -119 -21.5t-91 -61.5t-58.5 -97t-20.5 -127q0 -149 127 -264l-19 -54h-206l9 53h149
q-57 52 -91 123t-34 149q0 76 25 141t71.5 112t113 73.5t150.5 26.5q60 0 111.5 -19.5t90 -54t60 -83t21.5 -106.5z" />
    <glyph glyph-name="pi" unicode="&#x3c0;" horiz-adv-x="672" 
d="M540 423q-43 -71 -70 -134.5t-27 -136.5q0 -48 22 -79t70 -31q13 0 25 2t23 5l6 -49q-14 -5 -30 -7.5t-35 -2.5q-34 0 -61 11.5t-45.5 32.5t-28.5 50t-10 64q0 39 8.5 77.5t22 73.5t31 66.5t34.5 57.5h-204q-20 -115 -58 -218.5t-98 -210.5l-55 24q30 55 53.5 105
t41.5 99t31 98.5t22 102.5h-128l9 54h577l-9 -54h-117z" />
    <glyph glyph-name="Wgrave" unicode="&#x1e80;" horiz-adv-x="916" 
d="M641 91l256 575h69l-306 -666h-68l-76 603l-278 -603h-68l-72 666h63l57 -575l267 575h80zM499 730l-88 111h76l66 -111h-54z" />
    <glyph glyph-name="wgrave" unicode="&#x1e81;" horiz-adv-x="695" 
d="M465 0l-90 423q-16 -52 -34.5 -101t-40.5 -100t-48 -105t-58 -117h-65q-13 137 -32 252t-48 225h61q24 -97 40 -203.5t24 -203.5q23 46 43.5 91t40.5 93.5t40 103t41 119.5h77l90 -407q45 92 76 190.5t41 216.5h62q-6 -65 -19 -124.5t-33 -117.5t-46.5 -116t-58.5 -119
h-63zM348 554l-63 156h70l46 -156h-53z" />
    <glyph glyph-name="Wacute" unicode="&#x1e82;" horiz-adv-x="916" 
d="M641 91l256 575h69l-306 -666h-68l-76 603l-278 -603h-68l-72 666h63l57 -575l267 575h80zM505 730l99 111h85l-126 -111h-58z" />
    <glyph glyph-name="wacute" unicode="&#x1e83;" horiz-adv-x="695" 
d="M465 0l-90 423q-16 -52 -34.5 -101t-40.5 -100t-48 -105t-58 -117h-65q-13 137 -32 252t-48 225h61q24 -97 40 -203.5t24 -203.5q23 46 43.5 91t40.5 93.5t40 103t41 119.5h77l90 -407q45 92 76 190.5t41 216.5h62q-6 -65 -19 -124.5t-33 -117.5t-46.5 -116t-58.5 -119
h-63zM354 554l98 156h79l-119 -156h-58z" />
    <glyph glyph-name="Wdieresis" unicode="&#x1e84;" horiz-adv-x="916" 
d="M641 91l256 575h69l-306 -666h-68l-76 603l-278 -603h-68l-72 666h63l57 -575l267 575h80zM406 783q0 21 13.5 34.5t36.5 13.5q17 0 28 -10t11 -27q0 -23 -14.5 -36.5t-36.5 -13.5q-18 0 -28 11t-10 28zM588 783q0 21 13.5 34.5t36.5 13.5q17 0 28 -10t11 -27
q0 -23 -14.5 -36.5t-36.5 -13.5q-18 0 -28 11t-10 28z" />
    <glyph glyph-name="wdieresis" unicode="&#x1e85;" horiz-adv-x="695" 
d="M465 0l-90 423q-16 -52 -34.5 -101t-40.5 -100t-48 -105t-58 -117h-65q-13 137 -32 252t-48 225h61q24 -97 40 -203.5t24 -203.5q23 46 43.5 91t40.5 93.5t40 103t41 119.5h77l90 -407q45 92 76 190.5t41 216.5h62q-6 -65 -19 -124.5t-33 -117.5t-46.5 -116t-58.5 -119
h-63zM261 620q0 23 14 36.5t37 13.5q19 0 30 -11t11 -28q0 -22 -14 -36.5t-38 -14.5q-19 0 -29.5 11t-10.5 29zM438 620q0 23 14 36.5t37 13.5q19 0 30 -11t11 -28q0 -22 -14 -36.5t-38 -14.5q-19 0 -29.5 11t-10.5 29z" />
    <glyph glyph-name="Ygrave" unicode="&#x1ef2;" horiz-adv-x="511" 
d="M292 261l-46 -261h-66l47 270l-147 396h68l122 -340l232 340h77zM299 730l-88 111h76l66 -111h-54z" />
    <glyph glyph-name="ygrave" unicode="&#x1ef3;" horiz-adv-x="424" 
d="M255 23q-50 -72 -118.5 -133t-150.5 -106l-29 46q65 39 114.5 78.5t94.5 90.5q-20 128 -51 250t-73 228h65q16 -44 32 -95.5t30 -107t25.5 -112t19.5 -108.5q57 95 95.5 198.5t56.5 224.5h63q-8 -66 -27 -132t-43.5 -125t-51.5 -110t-52 -87zM211 554l-63 156h70l46 -156
h-53z" />
    <glyph glyph-name="endash" unicode="&#x2013;" horiz-adv-x="506" 
d="M80 289l8 54h378l-8 -54h-378z" />
    <glyph glyph-name="emdash" unicode="&#x2014;" horiz-adv-x="762" 
d="M57 232l8 54h648l-9 -54h-647z" />
    <glyph glyph-name="quoteleft" unicode="&#x2018;" horiz-adv-x="214" 
d="M249 677q-37 -48 -58.5 -96t-29.5 -111l-61 8q10 72 37 125.5t72 102.5z" />
    <glyph glyph-name="quoteright" unicode="&#x2019;" horiz-adv-x="214" 
d="M90 499q37 48 58.5 96t29.5 111l61 -8q-10 -72 -37 -125.5t-72 -102.5z" />
    <glyph glyph-name="quotesinglbase" unicode="&#x201a;" horiz-adv-x="224" 
d="M-28 -115q37 48 58.5 96t29.5 111l61 -8q-10 -72 -37 -125.5t-72 -102.5z" />
    <glyph glyph-name="quotedblleft" unicode="&#x201c;" horiz-adv-x="400" 
d="M249 677q-37 -48 -58.5 -96t-29.5 -111l-61 8q10 72 37 125.5t72 102.5zM435 677q-37 -48 -58.5 -96t-29.5 -111l-61 8q10 72 37 125.5t72 102.5z" />
    <glyph glyph-name="quotedblright" unicode="&#x201d;" horiz-adv-x="400" 
d="M276 499q37 48 58.5 96t29.5 111l61 -8q-10 -72 -37 -125.5t-72 -102.5zM90 499q37 48 58.5 96t29.5 111l61 -8q-10 -72 -37 -125.5t-72 -102.5z" />
    <glyph glyph-name="quotedblbase" unicode="&#x201e;" horiz-adv-x="410" 
d="M158 -115q37 48 58.5 96t29.5 111l61 -8q-10 -72 -37 -125.5t-72 -102.5zM-28 -115q37 48 58.5 96t29.5 111l61 -8q-10 -72 -37 -125.5t-72 -102.5z" />
    <glyph glyph-name="dagger" unicode="&#x2020;" horiz-adv-x="443" 
d="M182 128l37 284l34 110l-90 -14h-53l9 55h54l85 -13l5 111l9 45h65l-8 -45l-34 -111l90 13h53l-9 -55h-54l-86 14l-4 -110l-64 -284h-39z" />
    <glyph glyph-name="daggerdbl" unicode="&#x2021;" horiz-adv-x="443" 
d="M222 412l33 110l-90 -14h-53l9 55h54l85 -13l6 111l8 45h65l-8 -45l-34 -111l90 13h53l-9 -55h-54l-86 14l-4 -110l-20 -117l-34 -111l90 13h53l-9 -55h-54l-85 14l-5 -112l-8 -44h-66l8 44l34 112l-90 -14h-53l9 55h54l86 -13l4 111z" />
    <glyph glyph-name="bullet" unicode="&#x2022;" horiz-adv-x="401" 
d="M326 284q0 -25 -9 -47t-25 -38.5t-38.5 -26t-48.5 -9.5t-48 9.5t-38 26t-25 38.5t-9 47t9 47t25 38.5t38 26t48 9.5t48.5 -9.5t38.5 -26t25 -38.5t9 -47z" />
    <glyph glyph-name="ellipsis" unicode="&#x2026;" horiz-adv-x="726" 
d="M37 36q0 24 15 38.5t39 14.5q20 0 31.5 -12.5t11.5 -30.5q0 -21 -14 -37t-40 -16q-20 0 -31.5 12.5t-11.5 30.5zM279 36q0 24 15 38.5t39 14.5q20 0 31.5 -12.5t11.5 -30.5q0 -21 -14 -37t-40 -16q-20 0 -31.5 12.5t-11.5 30.5zM521 36q0 24 15 38.5t39 14.5
q20 0 31.5 -12.5t11.5 -30.5q0 -21 -14 -37t-40 -16q-20 0 -31.5 12.5t-11.5 30.5z" />
    <glyph glyph-name="perthousand" unicode="&#x2030;" horiz-adv-x="1229" 
d="M632 678l44 -30l-434 -660l-43 30zM406 526q0 -38 -12 -79t-36 -75.5t-59.5 -57t-81.5 -22.5q-33 0 -58 13t-41.5 34.5t-24.5 49.5t-8 58q0 45 12.5 86.5t36.5 74t59 51.5t80 19q33 0 58 -12t41.5 -33t25 -48.5t8.5 -58.5zM221 338q32 0 56 17.5t40.5 44.5t25 59.5
t8.5 63.5q0 45 -20.5 77t-63.5 32q-32 0 -56 -17t-39.5 -43.5t-23.5 -59.5t-8 -65q0 -22 4 -41.5t13.5 -34.5t25 -24t38.5 -9zM795 222q0 -38 -12 -79t-36 -75.5t-59.5 -57t-81.5 -22.5q-33 0 -58 13t-41.5 34.5t-24.5 49.5t-8 58q0 45 12.5 86.5t36.5 74t59 51.5t80 19
q33 0 58 -12t41.5 -33t25 -48.5t8.5 -58.5zM610 34q32 0 56 17.5t40.5 44.5t25 59.5t8.5 63.5q0 45 -20.5 77t-63.5 32q-32 0 -56 -17t-39.5 -43.5t-23.5 -59.5t-8 -65q0 -22 4 -41.5t13.5 -34.5t25 -24t38.5 -9zM1170 222q0 -38 -12 -79t-36 -75.5t-59.5 -57t-81.5 -22.5
q-33 0 -58 13t-41.5 34.5t-24.5 49.5t-8 58q0 45 12.5 86.5t36.5 74t59 51.5t80 19q33 0 58 -12t41.5 -33t25 -48.5t8.5 -58.5zM985 34q32 0 56 17.5t40.5 44.5t25 59.5t8.5 63.5q0 45 -20.5 77t-63.5 32q-32 0 -56 -17t-39.5 -43.5t-23.5 -59.5t-8 -65q0 -22 4 -41.5
t13.5 -34.5t25 -24t38.5 -9z" />
    <glyph glyph-name="guilsinglleft" unicode="&#x2039;" horiz-adv-x="335" 
d="M226 66l-48 -31l-129 207l198 204l40 -39l-169 -171z" />
    <glyph glyph-name="guilsinglright" unicode="&#x203a;" horiz-adv-x="335" 
d="M106 415l48 31l129 -207l-198 -204l-40 39l169 171z" />
    <glyph glyph-name="fraction" unicode="&#x2044;" horiz-adv-x="213" 
d="M332 678l39 -27l-468 -663l-38 28z" />
    <glyph glyph-name="uni2070" unicode="&#x2070;" horiz-adv-x="391" 
d="M422 677q0 -44 -11.5 -91t-35.5 -86t-61 -64.5t-87 -25.5q-59 0 -93 40.5t-34 108.5q0 43 10.5 89t33.5 84.5t59 63.5t86 25q63 0 98 -38.5t35 -105.5zM230 456q34 0 59.5 21.5t42 54t25 71t8.5 72.5q0 44 -18.5 72t-63.5 28q-33 0 -57 -21.5t-39 -54t-22.5 -70
t-7.5 -68.5q0 -44 16 -74.5t57 -30.5z" />
    <glyph glyph-name="uni2074" unicode="&#x2074;" horiz-adv-x="356" 
d="M325 528l-19 -108h-55l19 108h-186l-7 37l244 246h54l-42 -240h62l-6 -43h-64zM308 740l-161 -169h131z" />
    <glyph glyph-name="uni2075" unicode="&#x2075;" horiz-adv-x="331" 
d="M351 530q0 -29 -11.5 -51t-32 -37.5t-48 -23.5t-59.5 -8q-31 0 -64 7.5t-56 19.5l13 44q52 -26 106 -26q45 0 70.5 18.5t25.5 53.5q0 22 -12.5 37t-35 24t-53.5 13.5t-68 5.5l36 204h215l-7 -47h-160l-21 -114q32 -3 61.5 -10.5t52 -22t35.5 -36t13 -51.5z" />
    <glyph glyph-name="uni2076" unicode="&#x2076;" horiz-adv-x="368" 
d="M382 778q-81 -26 -136.5 -61t-83.5 -100q17 16 46 26.5t58 10.5q51 0 86 -29.5t35 -80.5q0 -60 -41.5 -97t-109.5 -37q-32 0 -57 11.5t-43 31.5t-27.5 46t-9.5 56q0 53 22 96t59.5 76.5t86.5 57t102 36.5zM241 454q43 0 67 24.5t24 60.5q0 35 -22.5 52.5t-56.5 17.5
q-30 0 -55.5 -11t-42.5 -25q-2 -24 2 -45.5t14.5 -38t27.5 -26t42 -9.5z" />
    <glyph glyph-name="uni2077" unicode="&#x2077;" horiz-adv-x="317" 
d="M389 770l-266 -360l-39 29l240 325h-203l8 47h254z" />
    <glyph glyph-name="uni2078" unicode="&#x2078;" horiz-adv-x="371" 
d="M92 506q0 26 10.5 45t27 33.5t37.5 25t43 18.5q-30 17 -50 39.5t-20 53.5q0 26 11 45t29.5 31t43 18t52.5 6q53 0 88.5 -23.5t35.5 -61.5q0 -22 -8.5 -39t-23 -30.5t-32 -23.5t-35.5 -18q30 -16 54.5 -40t24.5 -59q0 -28 -12.5 -49.5t-34 -36.5t-49.5 -22.5t-59 -7.5
q-28 0 -52.5 7t-42.5 19.5t-28 30t-10 39.5zM327 523q0 27 -22.5 46t-51.5 34q-19 -9 -38 -17.5t-34.5 -19t-25.5 -23.5t-10 -31q0 -28 22 -44.5t60 -16.5q42 0 71 19t29 53zM192 723q0 -28 19.5 -43.5t45.5 -30.5q18 8 34 16t28.5 18t20 21.5t7.5 25.5q0 23 -20 37t-53 14
q-34 0 -58 -14t-24 -44z" />
    <glyph glyph-name="uni2079" unicode="&#x2079;" horiz-adv-x="364" 
d="M114 453q81 26 136 61t84 100q-17 -16 -46 -26.5t-58 -10.5q-55 0 -88 29.5t-33 80.5q0 64 42.5 99t108.5 35q32 0 57.5 -11.5t43 -31.5t27 -46t9.5 -56q0 -53 -22 -96t-59.5 -76.5t-86.5 -57t-102 -36.5zM255 777q-43 0 -67 -23.5t-24 -62.5q0 -35 21 -52t58 -17
q30 0 54 10.5t44 25.5q2 24 -2 45.5t-14.5 38t-27.5 26t-42 9.5z" />
    <glyph glyph-name="uni207A" unicode="&#x207a;" horiz-adv-x="440" 
d="M317 596v-126h-54v126h-128v48h128v126h54v-126h128v-48h-128z" />
    <glyph glyph-name="uni207B" unicode="&#x207b;" horiz-adv-x="439" 
d="M149 644h294v-49h-294v49z" />
    <glyph glyph-name="uni207C" unicode="&#x207c;" horiz-adv-x="445" 
d="M154 715h295v-47h-295v47zM154 573h295v-47h-295v47z" />
    <glyph glyph-name="uni207D" unicode="&#x207d;" horiz-adv-x="240" 
d="M124 557q0 95 38.5 169t109.5 141l35 -33q-33 -35 -56.5 -67t-39 -64.5t-23 -67t-7.5 -75.5q0 -47 12 -87.5t36 -83.5l-45 -25q-29 48 -44.5 95t-15.5 98z" />
    <glyph glyph-name="uni207E" unicode="&#x207e;" horiz-adv-x="240" 
d="M245 674q0 -95 -39 -169t-109 -141l-35 33q33 35 56.5 67t39 64.5t23 67t7.5 75.5q0 47 -12 87.5t-36 83.5l45 25q29 -48 44.5 -95t15.5 -98z" />
    <glyph glyph-name="uni207F" unicode="&#x207f;" horiz-adv-x="406" 
d="M94 420l59 337h55l-16 -90q10 19 23 36.5t29.5 31t36.5 22t43 8.5q45 0 68.5 -33t23.5 -84q0 -12 -1.5 -24t-3.5 -23l-32 -181h-57l32 182q2 8 3 19.5t1 21.5q0 32 -11.5 54t-38.5 22q-18 0 -36 -11t-34.5 -29t-30.5 -40t-25 -43l-31 -176h-57z" />
    <glyph glyph-name="uni2080" unicode="&#x2080;" horiz-adv-x="391" 
d="M320 100q0 -44 -11.5 -91t-35.5 -86t-61 -64.5t-87 -25.5q-59 0 -93 40.5t-34 108.5q0 43 10.5 89t33.5 84.5t59 63.5t86 25q63 0 98 -38.5t35 -105.5zM128 -121q34 0 59.5 21.5t42 54t25 71t8.5 72.5q0 44 -18.5 72t-63.5 28q-33 0 -57 -21.5t-39 -54t-22.5 -70
t-7.5 -68.5q0 -44 16 -74.5t57 -30.5z" />
    <glyph glyph-name="uni2081" unicode="&#x2081;" horiz-adv-x="258" 
d="M58 -157l59 334l-98 -32l-12 46l135 43h42l-69 -391h-57z" />
    <glyph glyph-name="uni2082" unicode="&#x2082;" horiz-adv-x="348" 
d="M36 216q20 12 49.5 20t63.5 8q55 0 90.5 -28.5t35.5 -81.5q0 -36 -15.5 -65t-36.5 -51t-43.5 -38.5t-36.5 -26.5q-20 -14 -44.5 -32t-45.5 -32h194l-7 -46h-260l-8 39q15 12 32.5 25t35 26.5t33 25t26.5 20.5q18 14 39 30t38.5 35t29.5 40.5t12 46.5q0 32 -21.5 49
t-53.5 17q-26 0 -50.5 -6.5t-44.5 -17.5z" />
    <glyph glyph-name="uni2083" unicode="&#x2083;" horiz-adv-x="346" 
d="M249 -58q0 -25 -10.5 -45t-29.5 -34.5t-44 -22t-55 -7.5q-35 0 -66 9.5t-57 23.5l15 43q22 -13 49.5 -22t56.5 -9q38 0 61 17t23 48q0 37 -32.5 56.5t-83.5 19.5h-19l5 46h25q25 0 49.5 5t43 15.5t30 26t11.5 36.5q0 25 -18 37.5t-49 12.5q-23 0 -48.5 -5.5t-48.5 -17.5
l-12 42q24 14 54 20.5t60 6.5q51 0 85 -23.5t34 -66.5q0 -44 -31.5 -73t-81.5 -41q35 -10 59.5 -34t24.5 -64z" />
    <glyph glyph-name="uni2084" unicode="&#x2084;" horiz-adv-x="356" 
d="M223 -49l-19 -108h-55l19 108h-186l-7 37l244 246h54l-42 -240h62l-6 -43h-64zM206 163l-161 -169h131z" />
    <glyph glyph-name="uni2085" unicode="&#x2085;" horiz-adv-x="331" 
d="M249 -47q0 -29 -11.5 -51t-32 -37.5t-48 -23.5t-59.5 -8q-31 0 -64 7.5t-56 19.5l13 44q52 -26 106 -26q45 0 70.5 18.5t25.5 53.5q0 22 -12.5 37t-35 24t-53.5 13.5t-68 5.5l36 204h215l-7 -47h-160l-21 -114q32 -3 61.5 -10.5t52 -22t35.5 -36t13 -51.5z" />
    <glyph glyph-name="uni2086" unicode="&#x2086;" horiz-adv-x="368" 
d="M280 201q-81 -26 -136.5 -61t-83.5 -100q17 16 46 26.5t58 10.5q51 0 86 -29.5t35 -80.5q0 -60 -41.5 -97t-109.5 -37q-32 0 -57 11.5t-43 31.5t-27.5 46t-9.5 56q0 53 22 96t59.5 76.5t86.5 57t102 36.5zM139 -123q43 0 67 24.5t24 60.5q0 35 -22.5 52.5t-56.5 17.5
q-30 0 -55.5 -11t-42.5 -25q-2 -24 2 -45.5t14.5 -38t27.5 -26t42 -9.5z" />
    <glyph glyph-name="uni2087" unicode="&#x2087;" horiz-adv-x="317" 
d="M287 193l-266 -360l-39 29l240 325h-203l8 47h254z" />
    <glyph glyph-name="uni2088" unicode="&#x2088;" horiz-adv-x="371" 
d="M-10 -71q0 26 10.5 45t27 33.5t37.5 25t43 18.5q-30 17 -50 39.5t-20 53.5q0 26 11 45t29.5 31t43 18t52.5 6q53 0 88.5 -23.5t35.5 -61.5q0 -22 -8.5 -39t-23 -30.5t-32 -23.5t-35.5 -18q30 -16 54.5 -40t24.5 -59q0 -28 -12.5 -49.5t-34 -36.5t-49.5 -22.5t-59 -7.5
q-28 0 -52.5 7t-42.5 19.5t-28 30t-10 39.5zM225 -54q0 27 -22.5 46t-51.5 34q-19 -9 -38 -17.5t-34.5 -19t-25.5 -23.5t-10 -31q0 -28 22 -44.5t60 -16.5q42 0 71 19t29 53zM90 146q0 -28 19.5 -43.5t45.5 -30.5q18 8 34 16t28.5 18t20 21.5t7.5 25.5q0 23 -20 37t-53 14
q-34 0 -58 -14t-24 -44z" />
    <glyph glyph-name="uni2089" unicode="&#x2089;" horiz-adv-x="364" 
d="M12 -124q81 26 136 61t84 100q-17 -16 -46 -26.5t-58 -10.5q-55 0 -88 29.5t-33 80.5q0 64 42.5 99t108.5 35q32 0 57.5 -11.5t43 -31.5t27 -46t9.5 -56q0 -53 -22 -96t-59.5 -76.5t-86.5 -57t-102 -36.5zM153 200q-43 0 -67 -23.5t-24 -62.5q0 -35 21 -52t58 -17
q30 0 54 10.5t44 25.5q2 24 -2 45.5t-14.5 38t-27.5 26t-42 9.5z" />
    <glyph glyph-name="uni208A" unicode="&#x208a;" horiz-adv-x="440" 
d="M215 19v-126h-54v126h-128v48h128v126h54v-126h128v-48h-128z" />
    <glyph glyph-name="uni208B" unicode="&#x208b;" horiz-adv-x="439" 
d="M47 67h294v-49h-294v49z" />
    <glyph glyph-name="uni208C" unicode="&#x208c;" horiz-adv-x="445" 
d="M52 138h295v-47h-295v47zM52 -4h295v-47h-295v47z" />
    <glyph glyph-name="uni208D" unicode="&#x208d;" horiz-adv-x="240" 
d="M22 -20q0 95 38.5 169t109.5 141l35 -33q-33 -35 -56.5 -67t-39 -64.5t-23 -67t-7.5 -75.5q0 -47 12 -87.5t36 -83.5l-45 -25q-29 48 -44.5 95t-15.5 98z" />
    <glyph glyph-name="uni208E" unicode="&#x208e;" horiz-adv-x="240" 
d="M143 97q0 -95 -39 -169t-109 -141l-35 33q33 35 56.5 67t39 64.5t23 67t7.5 75.5q0 47 -12 87.5t-36 83.5l45 25q29 -48 44.5 -95t15.5 -98z" />
    <glyph glyph-name="Euro" unicode="&#x20ac;" horiz-adv-x="566" 
d="M38 269h93q3 65 18 128h-88l8 47h93q15 49 39 91.5t57.5 74t79 50t104.5 18.5q35 0 67.5 -6t61.5 -20l-13 -50q-25 11 -54.5 17.5t-61.5 6.5q-43 0 -77 -13.5t-60.5 -38t-46 -58t-32.5 -72.5h269l-8 -47h-275q-7 -29 -11.5 -61.5t-5.5 -66.5h270l-8 -47h-263
q0 -38 7.5 -71.5t24.5 -58t46 -38.5t73 -14q31 0 61 5.5t57 16.5l7 -49q-25 -11 -61.5 -18t-71.5 -7q-55 0 -94 20t-64 52.5t-37 74.5t-12 87h-100z" />
    <glyph glyph-name="uni2113" unicode="&#x2113;" horiz-adv-x="492" 
d="M15 248q34 14 65.5 29t65.5 29l39 221q17 99 64 144t117 45q25 0 47.5 -8.5t40 -24.5t28 -40.5t10.5 -55.5q0 -55 -24 -101.5t-63.5 -85.5t-91.5 -71t-108 -58l-20 -112q-2 -8 -3 -19t-1 -20q0 -37 18.5 -57t60.5 -20q31 0 59 9.5t54 22.5l15 -48q-29 -15 -64.5 -26
t-74.5 -11q-34 0 -59 10.5t-41 28.5t-24 42t-8 51q0 20 3 37l15 84q-26 -11 -51 -22.5t-51 -22.5zM216 335q40 20 78.5 45t68.5 55.5t48 67.5t18 81q0 36 -19.5 56.5t-50.5 20.5q-46 0 -72 -36.5t-38 -103.5z" />
    <glyph glyph-name="uni2116" unicode="&#x2116;" horiz-adv-x="1003" 
d="M426 0l-227 563l-99 -563h-60l117 666h61l227 -562l99 562h60l-117 -666h-61zM654 251h294l-8 -46h-294zM864 676q66 0 102.5 -38.5t36.5 -98.5q0 -39 -12.5 -77.5t-36.5 -69.5t-58.5 -50t-78.5 -19q-34 0 -59.5 11t-43 29.5t-26 44t-8.5 54.5q0 42 12.5 80.5t36 68.5
t57.5 47.5t78 17.5zM819 368q29 0 52.5 15t40 39t25.5 53.5t9 59.5q0 42 -22.5 69t-64.5 27q-30 0 -52.5 -15t-38 -38.5t-23.5 -53.5t-8 -60q0 -41 19 -68.5t63 -27.5z" />
    <glyph glyph-name="published" unicode="&#x2117;" horiz-adv-x="819" 
d="M575 409q0 -56 -42 -88.5t-113 -32.5h-25v-143h-54v376h91q29 0 55 -7t45.5 -21.5t31 -35.5t11.5 -48zM521 407q0 37 -29 52t-66 15h-31v-140h24q50 0 76 18.5t26 54.5zM774 333q0 -71 -25 -133.5t-70.5 -109.5t-109 -74.5t-141.5 -27.5t-141.5 27.5t-109 74.5
t-70.5 109.5t-25 133.5t25 134t70.5 110t109 74t141.5 27t141.5 -27t109 -74t70.5 -110t25 -134zM117 333q0 -65 22 -122t63 -100t98 -68t128 -25q70 0 127.5 25t98.5 68t63 100t22 122q0 64 -22 121.5t-63 100.5t-98.5 68t-127.5 25q-71 0 -128 -25t-98 -68t-63 -100.5
t-22 -121.5z" />
    <glyph glyph-name="trademark" unicode="&#x2122;" horiz-adv-x="717" 
d="M324 666v-37h-92v-273h-45v273h-92v37h229zM568 417h-50l-83 178l-16 -239h-45l24 310h45l100 -210l100 210h45l24 -310h-45l-16 239z" />
    <glyph glyph-name="estimated" unicode="&#x212e;" horiz-adv-x="834" 
d="M212 321v-221q43 -38 96.5 -57.5t119.5 -19.5q85 0 154 29t136 94l24 -25q-70 -65 -145.5 -98t-169.5 -33q-77 0 -142.5 27t-113 74t-74.5 112t-27 140q0 72 28.5 133t77.5 105.5t114 69.5t137 25t137 -25.5t113.5 -70.5t77.5 -105.5t29 -130.5v-23h-572zM427 643
q-63 0 -118 -21t-97 -58v-211h430v211q-46 36 -99.5 57.5t-115.5 21.5z" />
    <glyph glyph-name="onethird" unicode="&#x2153;" horiz-adv-x="776" 
d="M141 275l59 334l-98 -32l-12 46l135 43h42l-69 -391h-57zM576 678l39 -27l-468 -663l-38 28zM707 99q0 -25 -10.5 -45t-29.5 -34.5t-44 -22t-55 -7.5q-35 0 -66 9.5t-57 23.5l15 43q22 -13 49.5 -22t56.5 -9q38 0 61 17t23 48q0 37 -32.5 56.5t-83.5 19.5h-19l5 46h25
q25 0 49.5 5t43 15.5t30 26t11.5 36.5q0 25 -18 37.5t-49 12.5q-23 0 -48.5 -5.5t-48.5 -17.5l-12 42q24 14 54 20.5t60 6.5q51 0 85 -23.5t34 -66.5q0 -44 -31.5 -73t-81.5 -41q35 -10 59.5 -34t24.5 -64z" />
    <glyph glyph-name="twothirds" unicode="&#x2154;" horiz-adv-x="901" 
d="M701 678l39 -27l-468 -663l-38 28zM832 99q0 -25 -10.5 -45t-29.5 -34.5t-44 -22t-55 -7.5q-35 0 -66 9.5t-57 23.5l15 43q22 -13 49.5 -22t56.5 -9q38 0 61 17t23 48q0 37 -32.5 56.5t-83.5 19.5h-19l5 46h25q25 0 49.5 5t43 15.5t30 26t11.5 36.5q0 25 -18 37.5
t-49 12.5q-23 0 -48.5 -5.5t-48.5 -17.5l-12 42q24 14 54 20.5t60 6.5q51 0 85 -23.5t34 -66.5q0 -44 -31.5 -73t-81.5 -41q35 -10 59.5 -34t24.5 -64zM134 648q20 12 49.5 20t63.5 8q55 0 90.5 -28.5t35.5 -81.5q0 -36 -15.5 -65t-36.5 -51t-43.5 -38.5t-36.5 -26.5
q-20 -14 -44.5 -32t-45.5 -32h194l-7 -46h-260l-8 39q15 12 32.5 25t35 26.5t33 25t26.5 20.5q18 14 39 30t38.5 35t29.5 40.5t12 46.5q0 32 -21.5 49t-53.5 17q-26 0 -50.5 -6.5t-44.5 -17.5z" />
    <glyph glyph-name="oneeighth" unicode="&#x215b;" horiz-adv-x="788" 
d="M141 275l59 334l-98 -32l-12 46l135 43h42l-69 -391h-57zM576 678l39 -27l-468 -663l-38 28zM435 86q0 26 10.5 45t27 33.5t37.5 25t43 18.5q-30 17 -50 39.5t-20 53.5q0 26 11 45t29.5 31t43 18t52.5 6q53 0 88.5 -23.5t35.5 -61.5q0 -22 -8.5 -39t-23 -30.5t-32 -23.5
t-35.5 -18q30 -16 54.5 -40t24.5 -59q0 -28 -12.5 -49.5t-34 -36.5t-49.5 -22.5t-59 -7.5q-28 0 -52.5 7t-42.5 19.5t-28 30t-10 39.5zM670 103q0 27 -22.5 46t-51.5 34q-19 -9 -38 -17.5t-34.5 -19t-25.5 -23.5t-10 -31q0 -28 22 -44.5t60 -16.5q42 0 71 19t29 53zM535 303
q0 -28 19.5 -43.5t45.5 -30.5q18 8 34 16t28.5 18t20 21.5t7.5 25.5q0 23 -20 37t-53 14q-34 0 -58 -14t-24 -44z" />
    <glyph glyph-name="threeeighths" unicode="&#x215c;" horiz-adv-x="842" 
d="M630 678l39 -27l-468 -663l-38 28zM489 86q0 26 10.5 45t27 33.5t37.5 25t43 18.5q-30 17 -50 39.5t-20 53.5q0 26 11 45t29.5 31t43 18t52.5 6q53 0 88.5 -23.5t35.5 -61.5q0 -22 -8.5 -39t-23 -30.5t-32 -23.5t-35.5 -18q30 -16 54.5 -40t24.5 -59q0 -28 -12.5 -49.5
t-34 -36.5t-49.5 -22.5t-59 -7.5q-28 0 -52.5 7t-42.5 19.5t-28 30t-10 39.5zM724 103q0 27 -22.5 46t-51.5 34q-19 -9 -38 -17.5t-34.5 -19t-25.5 -23.5t-10 -31q0 -28 22 -44.5t60 -16.5q42 0 71 19t29 53zM589 303q0 -28 19.5 -43.5t45.5 -30.5q18 8 34 16t28.5 18
t20 21.5t7.5 25.5q0 23 -20 37t-53 14q-34 0 -58 -14t-24 -44zM317 374q0 -25 -10.5 -45t-29.5 -34.5t-44 -22t-55 -7.5q-35 0 -66 9.5t-57 23.5l15 43q22 -13 49.5 -22t56.5 -9q38 0 61 17t23 48q0 37 -32.5 56.5t-83.5 19.5h-19l5 46h25q25 0 49.5 5t43 15.5t30 26
t11.5 36.5q0 25 -18 37.5t-49 12.5q-23 0 -48.5 -5.5t-48.5 -17.5l-12 42q24 14 54 20.5t60 6.5q51 0 85 -23.5t34 -66.5q0 -44 -31.5 -73t-81.5 -41q35 -10 59.5 -34t24.5 -64z" />
    <glyph glyph-name="fiveeighths" unicode="&#x215d;" horiz-adv-x="858" 
d="M646 678l39 -27l-468 -663l-38 28zM505 86q0 26 10.5 45t27 33.5t37.5 25t43 18.5q-30 17 -50 39.5t-20 53.5q0 26 11 45t29.5 31t43 18t52.5 6q53 0 88.5 -23.5t35.5 -61.5q0 -22 -8.5 -39t-23 -30.5t-32 -23.5t-35.5 -18q30 -16 54.5 -40t24.5 -59q0 -28 -12.5 -49.5
t-34 -36.5t-49.5 -22.5t-59 -7.5q-28 0 -52.5 7t-42.5 19.5t-28 30t-10 39.5zM740 103q0 27 -22.5 46t-51.5 34q-19 -9 -38 -17.5t-34.5 -19t-25.5 -23.5t-10 -31q0 -28 22 -44.5t60 -16.5q42 0 71 19t29 53zM605 303q0 -28 19.5 -43.5t45.5 -30.5q18 8 34 16t28.5 18
t20 21.5t7.5 25.5q0 23 -20 37t-53 14q-34 0 -58 -14t-24 -44zM326 385q0 -29 -11.5 -51t-32 -37.5t-48 -23.5t-59.5 -8q-31 0 -64 7.5t-56 19.5l13 44q52 -26 106 -26q45 0 70.5 18.5t25.5 53.5q0 22 -12.5 37t-35 24t-53.5 13.5t-68 5.5l36 204h215l-7 -47h-160l-21 -114
q32 -3 61.5 -10.5t52 -22t35.5 -36t13 -51.5z" />
    <glyph glyph-name="seveneighths" unicode="&#x215e;" horiz-adv-x="786" 
d="M574 678l39 -27l-468 -663l-38 28zM433 86q0 26 10.5 45t27 33.5t37.5 25t43 18.5q-30 17 -50 39.5t-20 53.5q0 26 11 45t29.5 31t43 18t52.5 6q53 0 88.5 -23.5t35.5 -61.5q0 -22 -8.5 -39t-23 -30.5t-32 -23.5t-35.5 -18q30 -16 54.5 -40t24.5 -59q0 -28 -12.5 -49.5
t-34 -36.5t-49.5 -22.5t-59 -7.5q-28 0 -52.5 7t-42.5 19.5t-28 30t-10 39.5zM668 103q0 27 -22.5 46t-51.5 34q-19 -9 -38 -17.5t-34.5 -19t-25.5 -23.5t-10 -31q0 -28 22 -44.5t60 -16.5q42 0 71 19t29 53zM533 303q0 -28 19.5 -43.5t45.5 -30.5q18 8 34 16t28.5 18
t20 21.5t7.5 25.5q0 23 -20 37t-53 14q-34 0 -58 -14t-24 -44zM375 625l-266 -360l-39 29l240 325h-203l8 47h254z" />
    <glyph glyph-name="partialdiff" unicode="&#x2202;" horiz-adv-x="543" 
d="M280 432q51 0 96.5 -20t76.5 -55q4 20 5.5 41t1.5 41q0 44 -8.5 84.5t-27 71.5t-48 49.5t-72.5 18.5q-39 0 -71 -12t-58 -29l-20 48q35 23 70.5 34.5t84.5 11.5q53 0 92.5 -21.5t66 -58.5t39.5 -86.5t13 -106.5q0 -24 -1.5 -49.5t-6.5 -51.5q-12 -65 -36.5 -128.5
t-62.5 -113.5t-89 -81t-115 -31q-39 0 -69.5 15t-52 40.5t-32.5 59.5t-11 72q0 55 16 102t46 81.5t73.5 54t99.5 19.5zM281 378q-43 0 -75.5 -15.5t-54.5 -42.5t-33 -64t-11 -81q0 -61 28 -98t81 -37q43 0 78.5 20.5t63 56.5t48.5 83.5t36 101.5q-33 38 -76 57t-85 19z" />
    <glyph glyph-name="Delta" unicode="&#x2206;" horiz-adv-x="687" 
d="M601 0h-603l385 666h66zM408 604l-310 -551h427z" />
    <glyph glyph-name="product" unicode="&#x220f;" horiz-adv-x="838" 
d="M170 -206h-65l145 818h-131l10 54h721l-9 -54h-131l-143 -818h-66l144 818h-330z" />
    <glyph glyph-name="summation" unicode="&#x2211;" horiz-adv-x="578" 
d="M58 -152h390l-9 -54h-448l-8 55l321 380l-186 383l9 54h466l-9 -54h-398l190 -390z" />
    <glyph glyph-name="minus" unicode="&#x2212;" horiz-adv-x="544" 
d="M82 296v52h412v-52h-412z" />
    <glyph glyph-name="radical" unicode="&#x221a;" horiz-adv-x="724" 
d="M61 356l184 52l112 -449l354 823h62l-385 -882h-72l-114 441l-126 -37z" />
    <glyph glyph-name="infinity" unicode="&#x221e;" horiz-adv-x="896" 
d="M463 283q-41 -49 -94 -83t-118 -34q-38 0 -69.5 11.5t-54 32.5t-35 49.5t-12.5 63.5q0 34 12.5 62.5t35 49.5t54 32.5t69.5 11.5q65 0 118 -33.5t94 -83.5q40 50 93.5 83.5t117.5 33.5q39 0 70.5 -11.5t54 -32.5t35 -49.5t12.5 -62.5q0 -35 -12.5 -63.5t-35 -49.5
t-54 -32.5t-70.5 -11.5q-64 0 -117.5 34t-93.5 83zM497 323q33 -46 76.5 -76t95.5 -30q51 0 83.5 27t32.5 79t-32.5 78.5t-83.5 26.5q-52 0 -95.5 -30t-76.5 -75zM429 323q-33 45 -77 75t-96 30q-51 0 -83.5 -26.5t-32.5 -78.5t32.5 -79t83.5 -27q52 0 96 30t77 76z" />
    <glyph glyph-name="integral" unicode="&#x222b;" horiz-adv-x="424" 
d="M180 410q13 78 31.5 135.5t45.5 95.5t64 56.5t87 18.5q22 0 44 -3.5t40 -11.5l-10 -52q-15 6 -34.5 9.5t-38.5 3.5q-30 0 -55 -13.5t-45.5 -43.5t-36 -78t-27.5 -118l-56 -319q-13 -74 -29 -131t-41 -96t-61 -59t-89 -20q-19 0 -43.5 4.5t-40.5 10.5l10 51q14 -5 33 -9
t39 -4q36 0 60.5 15t42.5 46.5t30.5 81t24.5 117.5z" />
    <glyph glyph-name="approxequal" unicode="&#x2248;" horiz-adv-x="596" 
d="M419 353q-30 0 -55 9.5t-54 24.5q-26 14 -45 21.5t-42 7.5q-27 0 -48.5 -11.5t-47.5 -33.5l-27 39q30 28 58 42.5t66 14.5q28 0 52 -7.5t54 -24.5q26 -14 45.5 -22.5t44.5 -8.5q26 0 46 11t43 31l27 -38q-27 -24 -55 -39.5t-62 -15.5zM419 179q-30 0 -55 9.5t-54 24.5
q-26 14 -45 21.5t-42 7.5q-27 0 -48.5 -11.5t-47.5 -33.5l-27 39q30 28 58 42.5t66 14.5q28 0 52 -7.5t54 -24.5q26 -14 45.5 -22.5t44.5 -8.5q26 0 46 11t43 31l27 -38q-27 -24 -55 -39.5t-62 -15.5z" />
    <glyph glyph-name="notequal" unicode="&#x2260;" horiz-adv-x="607" 
d="M110 453h266l68 118l42 -25l-54 -93h119v-51h-148l-90 -158h238v-51h-268l-67 -118l-42 25l53 93h-117v51h146l91 158h-237v51z" />
    <glyph glyph-name="lessequal" unicode="&#x2264;" horiz-adv-x="606" 
d="M527 567l19 -51l-390 -159l390 -159l-19 -51l-442 186v48zM85 51h461v-51h-461v51z" />
    <glyph glyph-name="greaterequal" unicode="&#x2265;" horiz-adv-x="606" 
d="M546 381v-48l-442 -186l-19 51l390 159l-390 159l19 51zM546 0h-461v51h461v-51z" />
    <glyph glyph-name="lozenge" unicode="&#x25ca;" horiz-adv-x="559" 
d="M527 328l-257 -328h-64l-148 336l259 330h65zM244 53l216 281l-116 279l-219 -284z" />
    <glyph glyph-name="apple" unicode="&#xf8ff;" horiz-adv-x="851" 
d="M473 333v-333h-333v666h666v-333h-333z" />
    <glyph glyph-name="acute.case" horiz-adv-x="424" 
d="M213 730l99 111h85l-126 -111h-58z" />
    <glyph glyph-name="breve.case" horiz-adv-x="510" 
d="M482 825q-22 -48 -56 -71.5t-79 -23.5q-48 0 -77.5 27.5t-37.5 75.5l48 14q6 -35 23 -53.5t48 -18.5t51.5 18.5t37.5 53.5z" />
    <glyph glyph-name="caron.case" horiz-adv-x="517" 
d="M231 841h62l54 -79l78 79h67l-113 -111h-69z" />
    <glyph glyph-name="circumflex.case" horiz-adv-x="517" 
d="M472 730h-62l-54 79l-78 -79h-67l113 111h69z" />
    <glyph glyph-name="dieresis.case" horiz-adv-x="527" 
d="M222 783q0 21 13.5 34.5t36.5 13.5q17 0 28 -10t11 -27q0 -23 -14.5 -36.5t-36.5 -13.5q-18 0 -28 11t-10 28zM404 783q0 21 13.5 34.5t36.5 13.5q17 0 28 -10t11 -27q0 -23 -14.5 -36.5t-36.5 -13.5q-18 0 -28 11t-10 28z" />
    <glyph glyph-name="dotaccent.case" horiz-adv-x="349" 
d="M223 785q0 20 13.5 35.5t38.5 15.5q20 0 31 -11t11 -29q0 -22 -15 -36.5t-38 -14.5q-19 0 -30 11.5t-11 28.5z" />
    <glyph glyph-name="grave.case" horiz-adv-x="419" 
d="M318 730l-88 111h76l66 -111h-54z" />
    <glyph glyph-name="hungarumlaut.case" horiz-adv-x="498" 
d="M193 730l62 111h74l-80 -111h-56zM369 730l62 111h74l-80 -111h-56z" />
    <glyph glyph-name="macron.case" horiz-adv-x="515" 
d="M227 817h273l-9 -51h-273z" />
    <glyph glyph-name="ring.case" horiz-adv-x="416" 
d="M403 822q0 -19 -7.5 -35.5t-20 -29t-30.5 -20t-39 -7.5q-35 0 -54 19.5t-19 48.5q0 42 26.5 67t68.5 25q35 0 55 -19t20 -49zM325 857q-25 0 -39.5 -16t-14.5 -41q0 -16 9.5 -26.5t29.5 -10.5q23 0 38.5 17t15.5 41q0 17 -10 26.5t-29 9.5z" />
    <glyph glyph-name="tilde.case" horiz-adv-x="543" 
d="M436 735q-20 0 -38.5 8t-39.5 18t-35 16.5t-28 6.5q-20 0 -31.5 -13t-27.5 -41l-40 22q12 24 22 40t21.5 26t25 14t31.5 4t36 -5t44 -19q20 -11 35 -17.5t28 -6.5q19 0 29 12.5t23 35.5l40 -21q-18 -41 -39 -60.5t-56 -19.5z" />
    <glyph glyph-name="ampersand.salt" horiz-adv-x="713" 
d="M678 358q-29 -10 -67.5 -17t-74.5 -12q-23 -45 -35 -84t-12 -86q0 -25 5 -46.5t16 -37.5t30 -25.5t48 -9.5q35 0 70 12l4 -48q-14 -5 -38 -9.5t-43 -4.5q-45 0 -76.5 17t-48.5 45q-38 -26 -91.5 -45t-114.5 -19q-87 0 -141 41t-54 121q0 45 18 79.5t47.5 58.5t66 38
t74.5 19q-55 19 -88 61t-33 96q0 45 17 78t47 55t70.5 32.5t87.5 10.5q53 0 102 -9t92 -29l-13 -51q-42 18 -88 27.5t-91 9.5q-34 0 -63 -7t-50.5 -22t-34 -38.5t-12.5 -56.5q0 -32 13.5 -56.5t37.5 -42t57 -26.5t71 -9q72 0 144.5 9t139.5 30zM262 39q49 0 94 16.5t80 41.5
q-7 25 -7 57q0 46 13.5 89t32.5 78q-21 -2 -50.5 -3.5t-51.5 -1.5q-53 0 -99 -10.5t-80.5 -31t-54 -51t-19.5 -71.5q0 -113 142 -113z" />
    <glyph glyph-name="parenleft.case" horiz-adv-x="329" 
d="M72 184q0 87 16 166.5t45.5 154t72.5 145t97 139.5l47 -36q-50 -67 -89.5 -132.5t-67 -134.5t-42 -143t-14.5 -158q0 -78 15.5 -152t43.5 -153l-56 -23q-36 94 -52 170.5t-16 156.5z" />
    <glyph glyph-name="parenright.case" horiz-adv-x="329" 
d="M278 462q0 -87 -15.5 -166t-45.5 -152.5t-73 -144.5t-97 -142l-47 36q50 67 89.5 134t67 137t42 143.5t14.5 153.5q0 78 -15 150t-44 155l56 23q35 -90 51.5 -168t16.5 -159z" />
    <glyph glyph-name="bracketleft.case" horiz-adv-x="340" 
d="M32 -133l161 912h176l-10 -53h-111l-142 -806h111l-9 -53h-176z" />
    <glyph glyph-name="bracketright.case" horiz-adv-x="339" 
d="M332 779l-161 -912h-176l10 53h111l142 806h-111l9 53h176z" />
    <glyph glyph-name="braceleft.case" horiz-adv-x="386" 
d="M170 26q-2 -9 -3 -19t-1 -18q0 -32 16.5 -50.5t61.5 -18.5h22l-9 -53h-24q-65 0 -98.5 32t-33.5 89q0 9 1 19.5t3 18.5l29 164q3 16 3 32q0 31 -15 53.5t-55 22.5h-19l7 50h21q48 0 72 28.5t32 75.5l30 169q7 43 20 73t33.5 49t49.5 27.5t69 8.5h36l-10 -53h-26
q-48 0 -72.5 -24t-34.5 -81l-29 -164q-11 -62 -38.5 -92.5t-80.5 -41.5q42 -13 58 -41t16 -66q0 -16 -3 -31z" />
    <glyph glyph-name="braceright.case" horiz-adv-x="386" 
d="M242 620q2 9 3 19t1 18q0 32 -16.5 50.5t-61.5 18.5h-22l9 53h24q66 0 99 -32t33 -89q0 -9 -1 -19.5t-3 -18.5l-29 -164q-3 -17 -3 -32q0 -31 15 -53.5t55 -22.5h19l-7 -50h-21q-48 0 -72 -28.5t-32 -75.5l-30 -169q-15 -86 -54 -122t-118 -36h-36l10 53h26q48 0 72.5 24
t34.5 81l29 164q11 59 37.5 91.5t81.5 42.5q-39 11 -56.5 40t-17.5 67q0 16 3 31z" />
    <glyph glyph-name="at.case" horiz-adv-x="801" 
d="M454 496q26 0 52 -6t47 -16l-26 -147q-3 -17 -3 -31q0 -32 14.5 -51.5t46.5 -19.5q28 0 51.5 14t40 38.5t25.5 58t9 71.5q0 55 -19.5 97.5t-55 72t-84 44.5t-106.5 15q-66 0 -124.5 -22.5t-102 -65t-68.5 -103t-25 -135.5q0 -134 76.5 -208t219.5 -74q67 0 127.5 13.5
t114.5 39.5l13 -41q-63 -29 -130 -42.5t-130 -13.5q-82 0 -145.5 24.5t-107 67.5t-66.5 102.5t-23 130.5q0 85 28 153.5t78 117t118 74.5t149 26q70 0 128 -20t99 -56t63.5 -86t22.5 -109q0 -50 -14 -91.5t-38.5 -71t-57.5 -46t-72 -16.5q-25 0 -44 8.5t-32.5 23t-20.5 33.5
t-7 39q-9 -20 -22 -38t-28.5 -31.5t-33 -22t-35.5 -8.5q-21 0 -35 9t-22.5 23.5t-12.5 33.5t-4 39q0 39 10.5 76t32 65t53.5 45t76 17zM450 452q-30 0 -52 -14t-36.5 -37t-21 -51.5t-6.5 -56.5q0 -24 7 -42.5t29 -18.5q14 0 28.5 9.5t28 25.5t26.5 37.5t24 45.5l17 96
q-18 6 -44 6z" />
    <glyph glyph-name="asterisk.case" horiz-adv-x="390" 
d="M218 547l22 125l36 -6l-21 -120l120 63l15 -32l-122 -63l103 -64l-19 -31l-108 68l-21 -125l-36 6l20 116l-116 -61l-15 32l123 62l-112 70l20 31z" />
    <glyph glyph-name="hyphen.case" horiz-adv-x="363" 
d="M80 288l8 54h235l-9 -54h-234z" />
    <glyph glyph-name="emdash.case" horiz-adv-x="776" 
d="M80 288l8 54h648l-9 -54h-647z" />
    <glyph glyph-name="slash.case" horiz-adv-x="424" 
d="M390 720l50 -27l-387 -766l-50 27z" />
    <glyph glyph-name="backslash.case" horiz-adv-x="424" 
d="M313 -54l-58 -10l-119 766l57 9z" />
    <glyph glyph-name="bullet.case" horiz-adv-x="401" 
d="M326 323q0 -25 -9 -47t-25 -38.5t-38.5 -26t-48.5 -9.5t-48 9.5t-38 26t-25 38.5t-9 47t9 47t25 38.5t38 26t48 9.5t48.5 -9.5t38.5 -26t25 -38.5t9 -47z" />
    <glyph glyph-name="questiondown.case" horiz-adv-x="410" 
d="M35 135q0 55 25.5 101.5t66.5 87t92.5 76t103.5 70.5l32 -47q-48 -32 -94 -64.5t-81.5 -67t-57 -72.5t-21.5 -80q0 -46 28 -71.5t71 -25.5q60 0 125 37l18 -51q-35 -20 -68.5 -30t-78.5 -10q-34 0 -63.5 9.5t-51 28.5t-34 46t-12.5 63zM380 635q0 -24 -15 -38.5
t-39 -14.5q-20 0 -31.5 12.5t-11.5 30.5q0 21 14 37t40 16q20 0 31.5 -12.5t11.5 -30.5z" />
    <glyph glyph-name="exclamdown.case" horiz-adv-x="272" 
d="M164 502h37l-38 -301l-35 -201h-68l35 201zM251 635q0 -24 -15 -38.5t-39 -14.5q-20 0 -31.5 12.5t-11.5 30.5q0 21 14 37t40 16q20 0 31.5 -12.5t11.5 -30.5z" />
    <glyph glyph-name="guillemotleft.case" horiz-adv-x="550" 
d="M226 149l-48 -31l-129 207l198 204l40 -39l-169 -171zM442 149l-48 -31l-129 207l198 204l40 -39l-169 -171z" />
    <glyph glyph-name="guillemotright.case" horiz-adv-x="550" 
d="M345 498l48 31l129 -207l-198 -204l-40 39l169 171zM129 498l48 31l129 -207l-198 -204l-40 39l169 171z" />
    <glyph glyph-name="guilsinglleft.case" horiz-adv-x="334" 
d="M226 149l-48 -31l-129 207l198 204l40 -39l-169 -171z" />
    <glyph glyph-name="guilsinglright.case" horiz-adv-x="334" 
d="M129 498l48 31l129 -207l-198 -204l-40 39l169 171z" />
    <glyph glyph-name="periodcentered.case" horiz-adv-x="242" 
d="M83 318q0 24 15 38.5t39 14.5q20 0 31.5 -12.5t11.5 -30.5q0 -21 -14 -37t-40 -16q-20 0 -31.5 12.5t-11.5 30.5z" />
    <glyph glyph-name="zero.tnum" 
d="M513 444q0 -39 -6 -87.5t-19 -99.5t-33.5 -99t-50.5 -86t-70 -61t-91 -23q-46 0 -79 19t-54 51.5t-31 75t-10 90.5q0 44 5.5 95t18 101.5t33 97t50.5 82t69.5 57t91.5 21.5q46 0 79 -18.5t54.5 -50.5t32 -74.5t10.5 -90.5zM247 41q35 0 63.5 20t51 53.5t39 76t27 87
t15.5 87.5t5 77q0 37 -6 70.5t-20 58.5t-36 39.5t-53 14.5q-38 0 -67.5 -20t-52 -53t-37.5 -75t-24.5 -86.5t-13.5 -87.5t-4 -78q0 -38 5.5 -71.5t19 -58.5t35 -39.5t53.5 -14.5z" />
    <glyph glyph-name="one.tnum" 
d="M75 53h160l96 543l-168 -49l-13 55l208 64h50l-108 -613h168l-9 -53h-393z" />
    <glyph glyph-name="two.tnum" 
d="M166 639q29 18 64.5 28.5t79.5 10.5q79 0 126 -44.5t47 -120.5q0 -47 -14 -88.5t-38 -79.5t-54.5 -73t-63.5 -68q-42 -42 -83 -80t-76 -70h290l-9 -54h-359l-8 42q57 53 102.5 98t89.5 90q25 27 53 58t51.5 66t38.5 73.5t15 79.5q0 51 -29.5 84t-85.5 33
q-34 0 -62.5 -9.5t-57.5 -25.5z" />
    <glyph glyph-name="three.tnum" 
d="M446 172q0 -39 -14.5 -73t-41.5 -58.5t-65.5 -38.5t-85.5 -14q-46 0 -89.5 15t-75.5 35l19 50q32 -20 67.5 -33.5t80.5 -13.5q71 0 105.5 37.5t34.5 92.5q0 33 -14.5 59.5t-40 45.5t-59.5 29t-73 10h-12l4 54h10q44 0 83.5 11t69 31t47 49.5t17.5 66.5q0 46 -32 71.5
t-83 25.5q-34 0 -64.5 -8.5t-58.5 -22.5l-13 50q29 17 65 26t81 9q35 0 66 -9.5t54 -27.5t36.5 -45t13.5 -61q0 -76 -50 -124.5t-128 -70.5q29 -9 55.5 -23.5t46.5 -35t32 -48t12 -61.5z" />
    <glyph glyph-name="four.tnum" 
d="M368 647l-240 -399h231l29 163h62l-29 -163h87l-8 -52h-88l-35 -196h-62l34 196h-280l-11 49l262 433z" />
    <glyph glyph-name="five.tnum" 
d="M463 184q0 -44 -16.5 -80t-46 -61.5t-70.5 -40t-89 -14.5q-42 0 -86 10.5t-78 28.5l15 53q33 -17 69 -27.5t79 -10.5q78 0 118 38.5t40 98.5q0 37 -17.5 63.5t-50 44.5t-77.5 27.5t-99 12.5l60 339h301l-9 -54h-236l-42 -239q41 -4 83 -15.5t75.5 -34t55 -56.5t21.5 -83z
" />
    <glyph glyph-name="six.tnum" 
d="M510 627q-149 -42 -237.5 -120.5t-116.5 -187.5q23 23 62 41.5t95 18.5q39 0 72 -13t57 -37t37.5 -57.5t13.5 -73.5q0 -45 -16 -83.5t-44 -66.5t-66.5 -44t-84.5 -16q-51 0 -89 20t-63 53t-37 76t-12 90q0 88 32.5 162.5t89 132t131.5 97t161 59.5zM283 40q32 0 59 11.5
t46.5 31.5t30 48t10.5 61q0 62 -34 98.5t-91 36.5q-51 0 -89 -19.5t-68 -46.5q-3 -20 -3 -40q0 -33 8 -65t25 -58t43 -42t63 -16z" />
    <glyph glyph-name="seven.tnum" 
d="M534 611l-387 -623l-50 30l370 594h-315l7 54h370z" />
    <glyph glyph-name="eight.tnum" 
d="M346 678q37 0 68 -10.5t53.5 -28.5t34.5 -43t12 -54q0 -35 -15.5 -64t-39 -53t-51 -42.5t-52.5 -33.5q22 -17 44 -36t39.5 -41t28 -47t10.5 -55q0 -41 -16.5 -74.5t-45 -57.5t-67.5 -37t-84 -13q-42 0 -76 11.5t-59 32.5t-38.5 49.5t-13.5 61.5q0 43 18.5 76t46 58.5
t60 43.5t61.5 32q-20 14 -40 32t-35.5 39.5t-25 45.5t-9.5 50q0 38 14.5 67.5t40.5 49.5t61 30.5t76 10.5zM415 167q0 23 -9.5 43.5t-25 39t-35 35.5t-40.5 34q-27 -16 -56.5 -32t-53.5 -36t-39.5 -46t-15.5 -61q0 -50 34 -77.5t94 -27.5q66 0 106.5 34.5t40.5 93.5z
M216 521q0 -23 8 -42t21.5 -36t31 -32.5t36.5 -29.5q24 14 48.5 30t45 35.5t33 42.5t12.5 50q0 39 -30.5 63.5t-78.5 24.5q-27 0 -50 -6.5t-40 -20t-27 -33t-10 -46.5z" />
    <glyph glyph-name="nine.tnum" 
d="M81 39q149 42 235.5 118t118.5 190q-23 -23 -62 -41.5t-95 -18.5q-40 0 -73 13t-57 37t-37 57.5t-13 74.5q0 42 14 80t41 66.5t66 45.5t90 17q50 0 87.5 -19.5t63 -52t38 -75.5t12.5 -90q0 -90 -33 -164.5t-89 -132t-131.5 -97t-160.5 -59.5zM308 626q-34 0 -61 -12
t-46 -33t-29 -49t-10 -60q0 -63 32.5 -98t92.5 -35q51 0 89 19.5t68 46.5q3 19 3 40q0 33 -8 65t-25 58t-43 42t-63 16z" />
    <glyph glyph-name="cent.tnum" 
d="M225 -22l22 123q-32 7 -56.5 25t-40.5 42.5t-24 54.5t-8 63q0 53 14 101t41 86t66.5 63t90.5 33l20 119h61l-21 -119q26 -2 53.5 -10t50.5 -21l-16 -51q-27 14 -54.5 22.5t-59.5 8.5q-45 0 -78.5 -20t-56.5 -52t-34.5 -74t-11.5 -85q0 -65 29.5 -102.5t92.5 -37.5
q31 0 58 8t57 23l14 -47q-25 -16 -59.5 -25.5t-68.5 -10.5l-20 -117h-61z" />
    <glyph glyph-name="dollar.tnum" 
d="M199 -113l21 115q-33 5 -67 16t-59 24l16 51q31 -17 69 -28.5t76 -11.5q56 0 92.5 27t36.5 85q0 50 -28.5 87t-74.5 77q-52 45 -83 86.5t-31 94.5q0 36 12 64t33.5 47.5t50.5 30.5t63 12l21 115h59l-21 -116q29 -4 58 -13t54 -24l-17 -53q-34 19 -66 29t-70 10
q-50 0 -81 -25t-31 -74q0 -40 22 -70.5t63 -65.5q23 -20 46.5 -42t42.5 -47t31 -54t12 -64t-12.5 -64.5t-35 -52t-54 -36t-68.5 -16.5l-20 -114h-60z" />
    <glyph glyph-name="Euro.tnum" 
d="M33 269h93q3 65 18 128h-88l8 47h93q15 49 39 91.5t57.5 74t79 50t104.5 18.5q35 0 67.5 -6t61.5 -20l-13 -50q-25 11 -54.5 17.5t-61.5 6.5q-43 0 -77 -13.5t-60.5 -38t-46 -58t-32.5 -72.5h269l-8 -47h-275q-7 -29 -11.5 -61.5t-5.5 -66.5h270l-8 -47h-263
q0 -38 7.5 -71.5t24.5 -58t46 -38.5t73 -14q31 0 61 5.5t57 16.5l7 -49q-25 -11 -61.5 -18t-71.5 -7q-55 0 -94 20t-64 52.5t-37 74.5t-12 87h-100z" />
    <glyph glyph-name="sterling.tnum" 
d="M96 331h104l25 140q19 106 66 156.5t135 50.5q35 0 66 -7t55 -20l-12 -52q-50 25 -105 25q-30 0 -52.5 -8.5t-39.5 -27t-29 -49t-20 -74.5l-24 -134h173l-7 -53h-177q-31 -152 -136 -233q20 10 42.5 17t57.5 7q21 0 39.5 -4t35.5 -9t34 -9t36 -4q29 0 48.5 7t42.5 20
l18 -46q-20 -15 -48 -24.5t-62 -9.5q-22 0 -41.5 4t-38 9.5t-37.5 9.5t-41 4q-43 0 -74.5 -7.5t-64.5 -21.5l-21 48q61 46 96.5 108t49.5 134h-103z" />
    <glyph glyph-name="yen.tnum" 
d="M383 378h109l-8 -48h-130l-42 -69l-10 -55h160l-9 -47h-160l-27 -159h-65l27 159h-157l9 47h157l10 58l-17 66h-129l9 48h107l-77 288h67l83 -340l198 340h72z" />
    <glyph glyph-name="numbersign.tnum" horiz-adv-x="646" 
d="M397 185h-194l-52 -185h-54l53 185h-114l8 46h119l60 212h-122l8 46h127l49 177h54l-50 -177h194l50 177h54l-50 -177h107l-8 -46h-112l-60 -212h113l-8 -46h-117l-53 -185h-54zM216 231h194l60 212h-194z" />
    <glyph glyph-name="plus.tnum" 
d="M315 298v-209h-59v209h-196v51h196v209h59v-209h196v-51h-196z" />
    <glyph glyph-name="plusminus.tnum" 
d="M315 322v-186h-59v186h-196v50h196v185h59v-185h196v-50h-196zM60 51h451v-51h-451v51z" />
    <glyph glyph-name="multiply.tnum" 
d="M447 523l39 -38l-163 -162l163 -162l-39 -39l-162 163l-162 -163l-38 39l162 162l-162 162l38 38l162 -163z" />
    <glyph glyph-name="divide.tnum" 
d="M60 298v51h451v-51h-451zM236 143q0 20 13.5 34.5t35.5 14.5q23 0 36 -14.5t13 -34.5t-13 -34.5t-36 -14.5q-22 0 -35.5 14.5t-13.5 34.5zM236 504q0 20 13.5 34.5t35.5 14.5q23 0 36 -14.5t13 -34.5t-13 -34.5t-36 -14.5q-22 0 -35.5 14.5t-13.5 34.5z" />
    <glyph glyph-name="equal.tnum" 
d="M75 453h441v-51h-441v51zM75 244h441v-51h-441v51z" />
    <glyph glyph-name="notequal.tnum" 
d="M75 453h266l68 118l42 -25l-54 -93h119v-51h-148l-90 -158h238v-51h-268l-67 -118l-42 25l53 93h-117v51h146l91 158h-237v51z" />
    <glyph glyph-name="logicalnot.tnum" 
d="M452 89v209h-392v51h451v-260h-59z" />
    <glyph glyph-name="approxequal.tnum" 
d="M387 353q-30 0 -55 9.5t-54 24.5q-26 14 -45 21.5t-42 7.5q-27 0 -48.5 -11.5t-47.5 -33.5l-27 39q30 28 58 42.5t66 14.5q28 0 52 -7.5t54 -24.5q26 -14 45.5 -22.5t44.5 -8.5q26 0 46 11t43 31l27 -38q-27 -24 -55 -39.5t-62 -15.5zM387 179q-30 0 -55 9.5t-54 24.5
q-26 14 -45 21.5t-42 7.5q-27 0 -48.5 -11.5t-47.5 -33.5l-27 39q30 28 58 42.5t66 14.5q28 0 52 -7.5t54 -24.5q26 -14 45.5 -22.5t44.5 -8.5q26 0 46 11t43 31l27 -38q-27 -24 -55 -39.5t-62 -15.5z" />
    <glyph glyph-name="endash.tnum" 
d="M93 289l8 54h378l-8 -54h-378z" />
    <glyph glyph-name="minus.tnum" 
d="M80 296v52h412v-52h-412z" />
    <glyph glyph-name="less.tnum" 
d="M488 567l23 -48l-389 -196l389 -196l-23 -48l-428 219v50z" />
    <glyph glyph-name="greater.tnum" 
d="M511 348v-50l-428 -219l-23 48l389 196l-389 196l23 48z" />
    <glyph glyph-name="lessequal.tnum" 
d="M497 567l19 -51l-390 -159l390 -159l-19 -51l-442 186v48zM55 51h461v-51h-461v51z" />
    <glyph glyph-name="greaterequal.tnum" 
d="M516 381v-48l-442 -186l-19 51l390 159l-390 159l19 51zM516 0h-461v51h461v-51z" />
    <glyph glyph-name="percent.tnum" horiz-adv-x="854" 
d="M632 678l44 -30l-434 -660l-43 30zM406 526q0 -38 -12 -79t-36 -75.5t-59.5 -57t-81.5 -22.5q-33 0 -58 13t-41.5 34.5t-24.5 49.5t-8 58q0 45 12.5 86.5t36.5 74t59 51.5t80 19q33 0 58 -12t41.5 -33t25 -48.5t8.5 -58.5zM221 338q32 0 56 17.5t40.5 44.5t25 59.5
t8.5 63.5q0 45 -20.5 77t-63.5 32q-32 0 -56 -17t-39.5 -43.5t-23.5 -59.5t-8 -65q0 -22 4 -41.5t13.5 -34.5t25 -24t38.5 -9zM795 222q0 -38 -12 -79t-36 -75.5t-59.5 -57t-81.5 -22.5q-33 0 -58 13t-41.5 34.5t-24.5 49.5t-8 58q0 45 12.5 86.5t36.5 74t59 51.5t80 19
q33 0 58 -12t41.5 -33t25 -48.5t8.5 -58.5zM610 34q32 0 56 17.5t40.5 44.5t25 59.5t8.5 63.5q0 45 -20.5 77t-63.5 32q-32 0 -56 -17t-39.5 -43.5t-23.5 -59.5t-8 -65q0 -22 4 -41.5t13.5 -34.5t25 -24t38.5 -9z" />
    <glyph glyph-name="perthousand.tnum" horiz-adv-x="1229" 
d="M632 678l44 -30l-434 -660l-43 30zM406 526q0 -38 -12 -79t-36 -75.5t-59.5 -57t-81.5 -22.5q-33 0 -58 13t-41.5 34.5t-24.5 49.5t-8 58q0 45 12.5 86.5t36.5 74t59 51.5t80 19q33 0 58 -12t41.5 -33t25 -48.5t8.5 -58.5zM221 338q32 0 56 17.5t40.5 44.5t25 59.5
t8.5 63.5q0 45 -20.5 77t-63.5 32q-32 0 -56 -17t-39.5 -43.5t-23.5 -59.5t-8 -65q0 -22 4 -41.5t13.5 -34.5t25 -24t38.5 -9zM795 222q0 -38 -12 -79t-36 -75.5t-59.5 -57t-81.5 -22.5q-33 0 -58 13t-41.5 34.5t-24.5 49.5t-8 58q0 45 12.5 86.5t36.5 74t59 51.5t80 19
q33 0 58 -12t41.5 -33t25 -48.5t8.5 -58.5zM610 34q32 0 56 17.5t40.5 44.5t25 59.5t8.5 63.5q0 45 -20.5 77t-63.5 32q-32 0 -56 -17t-39.5 -43.5t-23.5 -59.5t-8 -65q0 -22 4 -41.5t13.5 -34.5t25 -24t38.5 -9zM1170 222q0 -38 -12 -79t-36 -75.5t-59.5 -57t-81.5 -22.5
q-33 0 -58 13t-41.5 34.5t-24.5 49.5t-8 58q0 45 12.5 86.5t36.5 74t59 51.5t80 19q33 0 58 -12t41.5 -33t25 -48.5t8.5 -58.5zM985 34q32 0 56 17.5t40.5 44.5t25 59.5t8.5 63.5q0 45 -20.5 77t-63.5 32q-32 0 -56 -17t-39.5 -43.5t-23.5 -59.5t-8 -65q0 -22 4 -41.5
t13.5 -34.5t25 -24t38.5 -9z" />
    <glyph glyph-name="zero.onum" horiz-adv-x="565" 
d="M521 301q0 -59 -19 -115t-54.5 -100t-86.5 -71t-116 -27q-47 0 -84.5 16.5t-63 44.5t-39 66t-13.5 81q0 58 17.5 114t52.5 100.5t86 71.5t119 27q50 0 88 -16.5t63 -44.5t37.5 -66t12.5 -81zM250 41q50 0 88.5 22.5t64.5 59.5t39.5 83t13.5 93q0 33 -9 61.5t-27 49.5
t-44.5 33.5t-61.5 12.5q-48 0 -86 -22.5t-64.5 -58.5t-40 -82t-13.5 -94q0 -35 8 -64t25 -50t43.5 -32.5t63.5 -11.5z" />
    <glyph glyph-name="one.onum" horiz-adv-x="344" 
d="M149 0l75 425l-165 -50l-14 54l209 68h48l-88 -497h-65z" />
    <glyph glyph-name="two.onum" horiz-adv-x="487" 
d="M106 471q66 38 151 38q34 0 63.5 -10t51.5 -28.5t34 -45t12 -59.5q0 -42 -16 -75.5t-40 -60.5t-53 -49.5t-56 -41.5q-28 -20 -60.5 -41.5t-66.5 -44.5h296l-9 -53h-375l-11 44q45 34 86 62.5t83 59.5q26 19 54 40t50.5 45t37 51t14.5 59q0 42 -26.5 68t-77.5 26
q-33 0 -63 -9t-62 -26z" />
    <glyph glyph-name="three.onum" horiz-adv-x="457" 
d="M378 3q0 -40 -15 -73.5t-42 -58t-66 -38.5t-87 -14q-24 0 -48.5 4.5t-48 11.5t-43.5 16t-35 18l16 50q35 -21 76.5 -34t83.5 -13q72 0 108 36.5t36 90.5q0 36 -16.5 61.5t-43 43t-60 27.5t-67.5 13l-20 2l3 51l33 5q35 5 70 17t62.5 30.5t45 45t17.5 60.5q0 46 -31 73.5
t-87 27.5q-32 0 -64.5 -8t-61.5 -25l-14 50q26 16 65 26t84 10q42 0 74 -11t54.5 -30.5t34 -46.5t11.5 -58q0 -39 -14.5 -69.5t-39.5 -54t-58 -40.5t-69 -27q33 -9 62 -24t50 -36t33 -48.5t12 -60.5z" />
    <glyph glyph-name="four.onum" horiz-adv-x="521" 
d="M370 50l-40 -221h-62l39 221h-276l-11 51l362 396h66l-69 -395h102l-8 -52h-103zM371 414l-277 -312h222z" />
    <glyph glyph-name="five.onum" horiz-adv-x="460" 
d="M392 14q0 -42 -15.5 -78t-44 -62t-69.5 -40.5t-92 -14.5q-21 0 -44 3t-46 8.5t-44 12.5t-37 15l15 53q31 -16 70.5 -27.5t83.5 -11.5q78 0 118 37.5t40 100.5q0 38 -19.5 64.5t-53.5 43.5t-79.5 26t-97.5 12l60 341h306l-9 -54h-241l-43 -242q43 -2 86 -14t77.5 -35
t56.5 -57.5t22 -80.5z" />
    <glyph glyph-name="six.onum" horiz-adv-x="534" 
d="M494 627q-149 -42 -237.5 -120.5t-116.5 -187.5q23 23 62 41.5t95 18.5q39 0 72 -13t57 -37t37.5 -57.5t13.5 -73.5q0 -45 -16 -83.5t-44 -66.5t-66.5 -44t-84.5 -16q-51 0 -89 20t-63 53t-37 76t-12 90q0 88 32.5 162.5t89 132t131.5 97t161 59.5zM267 40q32 0 59 11.5
t46.5 31.5t30 48t10.5 61q0 62 -34 98.5t-91 36.5q-51 0 -89 -19.5t-68 -46.5q-3 -20 -3 -40q0 -33 8 -65t25 -58t43 -42t63 -16z" />
    <glyph glyph-name="seven.onum" horiz-adv-x="456" 
d="M445 442q-49 -92 -95.5 -170.5t-95.5 -152t-102 -146.5t-115 -154l-46 35q58 76 109.5 146.5t99 141t92 144.5t89.5 157h-309l8 54h357z" />
    <glyph glyph-name="eight.onum" horiz-adv-x="511" 
d="M318 678q37 0 68 -10.5t53.5 -28.5t34.5 -43t12 -54q0 -35 -15.5 -64t-39 -53t-51 -42.5t-52.5 -33.5q22 -17 44 -36t39.5 -41t28 -47t10.5 -55q0 -41 -16.5 -74.5t-45 -57.5t-67.5 -37t-84 -13q-42 0 -76 11.5t-59 32.5t-38.5 49.5t-13.5 61.5q0 43 18.5 76t46 58.5
t60 43.5t61.5 32q-20 14 -40 32t-35.5 39.5t-25 45.5t-9.5 50q0 38 14.5 67.5t40.5 49.5t61 30.5t76 10.5zM387 167q0 23 -9.5 43.5t-25 39t-35 35.5t-40.5 34q-27 -16 -56.5 -32t-53.5 -36t-39.5 -46t-15.5 -61q0 -50 34 -77.5t94 -27.5q66 0 106.5 34.5t40.5 93.5z
M188 521q0 -23 8 -42t21.5 -36t31 -32.5t36.5 -29.5q24 14 48.5 30t45 35.5t33 42.5t12.5 50q0 39 -30.5 63.5t-78.5 24.5q-27 0 -50 -6.5t-40 -20t-27 -33t-10 -46.5z" />
    <glyph glyph-name="nine.onum" horiz-adv-x="539" 
d="M50 -130q149 42 235.5 118t118.5 190q-23 -23 -62 -41.5t-95 -18.5q-40 0 -73 13t-57 37t-37 57.5t-13 74.5q0 42 14 80t41 66.5t66 45.5t90 17q50 0 87.5 -19.5t63 -52t38 -75.5t12.5 -90q0 -90 -33 -164.5t-89 -132t-131.5 -97t-160.5 -59.5zM277 457q-34 0 -61 -12
t-46 -33t-29 -49t-10 -60q0 -63 32.5 -98t92.5 -35q51 0 89 19.5t68 46.5q3 19 3 40q0 33 -8 65t-25 58t-43 42t-63 16z" />
    <glyph glyph-name="cent.onum" horiz-adv-x="483" 
d="M179 -83l21 122q-61 12 -98 57.5t-37 113.5q0 51 14.5 95.5t42 78.5t66.5 55.5t88 27.5l21 121h61l-22 -121q31 -2 57.5 -10.5t44.5 -19.5l-17 -49q-23 12 -52.5 20.5t-60.5 8.5q-41 0 -74 -15.5t-56 -43t-36 -64.5t-13 -80q0 -60 31 -94t91 -34q32 0 60 8.5t57 25.5
l16 -47q-23 -14 -56 -25t-68 -13l-20 -118h-61z" />
    <glyph glyph-name="dollar.onum" horiz-adv-x="429" 
d="M125 -109l20 112q-13 2 -28.5 5.5t-32 9t-32.5 12t-29 13.5l15 50q32 -17 71 -29.5t77 -12.5q51 0 82 22t31 65q0 19 -8.5 34t-22.5 28t-31.5 24.5t-35.5 22.5q-21 13 -42 26.5t-37.5 30t-26.5 36.5t-10 44q0 31 11 55t30.5 40.5t46 25.5t56.5 11l19 109h61l-20 -111
q29 -4 55.5 -12.5t51.5 -22.5l-17 -49q-28 17 -63 27t-69 10q-42 0 -70.5 -17.5t-28.5 -58.5q0 -16 6 -28.5t16.5 -23t24.5 -19.5t30 -19q18 -12 42 -26t45 -32.5t35.5 -43t14.5 -55.5q0 -32 -12 -57.5t-33.5 -43.5t-50 -29t-61.5 -13l-19 -110h-61z" />
    <glyph glyph-name="Euro.onum" horiz-adv-x="547" 
d="M398 519q41 0 74 -7t65 -22l-13 -49q-30 13 -60 20t-65 7q-71 0 -115.5 -33t-67.5 -87h232l-8 -42h-239q-12 -45 -12 -96h235l-8 -42h-225q9 -60 48.5 -93.5t109.5 -33.5q33 0 65 6t63 20l10 -47q-26 -13 -64.5 -21.5t-79.5 -8.5q-47 0 -84 13.5t-64 37.5t-44 56.5
t-22 70.5h-94l7 42h84q0 25 3.5 48.5t8.5 47.5h-79l8 42h84q27 76 89 123.5t158 47.5z" />
    <glyph glyph-name="sterling.onum" horiz-adv-x="523" 
d="M71 273h96l8 45q19 104 66 152.5t134 48.5q35 0 66.5 -8t56.5 -22l-16 -50q-26 13 -52 20t-55 7q-59 0 -90 -35t-45 -113l-8 -45h177l-9 -52h-178q-14 -62 -41.5 -103.5t-72.5 -73.5q21 13 45.5 20t56.5 7q19 0 35.5 -4.5t32.5 -10t32.5 -10t35.5 -4.5q24 0 42 6.5
t33 17.5l17 -45q-17 -13 -43 -22t-57 -9q-20 0 -38 4.5t-36 10.5t-36.5 10.5t-39.5 4.5q-40 0 -73 -9.5t-61 -22.5l-19 47q51 38 79.5 81t42.5 105h-96z" />
    <glyph glyph-name="yen.onum" horiz-adv-x="506" 
d="M366 304h87l-8 -44h-107l-51 -78l-4 -21h145l-8 -44h-144l-21 -117h-65l21 117h-146l8 44h145l6 29l-24 70h-110l8 44h87l-69 205h63l86 -271l165 271h71z" />
    <glyph glyph-name="numbersign.onum" horiz-adv-x="632" 
d="M380 136h-190l-40 -136h-52l39 136h-100l7 44h106l50 173h-106l7 44h112l36 122h53l-36 -122h190l36 122h53l-36 -122h97l-8 -44h-102l-50 -173h104l-7 -44h-110l-40 -136h-53zM203 180h190l50 173h-190z" />
    <glyph glyph-name="plus.onum" horiz-adv-x="601" 
d="M325 229v-209h-59v209h-196v51h196v209h59v-209h196v-51h-196z" />
    <glyph glyph-name="plusminus.onum" horiz-adv-x="615" 
d="M347 278v-160h-59v160h-196v51h196v160h59v-160h196v-51h-196zM92 51h451v-51h-451v51z" />
    <glyph glyph-name="multiply.onum" horiz-adv-x="571" 
d="M445 454l39 -38l-163 -162l163 -162l-39 -39l-162 163l-162 -163l-38 39l162 162l-162 162l38 38l162 -163z" />
    <glyph glyph-name="divide.onum" horiz-adv-x="611" 
d="M90 229v51h451v-51h-451zM266 74q0 20 13.5 34.5t35.5 14.5q23 0 36 -14.5t13 -34.5t-13 -34.5t-36 -14.5q-22 0 -35.5 14.5t-13.5 34.5zM266 435q0 20 13.5 34.5t35.5 14.5q23 0 36 -14.5t13 -34.5t-13 -34.5t-36 -14.5q-22 0 -35.5 14.5t-13.5 34.5z" />
    <glyph glyph-name="equal.onum" horiz-adv-x="621" 
d="M95 384h441v-51h-441v51zM95 175h441v-51h-441v51z" />
    <glyph glyph-name="notequal.onum" horiz-adv-x="631" 
d="M100 384h266l68 118l42 -25l-54 -93h119v-51h-148l-90 -158h238v-51h-268l-67 -118l-42 25l53 93h-117v51h146l91 158h-237v51z" />
    <glyph glyph-name="logicalnot.onum" horiz-adv-x="621" 
d="M462 20v209h-392v51h451v-260h-59z" />
    <glyph glyph-name="approxequal.onum" horiz-adv-x="591" 
d="M409 284q-30 0 -55 9.5t-54 24.5q-26 14 -45 21.5t-42 7.5q-27 0 -48.5 -11.5t-47.5 -33.5l-27 39q30 28 58 42.5t66 14.5q28 0 52 -7.5t54 -24.5q26 -14 45.5 -22.5t44.5 -8.5q26 0 46 11t43 31l27 -38q-27 -24 -55 -39.5t-62 -15.5zM409 110q-30 0 -55 9.5t-54 24.5
q-26 14 -45 21.5t-42 7.5q-27 0 -48.5 -11.5t-47.5 -33.5l-27 39q30 28 58 42.5t66 14.5q28 0 52 -7.5t54 -24.5q26 -14 45.5 -22.5t44.5 -8.5q26 0 46 11t43 31l27 -38q-27 -24 -55 -39.5t-62 -15.5z" />
    <glyph glyph-name="endash.onum" horiz-adv-x="521" 
d="M75 227l9 54h377l-9 -54h-377z" />
    <glyph glyph-name="minus.onum" 
d="M80 229v52h412v-52h-412z" />
    <glyph glyph-name="less.onum" horiz-adv-x="601" 
d="M498 498l23 -48l-389 -196l389 -196l-23 -48l-428 219v50z" />
    <glyph glyph-name="greater.onum" horiz-adv-x="601" 
d="M531 279v-50l-428 -219l-23 48l389 196l-389 196l23 48z" />
    <glyph glyph-name="lessequal.onum" horiz-adv-x="621" 
d="M528 498l15 -50l-388 -129l388 -129l-15 -50l-440 152v54zM85 51h461v-51h-461v51z" />
    <glyph glyph-name="greaterequal.onum" horiz-adv-x="621" 
d="M533 346v-54l-440 -152l-15 50l388 129l-388 129l15 50zM536 0h-461v51h461v-51z" />
    <glyph glyph-name="percent.onum" horiz-adv-x="792" 
d="M557 529l40 -28l-369 -511l-40 29zM361 404q0 -33 -12 -63t-34.5 -53t-53.5 -36.5t-69 -13.5q-29 0 -52.5 9.5t-40 26.5t-25.5 40t-9 50q0 33 11.5 63t33 52.5t52.5 36t71 13.5q30 0 54 -10t40.5 -27t25 -39.5t8.5 -48.5zM197 282q26 0 46.5 10t35 26.5t22 38t7.5 44.5
q0 34 -18.5 59t-62.5 25q-49 0 -79 -33t-30 -86q0 -39 18.5 -61.5t60.5 -22.5zM722 156q0 -33 -12 -63t-34.5 -53t-53.5 -36.5t-69 -13.5q-29 0 -52.5 9.5t-40 26.5t-25.5 40t-9 50q0 33 11.5 63t33 52.5t52.5 36t71 13.5q30 0 54 -10t40.5 -27t25 -39.5t8.5 -48.5zM558 34
q26 0 46.5 10t35 26.5t22 38t7.5 44.5q0 34 -18.5 59t-62.5 25q-49 0 -79 -33t-30 -86q0 -39 18.5 -61.5t60.5 -22.5z" />
    <glyph glyph-name="perthousand.onum" horiz-adv-x="1136" 
d="M557 529l40 -28l-369 -511l-40 29zM361 404q0 -33 -12 -63t-34.5 -53t-53.5 -36.5t-69 -13.5q-29 0 -52.5 9.5t-40 26.5t-25.5 40t-9 50q0 33 11.5 63t33 52.5t52.5 36t71 13.5q30 0 54 -10t40.5 -27t25 -39.5t8.5 -48.5zM197 282q26 0 46.5 10t35 26.5t22 38t7.5 44.5
q0 34 -18.5 59t-62.5 25q-49 0 -79 -33t-30 -86q0 -39 18.5 -61.5t60.5 -22.5zM722 156q0 -33 -12 -63t-34.5 -53t-53.5 -36.5t-69 -13.5q-29 0 -52.5 9.5t-40 26.5t-25.5 40t-9 50q0 33 11.5 63t33 52.5t52.5 36t71 13.5q30 0 54 -10t40.5 -27t25 -39.5t8.5 -48.5zM558 34
q26 0 46.5 10t35 26.5t22 38t7.5 44.5q0 34 -18.5 59t-62.5 25q-49 0 -79 -33t-30 -86q0 -39 18.5 -61.5t60.5 -22.5zM1066 156q0 -33 -12 -63t-34.5 -53t-53.5 -36.5t-69 -13.5q-29 0 -52.5 9.5t-40 26.5t-25.5 40t-9 50q0 33 11.5 63t33 52.5t52.5 36t71 13.5q30 0 54 -10
t40.5 -27t25 -39.5t8.5 -48.5zM902 34q26 0 46.5 10t35 26.5t22 38t7.5 44.5q0 34 -18.5 59t-62.5 25q-49 0 -79 -33t-30 -86q0 -39 18.5 -61.5t60.5 -22.5z" />
    <glyph glyph-name="zeroonum.tnum" 
d="M498 301q0 -58 -18 -114t-51.5 -100.5t-81.5 -71.5t-109 -27q-46 0 -80.5 17.5t-57.5 46t-34.5 66t-11.5 78.5q0 57 16.5 113.5t49.5 100.5t81.5 71.5t111.5 27.5q46 0 81 -16.5t58 -45t34.5 -66t11.5 -80.5zM243 41q43 0 78 22t60 58t38.5 82.5t13.5 95.5
q0 33 -7.5 61.5t-23 49.5t-39.5 33.5t-56 12.5q-42 0 -77 -22.5t-59.5 -58.5t-38 -82.5t-13.5 -94.5q0 -69 30 -113t94 -44z" />
    <glyph glyph-name="oneonum.tnum" 
d="M64 53h171l67 377l-171 -48l-11 54l211 61h47l-78 -444h172l-10 -53h-408z" />
    <glyph glyph-name="twoonum.tnum" 
d="M147 471q66 38 151 38q34 0 63.5 -10t51.5 -28.5t34 -45t12 -59.5q0 -42 -16 -75.5t-40 -60.5t-53 -49.5t-56 -41.5q-28 -20 -60.5 -41.5t-66.5 -44.5h296l-9 -53h-375l-11 44q45 34 86 62.5t83 59.5q26 19 54 40t50.5 45t37 51t14.5 59q0 42 -26.5 68t-77.5 26
q-33 0 -63 -9t-62 -26z" />
    <glyph glyph-name="threeonum.tnum" 
d="M426 3q0 -40 -15 -73.5t-42 -58t-66 -38.5t-87 -14q-24 0 -48.5 4.5t-48 11.5t-43.5 16t-35 18l16 50q35 -21 76.5 -34t83.5 -13q72 0 108 36.5t36 90.5q0 36 -16.5 61.5t-43 43t-60 27.5t-67.5 13l-20 2l3 51l33 5q35 5 70 17t62.5 30.5t45 45t17.5 60.5q0 46 -31 73.5
t-87 27.5q-32 0 -64.5 -8t-61.5 -25l-14 50q26 16 65 26t84 10q42 0 74 -11t54.5 -30.5t34 -46.5t11.5 -58q0 -39 -14.5 -69.5t-39.5 -54t-58 -40.5t-69 -27q33 -9 62 -24t50 -36t33 -48.5t12 -60.5z" />
    <glyph glyph-name="fouronum.tnum" 
d="M342 481l-231 -390h229l31 175h62l-31 -175h108l-9 -52h-108l-37 -210h-63l38 210h-277l-12 51l251 419z" />
    <glyph glyph-name="fiveonum.tnum" 
d="M440 14q0 -42 -15.5 -78t-44 -62t-69.5 -40.5t-92 -14.5q-21 0 -44 3t-46 8.5t-44 12.5t-37 15l15 53q31 -16 70.5 -27.5t83.5 -11.5q78 0 118 37.5t40 100.5q0 38 -19.5 64.5t-53.5 43.5t-79.5 26t-97.5 12l60 341h298l-9 -53h-233l-43 -243q43 -2 86 -14t77.5 -35
t56.5 -57.5t22 -80.5z" />
    <glyph glyph-name="sixonum.tnum" 
d="M510 627q-149 -42 -237.5 -120.5t-116.5 -187.5q23 23 62 41.5t95 18.5q39 0 72 -13t57 -37t37.5 -57.5t13.5 -73.5q0 -45 -16 -83.5t-44 -66.5t-66.5 -44t-84.5 -16q-51 0 -89 20t-63 53t-37 76t-12 90q0 88 32.5 162.5t89 132t131.5 97t161 59.5zM283 40q32 0 59 11.5
t46.5 31.5t30 48t10.5 61q0 62 -34 98.5t-91 36.5q-51 0 -89 -19.5t-68 -46.5q-3 -20 -3 -40q0 -33 8 -65t25 -58t43 -42t63 -16z" />
    <glyph glyph-name="sevenonum.tnum" 
d="M503 442q-49 -93 -94 -169.5t-93 -148.5t-101.5 -145.5t-119.5 -159.5l-46 36q62 80 113 149.5t96.5 138t89 141t90.5 158.5h-318l9 55h367z" />
    <glyph glyph-name="eightonum.tnum" 
d="M336 678q37 0 68 -10.5t53.5 -28.5t34.5 -43t12 -54q0 -35 -15.5 -64t-39 -53t-51 -42.5t-52.5 -33.5q22 -17 44 -36t39.5 -41t28 -47t10.5 -55q0 -41 -16.5 -74.5t-45 -57.5t-67.5 -37t-84 -13q-42 0 -76 11.5t-59 32.5t-38.5 49.5t-13.5 61.5q0 43 18.5 76t46 58.5
t60 43.5t61.5 32q-20 14 -40 32t-35.5 39.5t-25 45.5t-9.5 50q0 38 14.5 67.5t40.5 49.5t61 30.5t76 10.5zM405 167q0 23 -9.5 43.5t-25 39t-35 35.5t-40.5 34q-27 -16 -56.5 -32t-53.5 -36t-39.5 -46t-15.5 -61q0 -50 34 -77.5t94 -27.5q66 0 106.5 34.5t40.5 93.5z
M206 521q0 -23 8 -42t21.5 -36t31 -32.5t36.5 -29.5q24 14 48.5 30t45 35.5t33 42.5t12.5 50q0 39 -30.5 63.5t-78.5 24.5q-27 0 -50 -6.5t-40 -20t-27 -33t-10 -46.5z" />
    <glyph glyph-name="nineonum.tnum" 
d="M51 -130q149 42 235.5 118t118.5 190q-23 -23 -62 -41.5t-95 -18.5q-40 0 -73 13t-57 37t-37 57.5t-13 74.5q0 42 14 80t41 66.5t66 45.5t90 17q50 0 87.5 -19.5t63 -52t38 -75.5t12.5 -90q0 -90 -33 -164.5t-89 -132t-131.5 -97t-160.5 -59.5zM278 457q-34 0 -61 -12
t-46 -33t-29 -49t-10 -60q0 -63 32.5 -98t92.5 -35q51 0 89 19.5t68 46.5q3 19 3 40q0 33 -8 65t-25 58t-43 42t-63 16z" />
    <glyph glyph-name="centonum.tnum" 
d="M203 -83l21 122q-61 12 -98 57.5t-37 113.5q0 51 14.5 95.5t42 78.5t66.5 55.5t88 27.5l21 121h61l-22 -121q31 -2 57.5 -10.5t44.5 -19.5l-17 -49q-23 12 -52.5 20.5t-60.5 8.5q-41 0 -74 -15.5t-56 -43t-36 -64.5t-13 -80q0 -60 31 -94t91 -34q32 0 60 8.5t57 25.5
l16 -47q-23 -14 -56 -25t-68 -13l-20 -118h-61z" />
    <glyph glyph-name="dollaronum.tnum" 
d="M201 -109l20 112q-13 2 -28.5 5.5t-32 9t-32.5 12t-29 13.5l15 50q32 -17 71 -29.5t77 -12.5q51 0 82 22t31 65q0 19 -8.5 34t-22.5 28t-31.5 24.5t-35.5 22.5q-21 13 -42 26.5t-37.5 30t-26.5 36.5t-10 44q0 31 11 55t30.5 40.5t46 25.5t56.5 11l19 109h61l-20 -111
q29 -4 55.5 -12.5t51.5 -22.5l-17 -49q-28 17 -63 27t-69 10q-42 0 -70.5 -17.5t-28.5 -58.5q0 -16 6 -28.5t16.5 -23t24.5 -19.5t30 -19q18 -12 42 -26t45 -32.5t35.5 -43t14.5 -55.5q0 -32 -12 -57.5t-33.5 -43.5t-50 -29t-61.5 -13l-19 -110h-61z" />
    <glyph glyph-name="Euroonum.tnum" 
d="M398 519q41 0 74 -7t65 -22l-13 -49q-30 13 -60 20t-65 7q-71 0 -115.5 -33t-67.5 -87h232l-8 -42h-239q-12 -45 -12 -96h235l-8 -42h-225q9 -60 48.5 -93.5t109.5 -33.5q33 0 65 6t63 20l10 -47q-26 -13 -64.5 -21.5t-79.5 -8.5q-47 0 -84 13.5t-64 37.5t-44 56.5
t-22 70.5h-94l7 42h84q0 25 3.5 48.5t8.5 47.5h-79l8 42h84q27 76 89 123.5t158 47.5z" />
    <glyph glyph-name="sterlingonum.tnum" 
d="M90 273h96l8 45q19 104 66 152.5t134 48.5q35 0 66.5 -8t56.5 -22l-16 -50q-26 13 -52 20t-55 7q-59 0 -90 -35t-45 -113l-8 -45h177l-9 -52h-178q-14 -62 -41.5 -103.5t-72.5 -73.5q21 13 45.5 20t56.5 7q19 0 35.5 -4.5t32.5 -10t32.5 -10t35.5 -4.5q24 0 42 6.5
t33 17.5l17 -45q-17 -13 -43 -22t-57 -9q-20 0 -38 4.5t-36 10.5t-36.5 10.5t-39.5 4.5q-40 0 -73 -9.5t-61 -22.5l-19 47q51 38 79.5 81t42.5 105h-96z" />
    <glyph glyph-name="yenonum.tnum" 
d="M389 304h87l-8 -44h-107l-51 -78l-4 -21h145l-8 -44h-144l-21 -117h-65l21 117h-146l8 44h145l6 29l-24 70h-110l8 44h87l-69 205h63l86 -271l165 271h71z" />
    <glyph glyph-name="numbersignonum.tnum" horiz-adv-x="632" 
d="M380 136h-190l-40 -136h-52l39 136h-100l7 44h106l50 173h-106l7 44h112l36 122h53l-36 -122h190l36 122h53l-36 -122h97l-8 -44h-102l-50 -173h104l-7 -44h-110l-40 -136h-53zM203 180h190l50 173h-190z" />
    <glyph glyph-name="plusonum.tnum" 
d="M315 229v-209h-59v209h-196v51h196v209h59v-209h196v-51h-196z" />
    <glyph glyph-name="plusminusonum.tnum" 
d="M315 278v-160h-59v160h-196v51h196v160h59v-160h196v-51h-196zM60 51h451v-51h-451v51z" />
    <glyph glyph-name="multiplyonum.tnum" 
d="M447 454l39 -38l-163 -162l163 -162l-39 -39l-162 163l-162 -163l-38 39l162 162l-162 162l38 38l162 -163z" />
    <glyph glyph-name="divideonum.tnum" 
d="M60 229v51h451v-51h-451zM236 74q0 20 13.5 34.5t35.5 14.5q23 0 36 -14.5t13 -34.5t-13 -34.5t-36 -14.5q-22 0 -35.5 14.5t-13.5 34.5zM236 435q0 20 13.5 34.5t35.5 14.5q23 0 36 -14.5t13 -34.5t-13 -34.5t-36 -14.5q-22 0 -35.5 14.5t-13.5 34.5z" />
    <glyph glyph-name="equalonum.tnum" 
d="M65 384h441v-51h-441v51zM65 175h441v-51h-441v51z" />
    <glyph glyph-name="notequalonum.tnum" 
d="M65 384h266l68 118l42 -25l-54 -93h119v-51h-148l-90 -158h238v-51h-268l-67 -118l-42 25l53 93h-117v51h146l91 158h-237v51z" />
    <glyph glyph-name="logicalnotonum.tnum" 
d="M442 20v209h-392v51h451v-260h-59z" />
    <glyph glyph-name="approxequalonum.tnum" 
d="M387 284q-30 0 -55 9.5t-54 24.5q-26 14 -45 21.5t-42 7.5q-27 0 -48.5 -11.5t-47.5 -33.5l-27 39q30 28 58 42.5t66 14.5q28 0 52 -7.5t54 -24.5q26 -14 45.5 -22.5t44.5 -8.5q26 0 46 11t43 31l27 -38q-27 -24 -55 -39.5t-62 -15.5zM387 110q-30 0 -55 9.5t-54 24.5
q-26 14 -45 21.5t-42 7.5q-27 0 -48.5 -11.5t-47.5 -33.5l-27 39q30 28 58 42.5t66 14.5q28 0 52 -7.5t54 -24.5q26 -14 45.5 -22.5t44.5 -8.5q26 0 46 11t43 31l27 -38q-27 -24 -55 -39.5t-62 -15.5z" />
    <glyph glyph-name="endashonum.tnum" 
d="M90 227l9 54h377l-9 -54h-377z" />
    <glyph glyph-name="minusonum.tnum" 
d="M80 229v52h412v-52h-412z" />
    <glyph glyph-name="lessonum.tnum" 
d="M478 498l23 -48l-389 -196l389 -196l-23 -48l-428 219v50z" />
    <glyph glyph-name="greateronum.tnum" 
d="M501 279v-50l-428 -219l-23 48l389 196l-389 196l23 48z" />
    <glyph glyph-name="lessequalonum.tnum" 
d="M488 498l15 -50l-388 -129l388 -129l-15 -50l-440 152v54zM45 51h461v-51h-461v51z" />
    <glyph glyph-name="greaterequalonum.tnum" 
d="M503 346v-54l-440 -152l-15 50l388 129l-388 129l15 50zM506 0h-461v51h461v-51z" />
    <glyph glyph-name="percentonum.tnum" horiz-adv-x="792" 
d="M557 529l40 -28l-369 -511l-40 29zM361 404q0 -33 -12 -63t-34.5 -53t-53.5 -36.5t-69 -13.5q-29 0 -52.5 9.5t-40 26.5t-25.5 40t-9 50q0 33 11.5 63t33 52.5t52.5 36t71 13.5q30 0 54 -10t40.5 -27t25 -39.5t8.5 -48.5zM197 282q26 0 46.5 10t35 26.5t22 38t7.5 44.5
q0 34 -18.5 59t-62.5 25q-49 0 -79 -33t-30 -86q0 -39 18.5 -61.5t60.5 -22.5zM722 156q0 -33 -12 -63t-34.5 -53t-53.5 -36.5t-69 -13.5q-29 0 -52.5 9.5t-40 26.5t-25.5 40t-9 50q0 33 11.5 63t33 52.5t52.5 36t71 13.5q30 0 54 -10t40.5 -27t25 -39.5t8.5 -48.5zM558 34
q26 0 46.5 10t35 26.5t22 38t7.5 44.5q0 34 -18.5 59t-62.5 25q-49 0 -79 -33t-30 -86q0 -39 18.5 -61.5t60.5 -22.5z" />
    <glyph glyph-name="perthousandonum.tnum" horiz-adv-x="1136" 
d="M557 529l40 -28l-369 -511l-40 29zM361 404q0 -33 -12 -63t-34.5 -53t-53.5 -36.5t-69 -13.5q-29 0 -52.5 9.5t-40 26.5t-25.5 40t-9 50q0 33 11.5 63t33 52.5t52.5 36t71 13.5q30 0 54 -10t40.5 -27t25 -39.5t8.5 -48.5zM197 282q26 0 46.5 10t35 26.5t22 38t7.5 44.5
q0 34 -18.5 59t-62.5 25q-49 0 -79 -33t-30 -86q0 -39 18.5 -61.5t60.5 -22.5zM722 156q0 -33 -12 -63t-34.5 -53t-53.5 -36.5t-69 -13.5q-29 0 -52.5 9.5t-40 26.5t-25.5 40t-9 50q0 33 11.5 63t33 52.5t52.5 36t71 13.5q30 0 54 -10t40.5 -27t25 -39.5t8.5 -48.5zM558 34
q26 0 46.5 10t35 26.5t22 38t7.5 44.5q0 34 -18.5 59t-62.5 25q-49 0 -79 -33t-30 -86q0 -39 18.5 -61.5t60.5 -22.5zM1066 156q0 -33 -12 -63t-34.5 -53t-53.5 -36.5t-69 -13.5q-29 0 -52.5 9.5t-40 26.5t-25.5 40t-9 50q0 33 11.5 63t33 52.5t52.5 36t71 13.5q30 0 54 -10
t40.5 -27t25 -39.5t8.5 -48.5zM902 34q26 0 46.5 10t35 26.5t22 38t7.5 44.5q0 34 -18.5 59t-62.5 25q-49 0 -79 -33t-30 -86q0 -39 18.5 -61.5t60.5 -22.5z" />
    <glyph glyph-name="zerosmcp.tnum" 
d="M473 331q0 -56 -14.5 -116.5t-44 -110.5t-74.5 -82t-106 -32q-41 0 -70.5 16t-48.5 43t-28 62t-9 72q0 55 14.5 114t44 108.5t74 81.5t105.5 32q39 0 68.5 -14t49 -39t29.5 -59.5t10 -75.5zM240 43q42 0 73.5 28t52.5 71t31.5 92.5t10.5 93.5q0 30 -6 55t-18 43.5
t-30.5 29t-43.5 10.5q-42 0 -73 -28t-52 -70t-31.5 -91t-10.5 -92q0 -30 5 -56t16 -45t30 -30t46 -11z" />
    <glyph glyph-name="onesmcp.tnum" 
d="M82 52h164l69 393l-165 -49l-12 51l205 62h48l-80 -457h167l-9 -52h-396z" />
    <glyph glyph-name="twosmcp.tnum" 
d="M168 484q59 35 135 35q32 0 59.5 -8.5t47.5 -25.5t31.5 -42t11.5 -57q0 -41 -15 -76.5t-38.5 -65t-51 -54t-51.5 -43.5q-32 -25 -61 -46.5t-63 -47.5h246l-9 -53h-322l-10 43q57 45 96.5 76t73.5 59l45.5 39t45.5 46.5t35 54.5t14 63q0 38 -23.5 61t-68.5 23
q-29 0 -56.5 -8t-56.5 -23z" />
    <glyph glyph-name="threesmcp.tnum" 
d="M421 130q0 -30 -13 -56t-36 -44.5t-55 -29t-70 -10.5q-42 0 -83 12t-70 29l18 49q30 -17 64 -27t69 -10q51 0 81 23.5t30 63.5q0 25 -12 43.5t-32 31.5t-47 19.5t-57 6.5h-27l6 54h35q31 0 61.5 7t54.5 21.5t39 35.5t15 48q0 35 -25.5 52t-62.5 17q-61 0 -117 -28l-14 50
q54 31 136 31q67 0 107.5 -30.5t40.5 -82.5q0 -30 -11.5 -54.5t-31 -43t-46.5 -31.5t-57 -20q46 -13 78 -44.5t32 -82.5z" />
    <glyph glyph-name="foursmcp.tnum" 
d="M332 489l-199 -296h198l23 133h61l-24 -133h78l-7 -50h-79l-26 -143h-60l25 143h-249l-10 45l225 331z" />
    <glyph glyph-name="fivesmcp.tnum" 
d="M419 145q0 -37 -15 -66t-40.5 -48.5t-60.5 -30t-75 -10.5q-17 0 -36.5 2.5t-39 6.5t-38 9.5t-33.5 11.5l13 53q32 -14 66 -22.5t66 -8.5q57 0 93 25t36 74q0 28 -15.5 47.5t-43.5 32t-67.5 18.5t-87.5 6l47 264h269l-9 -53h-205l-29 -163q40 -2 77 -10.5t65.5 -26.5
t45.5 -45.5t17 -65.5z" />
    <glyph glyph-name="sixsmcp.tnum" 
d="M444 470q-51 -18 -94 -39t-78 -47.5t-60 -59.5t-40 -75q29 23 60.5 36t73.5 13q65 0 105.5 -39.5t40.5 -104.5q0 -34 -13.5 -64t-38 -52t-58 -35t-72.5 -13q-44 0 -76 15t-53 40.5t-31.5 59t-10.5 69.5q0 69 28 124.5t74.5 99t105.5 73.5t121 48zM272 40q54 0 86 30.5
t32 81.5q0 48 -28 72.5t-75 24.5q-34 0 -67.5 -15.5t-56.5 -36.5q-2 -10 -2 -19v-19q1 -22 7.5 -43.5t19.5 -38t34 -27t50 -10.5z" />
    <glyph glyph-name="sevensmcp.tnum" 
d="M483 461l-327 -471l-47 32l303 433h-265l7 54h323z" />
    <glyph glyph-name="eightsmcp.tnum" 
d="M468 407q0 -26 -11 -47.5t-29.5 -39t-42 -31.5t-48.5 -24q19 -10 38 -23.5t34 -30t24 -36t9 -41.5q0 -36 -16.5 -63t-43.5 -45t-61 -27t-70 -9q-34 0 -64.5 8.5t-53 24t-36 38t-13.5 50.5q0 29 11 52.5t31.5 42.5t48 34t60.5 29q-36 20 -62 50t-26 72q0 32 13.5 56
t36.5 40t53.5 24t65.5 8q68 0 110 -31t42 -81zM380 131q0 34 -27 59.5t-69 49.5q-33 -15 -58.5 -28t-43 -27.5t-27 -31t-9.5 -37.5q0 -38 30.5 -58.5t78.5 -20.5q25 0 48 6t40 18t27 29.5t10 40.5zM207 393q0 -32 20.5 -55t62.5 -46q24 11 45.5 22.5t37.5 24.5t25 28.5
t9 33.5q0 30 -24 51t-69 21q-21 0 -40.5 -5t-34 -14.5t-23.5 -24.5t-9 -36z" />
    <glyph glyph-name="ninesmcp.tnum" 
d="M107 39q51 18 94 39t78 47.5t60 59.5t40 75q-24 -22 -58 -35.5t-76 -13.5q-32 0 -58.5 10.5t-46 29.5t-30.5 45.5t-11 58.5q0 35 12.5 65t35.5 52t57 34.5t77 12.5q44 0 76 -15t53 -40.5t31.5 -59t10.5 -69.5q0 -69 -28 -124.5t-74.5 -99t-105.5 -73.5t-121 -48zM279 469
q-54 0 -86 -29.5t-32 -82.5q0 -50 29 -73.5t74 -23.5q34 0 67.5 15.5t56.5 36.5q2 10 2 19v19q-1 22 -7.5 43.5t-19.5 38t-34 27t-50 10.5z" />
    <glyph glyph-name="centsmcp.tnum" 
d="M203 -83l21 122q-61 12 -98 57.5t-37 113.5q0 51 14.5 95.5t42 78.5t66.5 55.5t88 27.5l21 121h61l-22 -121q31 -2 57.5 -10.5t44.5 -19.5l-17 -49q-23 12 -52.5 20.5t-60.5 8.5q-41 0 -74 -15.5t-56 -43t-36 -64.5t-13 -80q0 -60 31 -94t91 -34q32 0 60 8.5t57 25.5
l16 -47q-23 -14 -56 -25t-68 -13l-20 -118h-61z" />
    <glyph glyph-name="dollarsmcp.tnum" 
d="M201 -109l20 112q-13 2 -28.5 5.5t-32 9t-32.5 12t-29 13.5l15 50q32 -17 71 -29.5t77 -12.5q51 0 82 22t31 65q0 19 -8.5 34t-22.5 28t-31.5 24.5t-35.5 22.5q-21 13 -42 26.5t-37.5 30t-26.5 36.5t-10 44q0 31 11 55t30.5 40.5t46 25.5t56.5 11l19 109h61l-20 -111
q29 -4 55.5 -12.5t51.5 -22.5l-17 -49q-28 17 -63 27t-69 10q-42 0 -70.5 -17.5t-28.5 -58.5q0 -16 6 -28.5t16.5 -23t24.5 -19.5t30 -19q18 -12 42 -26t45 -32.5t35.5 -43t14.5 -55.5q0 -32 -12 -57.5t-33.5 -43.5t-50 -29t-61.5 -13l-19 -110h-61z" />
    <glyph glyph-name="Eurosmcp.tnum" 
d="M398 519q41 0 74 -7t65 -22l-13 -49q-30 13 -60 20t-65 7q-71 0 -115.5 -33t-67.5 -87h232l-8 -42h-239q-12 -45 -12 -96h235l-8 -42h-225q9 -60 48.5 -93.5t109.5 -33.5q33 0 65 6t63 20l10 -47q-26 -13 -64.5 -21.5t-79.5 -8.5q-47 0 -84 13.5t-64 37.5t-44 56.5
t-22 70.5h-94l7 42h84q0 25 3.5 48.5t8.5 47.5h-79l8 42h84q27 76 89 123.5t158 47.5z" />
    <glyph glyph-name="sterlingsmcp.tnum" 
d="M90 273h96l8 45q19 104 66 152.5t134 48.5q35 0 66.5 -8t56.5 -22l-16 -50q-26 13 -52 20t-55 7q-59 0 -90 -35t-45 -113l-8 -45h177l-9 -52h-178q-14 -62 -41.5 -103.5t-72.5 -73.5q21 13 45.5 20t56.5 7q19 0 35.5 -4.5t32.5 -10t32.5 -10t35.5 -4.5q24 0 42 6.5
t33 17.5l17 -45q-17 -13 -43 -22t-57 -9q-20 0 -38 4.5t-36 10.5t-36.5 10.5t-39.5 4.5q-40 0 -73 -9.5t-61 -22.5l-19 47q51 38 79.5 81t42.5 105h-96z" />
    <glyph glyph-name="yensmcp.tnum" 
d="M389 304h87l-8 -44h-107l-51 -78l-4 -21h145l-8 -44h-144l-21 -117h-65l21 117h-146l8 44h145l6 29l-24 70h-110l8 44h87l-69 205h63l86 -271l165 271h71z" />
    <glyph glyph-name="numbersignsmcp.tnum" horiz-adv-x="606" 
d="M366 137h-181l-40 -137h-52l40 137h-96l8 45h102l44 150h-102l7 45h108l40 132h52l-40 -132h181l40 132h52l-40 -132h91l-8 -45h-96l-44 -150h96l-8 -45h-102l-41 -137h-52zM199 182h181l44 150h-181z" />
    <glyph glyph-name="plussmcp.tnum" 
d="M315 229v-209h-59v209h-196v51h196v209h59v-209h196v-51h-196z" />
    <glyph glyph-name="plusminussmcp.tnum" 
d="M315 278v-160h-59v160h-196v51h196v160h59v-160h196v-51h-196zM60 51h451v-51h-451v51z" />
    <glyph glyph-name="multiplysmcp.tnum" 
d="M447 454l39 -38l-163 -162l163 -162l-39 -39l-162 163l-162 -163l-38 39l162 162l-162 162l38 38l162 -163z" />
    <glyph glyph-name="dividesmcp.tnum" 
d="M60 229v51h451v-51h-451zM236 74q0 20 13.5 34.5t35.5 14.5q23 0 36 -14.5t13 -34.5t-13 -34.5t-36 -14.5q-22 0 -35.5 14.5t-13.5 34.5zM236 435q0 20 13.5 34.5t35.5 14.5q23 0 36 -14.5t13 -34.5t-13 -34.5t-36 -14.5q-22 0 -35.5 14.5t-13.5 34.5z" />
    <glyph glyph-name="equalsmcp.tnum" 
d="M65 384h441v-51h-441v51zM65 175h441v-51h-441v51z" />
    <glyph glyph-name="notequalsmcp.tnum" 
d="M65 384h266l68 118l42 -25l-54 -93h119v-51h-148l-90 -158h238v-51h-268l-67 -118l-42 25l53 93h-117v51h146l91 158h-237v51z" />
    <glyph glyph-name="logicalnotsmcp.tnum" 
d="M442 20v209h-392v51h451v-260h-59z" />
    <glyph glyph-name="approxequalsmcp.tnum" 
d="M387 284q-30 0 -55 9.5t-54 24.5q-26 14 -45 21.5t-42 7.5q-27 0 -48.5 -11.5t-47.5 -33.5l-27 39q30 28 58 42.5t66 14.5q28 0 52 -7.5t54 -24.5q26 -14 45.5 -22.5t44.5 -8.5q26 0 46 11t43 31l27 -38q-27 -24 -55 -39.5t-62 -15.5zM387 110q-30 0 -55 9.5t-54 24.5
q-26 14 -45 21.5t-42 7.5q-27 0 -48.5 -11.5t-47.5 -33.5l-27 39q30 28 58 42.5t66 14.5q28 0 52 -7.5t54 -24.5q26 -14 45.5 -22.5t44.5 -8.5q26 0 46 11t43 31l27 -38q-27 -24 -55 -39.5t-62 -15.5z" />
    <glyph glyph-name="endashsmcp.tnum" 
d="M90 227l9 54h377l-9 -54h-377z" />
    <glyph glyph-name="minussmcp.tnum" 
d="M80 229v52h412v-52h-412z" />
    <glyph glyph-name="lesssmcp.tnum" 
d="M478 498l23 -48l-389 -196l389 -196l-23 -48l-428 219v50z" />
    <glyph glyph-name="greatersmcp.tnum" 
d="M501 279v-50l-428 -219l-23 48l389 196l-389 196l23 48z" />
    <glyph glyph-name="lessequalsmcp.tnum" 
d="M488 498l15 -50l-388 -129l388 -129l-15 -50l-440 152v54zM45 51h461v-51h-461v51z" />
    <glyph glyph-name="greaterequalsmcp.tnum" 
d="M503 346v-54l-440 -152l-15 50l388 129l-388 129l15 50zM506 0h-461v51h461v-51z" />
    <glyph glyph-name="percentsmcp.tnum" horiz-adv-x="797" 
d="M556 519l40 -28l-362 -501l-40 29zM361 394q0 -33 -12 -63t-34.5 -53t-53.5 -36.5t-69 -13.5q-29 0 -52.5 9.5t-40 26.5t-25.5 40t-9 50q0 33 11.5 63t33 52.5t52.5 36t71 13.5q30 0 54 -10t40.5 -27t25 -39.5t8.5 -48.5zM197 272q26 0 46.5 10t35 26.5t22 38t7.5 44.5
q0 34 -18.5 59t-62.5 25q-49 0 -79 -33t-30 -86q0 -39 18.5 -61.5t60.5 -22.5zM727 156q0 -33 -12 -63t-34.5 -53t-53.5 -36.5t-69 -13.5q-29 0 -52.5 9.5t-40 26.5t-25.5 40t-9 50q0 33 11.5 63t33 52.5t52.5 36t71 13.5q30 0 54 -10t40.5 -27t25 -39.5t8.5 -48.5zM563 34
q26 0 46.5 10t35 26.5t22 38t7.5 44.5q0 34 -18.5 59t-62.5 25q-49 0 -79 -33t-30 -86q0 -39 18.5 -61.5t60.5 -22.5z" />
    <glyph glyph-name="perthousandsmcp.tnum" horiz-adv-x="1142" 
d="M556 519l40 -28l-362 -501l-40 29zM361 394q0 -33 -12 -63t-34.5 -53t-53.5 -36.5t-69 -13.5q-29 0 -52.5 9.5t-40 26.5t-25.5 40t-9 50q0 33 11.5 63t33 52.5t52.5 36t71 13.5q30 0 54 -10t40.5 -27t25 -39.5t8.5 -48.5zM197 272q26 0 46.5 10t35 26.5t22 38t7.5 44.5
q0 34 -18.5 59t-62.5 25q-49 0 -79 -33t-30 -86q0 -39 18.5 -61.5t60.5 -22.5zM727 156q0 -33 -12 -63t-34.5 -53t-53.5 -36.5t-69 -13.5q-29 0 -52.5 9.5t-40 26.5t-25.5 40t-9 50q0 33 11.5 63t33 52.5t52.5 36t71 13.5q30 0 54 -10t40.5 -27t25 -39.5t8.5 -48.5zM563 34
q26 0 46.5 10t35 26.5t22 38t7.5 44.5q0 34 -18.5 59t-62.5 25q-49 0 -79 -33t-30 -86q0 -39 18.5 -61.5t60.5 -22.5zM1072 156q0 -33 -12 -63t-34.5 -53t-53.5 -36.5t-69 -13.5q-29 0 -52.5 9.5t-40 26.5t-25.5 40t-9 50q0 33 11.5 63t33 52.5t52.5 36t71 13.5q30 0 54 -10
t40.5 -27t25 -39.5t8.5 -48.5zM908 34q26 0 46.5 10t35 26.5t22 38t7.5 44.5q0 34 -18.5 59t-62.5 25q-49 0 -79 -33t-30 -86q0 -39 18.5 -61.5t60.5 -22.5z" />
    <glyph glyph-name="A.smcp" horiz-adv-x="579" 
d="M405 127h-269l-75 -127h-71l311 509h67l134 -509h-66zM168 180h224l-64 273z" />
    <glyph glyph-name="B.smcp" horiz-adv-x="511" 
d="M45 0l90 509h174q30 0 57 -8t47 -23t31.5 -36.5t11.5 -47.5t-10 -47t-26.5 -37.5t-38 -28t-45.5 -18.5q54 -12 85 -40t31 -76q0 -38 -18.5 -65.5t-48.5 -45.5t-68 -27t-76 -9h-196zM388 147q0 24 -10.5 41t-28.5 27.5t-42.5 15.5t-51.5 5h-105l-33 -185h125q29 0 55.5 6
t46.5 18t32 30t12 42zM249 287q30 0 56 6.5t45.5 18.5t30.5 30.5t11 42.5q0 39 -28 56t-67 17h-108l-30 -171h90z" />
    <glyph glyph-name="C.smcp" horiz-adv-x="514" 
d="M339 519q40 0 81 -7.5t78 -24.5l-14 -53q-35 15 -71.5 23t-71.5 8q-56 0 -99 -17.5t-72.5 -49.5t-44.5 -77t-15 -99q0 -81 47 -129.5t139 -48.5q37 0 72 6.5t64 17.5l9 -51q-29 -12 -69 -19.5t-82 -7.5q-60 0 -106 18.5t-76.5 50.5t-46.5 74t-16 89q0 66 20 120.5t58 94
t92.5 61t123.5 21.5z" />
    <glyph glyph-name="D.smcp" horiz-adv-x="583" 
d="M135 509h142q62 0 112 -16.5t84.5 -46t53 -70t18.5 -89.5q0 -69 -27 -122.5t-74 -90t-111 -55.5t-138 -19h-150zM201 53q59 0 110 15t88.5 43.5t59 72t21.5 100.5q0 42 -15 74.5t-43 54t-66.5 32.5t-86.5 11h-78l-71 -403h81z" />
    <glyph glyph-name="E.smcp" horiz-adv-x="459" 
d="M135 509h308l-9 -53h-244l-30 -173h234l-9 -53h-235l-31 -177h247l-9 -53h-312z" />
    <glyph glyph-name="F.smcp" horiz-adv-x="446" 
d="M45 0l90 509h310l-9 -54h-246l-33 -188h237l-9 -54h-237l-38 -213h-65z" />
    <glyph glyph-name="G.smcp" horiz-adv-x="572" 
d="M343 519q107 0 185 -37l-15 -54q-41 19 -83.5 28t-85.5 9q-53 0 -96 -17t-74 -48.5t-47.5 -76.5t-16.5 -102q0 -93 52.5 -136t145.5 -43q28 0 56 3.5t49 11.5l29 164h59l-36 -204q-32 -14 -77 -20.5t-87 -6.5q-61 0 -108.5 17t-80.5 47t-50 72t-17 93q0 66 20 121
t58 94.5t93.5 62t126.5 22.5z" />
    <glyph glyph-name="H.smcp" horiz-adv-x="604" 
d="M404 0l41 231h-294l-41 -231h-65l90 509h65l-39 -222h294l39 222h65l-90 -509h-65z" />
    <glyph glyph-name="I.smcp" horiz-adv-x="251" 
d="M113 0h-65l90 509h65z" />
    <glyph glyph-name="J.smcp" horiz-adv-x="248" 
d="M140 136q-17 -95 -57.5 -161t-111.5 -120l-39 42q56 45 92 99t50 135l67 378h65z" />
    <glyph glyph-name="K.smcp" horiz-adv-x="504" 
d="M45 0l90 509h65l-43 -242l264 242h88l-282 -255l225 -254h-85l-213 250l-44 -250h-65z" />
    <glyph glyph-name="L.smcp" horiz-adv-x="432" 
d="M200 509l-80 -455h243l-9 -54h-309l90 509h65z" />
    <glyph glyph-name="M.smcp" horiz-adv-x="732" 
d="M599 509h68l-57 -509h-64l49 406l-221 -316h-71l-115 317l-92 -407h-63l120 509h58l134 -367z" />
    <glyph glyph-name="N.smcp" horiz-adv-x="616" 
d="M422 0l-241 418l-74 -418h-62l89 509h59l242 -415l73 415h62l-89 -509h-59z" />
    <glyph glyph-name="O.smcp" horiz-adv-x="624" 
d="M580 295q0 -63 -22 -118.5t-61.5 -97t-95.5 -65.5t-123 -24q-55 0 -98 18t-72.5 48.5t-45 72.5t-15.5 90q0 61 20.5 116t59 95.5t93.5 64.5t125 24q54 0 97.5 -17t74 -47t47 -71t16.5 -89zM286 43q51 0 93 20t72 54t47 79t17 95q0 37 -12 69.5t-34.5 55.5t-56 36.5
t-75.5 13.5q-50 0 -91 -18t-71 -50.5t-46.5 -77.5t-16.5 -99q0 -84 43 -131t131 -47z" />
    <glyph glyph-name="P.smcp" horiz-adv-x="461" 
d="M449 373q0 -47 -20 -79.5t-54.5 -53t-79.5 -30t-94 -9.5h-56l-35 -201h-65l90 509h147q35 0 65.5 -9.5t53 -27t35.5 -42.5t13 -57zM206 253q36 0 68.5 6t57 20t39 36t14.5 54q0 44 -31.5 66t-80.5 22h-82l-36 -204h51z" />
    <glyph glyph-name="Q.smcp" horiz-adv-x="625" 
d="M580 295q0 -91 -45 -165t-123 -111l132 -87l-33 -47l-162 113q-35 -8 -71 -8q-55 0 -98 18t-72.5 48.5t-45 72.5t-15.5 90q0 61 20.5 116t59 95.5t93.5 64.5t125 24q54 0 97.5 -17t74 -47t47 -71t16.5 -89zM286 43q50 0 92 20t72.5 54t47.5 79t17 95q0 37 -12 69.5
t-34.5 55.5t-56 36.5t-75.5 13.5q-50 0 -91 -18t-71 -50.5t-46.5 -77.5t-16.5 -99q0 -84 43 -131t131 -47z" />
    <glyph glyph-name="R.smcp" horiz-adv-x="515" 
d="M458 376q0 -68 -47.5 -107.5t-122.5 -53.5l163 -215h-78l-151 207h-76l-36 -207h-65l90 509h150q35 0 66.5 -8.5t55 -25t37.5 -41.5t14 -58zM212 258q36 0 69.5 6.5t58.5 20.5t40 35.5t15 51.5q0 43 -34.5 64t-86.5 21h-83l-36 -199h57z" />
    <glyph glyph-name="S.smcp" horiz-adv-x="446" 
d="M384 139q0 -33 -13 -60t-37 -47t-58.5 -31t-76.5 -11q-46 0 -89 9.5t-81 26.5l15 52q35 -17 76 -26.5t80 -9.5q57 0 88 24.5t31 66.5q0 20 -8.5 36t-23 29t-33.5 24t-39 22q-24 13 -47 26t-40.5 29.5t-28.5 37t-11 47.5q0 33 12.5 58.5t35 42.5t53.5 25.5t68 8.5
q44 0 83.5 -8.5t75.5 -27.5l-15 -52q-35 17 -71 26.5t-73 9.5q-45 0 -74.5 -18t-29.5 -59q0 -17 6.5 -29.5t18 -22t27.5 -19t35 -20.5q21 -12 46 -26t46.5 -32.5t36.5 -43.5t15 -58z" />
    <glyph glyph-name="T.smcp" horiz-adv-x="457" 
d="M469 509l-10 -54h-160l-81 -455h-65l81 455h-160l10 54h385z" />
    <glyph glyph-name="U.smcp" horiz-adv-x="607" 
d="M500 509h65l-56 -316q-8 -45 -27 -82.5t-49.5 -64t-72.5 -41.5t-95 -15q-45 0 -80.5 13t-60 36t-37.5 54t-13 68q0 11 0.5 19t2.5 17l54 312h65l-55 -311q-3 -18 -3 -36q0 -53 32.5 -86t100.5 -33q75 0 118 40t55 109z" />
    <glyph glyph-name="V.smcp" horiz-adv-x="505" 
d="M244 0h-64l-113 509h63l93 -437l234 437h71z" />
    </font>
</defs>
</svg>
